<?xml version="1.0" standalone="no"?>
<!DOCTYPE svg PUBLIC "-//W3C//DTD SVG 1.1//EN" "http://www.w3.org/Graphics/SVG/1.1/DTD/svg11.dtd" >
<svg xmlns="http://www.w3.org/2000/svg" xmlns:xlink="http://www.w3.org/1999/xlink" version="1.1">
<metadata>
Created by FontForge 20170731 at Tue Feb 15 20:57:49 2000
 By Aleksey,,,
</metadata>
<defs>
<font id="Mystical" horiz-adv-x="0" >
  <font-face 
    font-family="Mystical"
    font-weight="400"
    font-stretch="normal"
    units-per-em="1000"
    panose-1="0 0 4 0 0 0 0 0 0 0"
    ascent="800"
    descent="-200"
    x-height="309"
    cap-height="699"
    bbox="-453 -342 980 1132"
    underline-thickness="25"
    underline-position="-86"
    unicode-range="U+0020-F02A"
  />
<missing-glyph horiz-adv-x="500" 
d="M63 0v751h375v-751h-375zM125 63h250v626h-250v-626z" />
    <glyph glyph-name=".notdef" horiz-adv-x="500" 
d="M63 0v751h375v-751h-375zM125 63h250v626h-250v-626z" />
    <glyph glyph-name=".null" 
 />
    <glyph glyph-name="nonmarkingreturn" horiz-adv-x="232" 
 />
    <glyph glyph-name="space" unicode=" " horiz-adv-x="232" 
 />
    <glyph glyph-name="space" unicode="&#x2031;" horiz-adv-x="232" 
 />
    <glyph glyph-name="space" unicode="&#x2025;" horiz-adv-x="232" 
 />
    <glyph glyph-name="space" unicode="&#x2024;" horiz-adv-x="232" 
 />
    <glyph glyph-name="space" unicode="&#x2023;" horiz-adv-x="232" 
 />
    <glyph glyph-name="space" unicode="&#x201f;" horiz-adv-x="232" 
 />
    <glyph glyph-name="space" unicode="&#x201b;" horiz-adv-x="232" 
 />
    <glyph glyph-name="space" unicode="&#x2017;" horiz-adv-x="232" 
 />
    <glyph glyph-name="space" unicode="&#x2016;" horiz-adv-x="232" 
 />
    <glyph glyph-name="space" unicode="&#x2015;" horiz-adv-x="232" 
 />
    <glyph glyph-name="exclam" unicode="!" horiz-adv-x="332" 
d="M176 164q0 -6 -35 -43q-15 -16 -28 -17q-6 3 -7.5 7t-1.5 14l2 21q2 21 2 32v21q0 5 -2 12l8 58l10 65q2 34 2 53q0 12 7.5 37t7.5 37q0 27 -3 30t-9 4t-7 2.5t-1.5 3.5t-1.5 3q14 53 14 88q0 51 17 68q4 6 14 9l16 7q43 43 66 43q16 0 16 -28q0 -16 -7 -45
q-3 -11 -5 -25q-2 -5 -4 -16q-10 -64 -13 -85q-5 -38 -12 -114q-1 -23 -14.5 -68t-13.5 -70q-6 -12 -12 -51q-5 -35 -5 -53zM82 -37l-0.5 1t-2 3t-4.5 11q-5 14 -7 26q14 38 49 60h6q25 0 43 -5q8 -8 8 -22l-2 -14l-1 -18q-2 -34 -17 -34q-5 0 -19 -2q-4 -1 -17 -2z" />
    <glyph glyph-name="quotedbl" unicode="&#x22;" horiz-adv-x="406" 
d="M156 629q0 10 -6 17q0 4 -2 6q2 6 2 16q0 4 -2 6q8 12 45 27q10 0 27.5 -10t17.5 -19q0 -12 -5 -41l-6 -35q-8 -45 -12 -45q0 -9 -7 -30.5t-7 -32.5l2 -6q0 -9 -4 -14.5t-11 -9.5l-13 -8l-13 -5q-11 3 -10 24l3 44q3 44 3 57q0 31 -4 43zM303 627l-6 15q-3 11 -3 20
q0 19 10 24q6 3 34 15l35 -13q10 -4 10 -16v-8q-1 -9 -4 -26q-1 -5 -4 -14l-4 -26q-7 -47 -13 -47q0 -1 -5 -26q-7 -16 -7 -35l2 -8q0 -19 -29 -31l-14 -6q-8 2 -8 24q0 3 4 58l4 55l-4 16l-2 13l1 8q2 7 3 8z" />
    <glyph glyph-name="numbersign" unicode="#" horiz-adv-x="580" 
d="M308 262q7 54 20 117q-21 0 -26 -1q-8 0 -31 -3h-30q-16 0 -30 2q-13 -95 -20 -117l56 2h61zM363 205q-4 0 -6 -2l-3 -6l-2 -7l-2 -8l-18 -94q-7 -36 -19 -39q-12 4 -14 25l-1 13q-1 10 -3 11q-11 14 -14 39q1 3 6 23q3 17 8 41q-6 -2 -28 -3l-25 -1q-52 4 -64 4
q-1 -5 -12 -61l-10 -52q-7 -36 -19 -39q-10 3 -16 25q0 14 -8 33.5t-9 27.5l16 68q-13 0 -38.5 -1t-38.5 -1q-31 0 -34 10q0 5 8 12t13 9q9 2 21 8q21 24 49 24q8 -2 29 -2l12 64l9 53l-5 -2q-2 2 -6 2q-15 0 -26 -1h-27l-33 -1q-31 -1 -34 10q1 7 8 13t13 8l12 4q7 1 9 4
q21 24 48 23l53 -1l20 99q9 45 35 45q20 0 20 -45q0 -40 -17 -99h121l9 52l7 47q2 15 12.5 30t23.5 15q21 0 21 -45q0 -36 -18 -99h37l28 1q41 1 41 -27q0 -33 -80 -33q-18 2 -35 2q-6 -62 -20 -119h94q31 0 31 -20q0 -13 -25 -25q-28 -14 -72 -14q-10 2 -32 2z" />
    <glyph glyph-name="dollar" unicode="$" horiz-adv-x="465" 
d="M186 -12q-44 -23 -71 -23q-45 0 -66 43q3 23 57 51q30 9 89 37l6 60q7 70 7 90q-2 12 -14 23l-35 30q-13 11 -40 45l-12 15l-15 24q-5 11 -9 28q-3 12 -3 36q0 58 48 106q43 43 122 95l2 37l3 34q3 17 7 25l6 2h24q3 0 7 -2v-8q0 -14 -1 -17q-2 -12 -3 -16l-3 -33
q10 2 48.5 16.5t52.5 14.5q29 0 29 -45q0 -63 -87 -97q-25 -10 -54 -14q-7 -18 -15 -99q-8 -84 -8 -102q106 -96 113 -178q18 -1 18 -21v-10q-2 -3 -8 -9l-10 -4l-13 -7q-16 -5 -67 -60q-18 -19 -35 -29l-35 -20q-1 -5 -5 -21l-2 -27q-1 -13 -5 -21h-12q-5 0 -13 2
q-1 3 -4 8q6 31 6 41zM285 150q0 26 -41 67q0 -18 -6.5 -54t-6.5 -54q54 11 54 41zM238 535q-46 0 -54 -66q5 -27 15 -51q2 -5 14 -17l12 -12q1 4 6 62z" />
    <glyph glyph-name="percent" unicode="%" horiz-adv-x="686" 
d="M398 195q8 59 57 162q18 38 43 38q24 0 25 -18q20 27 36 27q78 0 78 -131q0 -72 -20 -136q-6 -21 -19 -53q-30 -51 -34 -56q-20 -29 -44 -49q-19 -12 -40 -12q-26 0 -53 16q-31 18 -34 42q0 47 -10 57l3 12l3 11l-4 28q5 8 6 16l4 25zM543 311q-57 0 -57 -26
q-20 -39 -29 -117l6 -45l-4 -27q2 -4 2 -14q7 -32 23 -37q14 0 34 21q60 64 60 151q0 61 -6 68q-9 19 -13 22.5t-16 3.5zM55 439q-2 31 13 73q3 9 28 69q21 49 27 81q10 31 47 35q9 0 12 -1l6 -4l2 -4l1 -4q4 2 6.5 3.5t10.5 6.5q15 10 26 9q75 -5 75 -127q0 -64 -24 -133
l-7 -33q-1 -5 -4 -18q0 -4 -1 -7q-7 -3 -29 -37q-26 -39 -28 -43q-20 -25 -40 -30l-10 -4q-12 -5 -18 -5q-31 0 -56.5 21.5t-34.5 52.5q3 22 2 39zM209 611q-25 0 -40 -11.5t-23 -34.5q-5 -14 -12 -47l-5 -47q2 -9 2 -20l-2 -53q0 -12 9.5 -32t15.5 -20q9 0 22 13
q49 38 65 109q7 32 7 67q0 76 -39 76zM135 -39q0 90 82 185v2q15 72 68 165l52 91q6 11 44 88l47 95l19 42l3 14q4 16 21 47q6 8 19 27q1 3 12.5 5.5t13.5 4.5q31 19 43 19q4 0 5 -19q-1 -3 -4 -8.5t-5 -13.5l-13 -37l-22 -68q-16 -50 -74 -153l-194 -352l-33 -72
q-8 -32 -35 -86q-12 -15 -26 -15q-23 0 -23 39z" />
    <glyph glyph-name="percent" unicode="&#x202f;" horiz-adv-x="686" 
d="M398 195q8 59 57 162q18 38 43 38q24 0 25 -18q20 27 36 27q78 0 78 -131q0 -72 -20 -136q-6 -21 -19 -53q-30 -51 -34 -56q-20 -29 -44 -49q-19 -12 -40 -12q-26 0 -53 16q-31 18 -34 42q0 47 -10 57l3 12l3 11l-4 28q5 8 6 16l4 25zM543 311q-57 0 -57 -26
q-20 -39 -29 -117l6 -45l-4 -27q2 -4 2 -14q7 -32 23 -37q14 0 34 21q60 64 60 151q0 61 -6 68q-9 19 -13 22.5t-16 3.5zM55 439q-2 31 13 73q3 9 28 69q21 49 27 81q10 31 47 35q9 0 12 -1l6 -4l2 -4l1 -4q4 2 6.5 3.5t10.5 6.5q15 10 26 9q75 -5 75 -127q0 -64 -24 -133
l-7 -33q-1 -5 -4 -18q0 -4 -1 -7q-7 -3 -29 -37q-26 -39 -28 -43q-20 -25 -40 -30l-10 -4q-12 -5 -18 -5q-31 0 -56.5 21.5t-34.5 52.5q3 22 2 39zM209 611q-25 0 -40 -11.5t-23 -34.5q-5 -14 -12 -47l-5 -47q2 -9 2 -20l-2 -53q0 -12 9.5 -32t15.5 -20q9 0 22 13
q49 38 65 109q7 32 7 67q0 76 -39 76zM135 -39q0 90 82 185v2q15 72 68 165l52 91q6 11 44 88l47 95l19 42l3 14q4 16 21 47q6 8 19 27q1 3 12.5 5.5t13.5 4.5q31 19 43 19q4 0 5 -19q-1 -3 -4 -8.5t-5 -13.5l-13 -37l-22 -68q-16 -50 -74 -153l-194 -352l-33 -72
q-8 -32 -35 -86q-12 -15 -26 -15q-23 0 -23 39z" />
    <glyph glyph-name="percent" unicode="&#x202e;" horiz-adv-x="686" 
d="M398 195q8 59 57 162q18 38 43 38q24 0 25 -18q20 27 36 27q78 0 78 -131q0 -72 -20 -136q-6 -21 -19 -53q-30 -51 -34 -56q-20 -29 -44 -49q-19 -12 -40 -12q-26 0 -53 16q-31 18 -34 42q0 47 -10 57l3 12l3 11l-4 28q5 8 6 16l4 25zM543 311q-57 0 -57 -26
q-20 -39 -29 -117l6 -45l-4 -27q2 -4 2 -14q7 -32 23 -37q14 0 34 21q60 64 60 151q0 61 -6 68q-9 19 -13 22.5t-16 3.5zM55 439q-2 31 13 73q3 9 28 69q21 49 27 81q10 31 47 35q9 0 12 -1l6 -4l2 -4l1 -4q4 2 6.5 3.5t10.5 6.5q15 10 26 9q75 -5 75 -127q0 -64 -24 -133
l-7 -33q-1 -5 -4 -18q0 -4 -1 -7q-7 -3 -29 -37q-26 -39 -28 -43q-20 -25 -40 -30l-10 -4q-12 -5 -18 -5q-31 0 -56.5 21.5t-34.5 52.5q3 22 2 39zM209 611q-25 0 -40 -11.5t-23 -34.5q-5 -14 -12 -47l-5 -47q2 -9 2 -20l-2 -53q0 -12 9.5 -32t15.5 -20q9 0 22 13
q49 38 65 109q7 32 7 67q0 76 -39 76zM135 -39q0 90 82 185v2q15 72 68 165l52 91q6 11 44 88l47 95l19 42l3 14q4 16 21 47q6 8 19 27q1 3 12.5 5.5t13.5 4.5q31 19 43 19q4 0 5 -19q-1 -3 -4 -8.5t-5 -13.5l-13 -37l-22 -68q-16 -50 -74 -153l-194 -352l-33 -72
q-8 -32 -35 -86q-12 -15 -26 -15q-23 0 -23 39z" />
    <glyph glyph-name="percent" unicode="&#x202d;" horiz-adv-x="686" 
d="M398 195q8 59 57 162q18 38 43 38q24 0 25 -18q20 27 36 27q78 0 78 -131q0 -72 -20 -136q-6 -21 -19 -53q-30 -51 -34 -56q-20 -29 -44 -49q-19 -12 -40 -12q-26 0 -53 16q-31 18 -34 42q0 47 -10 57l3 12l3 11l-4 28q5 8 6 16l4 25zM543 311q-57 0 -57 -26
q-20 -39 -29 -117l6 -45l-4 -27q2 -4 2 -14q7 -32 23 -37q14 0 34 21q60 64 60 151q0 61 -6 68q-9 19 -13 22.5t-16 3.5zM55 439q-2 31 13 73q3 9 28 69q21 49 27 81q10 31 47 35q9 0 12 -1l6 -4l2 -4l1 -4q4 2 6.5 3.5t10.5 6.5q15 10 26 9q75 -5 75 -127q0 -64 -24 -133
l-7 -33q-1 -5 -4 -18q0 -4 -1 -7q-7 -3 -29 -37q-26 -39 -28 -43q-20 -25 -40 -30l-10 -4q-12 -5 -18 -5q-31 0 -56.5 21.5t-34.5 52.5q3 22 2 39zM209 611q-25 0 -40 -11.5t-23 -34.5q-5 -14 -12 -47l-5 -47q2 -9 2 -20l-2 -53q0 -12 9.5 -32t15.5 -20q9 0 22 13
q49 38 65 109q7 32 7 67q0 76 -39 76zM135 -39q0 90 82 185v2q15 72 68 165l52 91q6 11 44 88l47 95l19 42l3 14q4 16 21 47q6 8 19 27q1 3 12.5 5.5t13.5 4.5q31 19 43 19q4 0 5 -19q-1 -3 -4 -8.5t-5 -13.5l-13 -37l-22 -68q-16 -50 -74 -153l-194 -352l-33 -72
q-8 -32 -35 -86q-12 -15 -26 -15q-23 0 -23 39z" />
    <glyph glyph-name="percent" unicode="&#x202c;" horiz-adv-x="686" 
d="M398 195q8 59 57 162q18 38 43 38q24 0 25 -18q20 27 36 27q78 0 78 -131q0 -72 -20 -136q-6 -21 -19 -53q-30 -51 -34 -56q-20 -29 -44 -49q-19 -12 -40 -12q-26 0 -53 16q-31 18 -34 42q0 47 -10 57l3 12l3 11l-4 28q5 8 6 16l4 25zM543 311q-57 0 -57 -26
q-20 -39 -29 -117l6 -45l-4 -27q2 -4 2 -14q7 -32 23 -37q14 0 34 21q60 64 60 151q0 61 -6 68q-9 19 -13 22.5t-16 3.5zM55 439q-2 31 13 73q3 9 28 69q21 49 27 81q10 31 47 35q9 0 12 -1l6 -4l2 -4l1 -4q4 2 6.5 3.5t10.5 6.5q15 10 26 9q75 -5 75 -127q0 -64 -24 -133
l-7 -33q-1 -5 -4 -18q0 -4 -1 -7q-7 -3 -29 -37q-26 -39 -28 -43q-20 -25 -40 -30l-10 -4q-12 -5 -18 -5q-31 0 -56.5 21.5t-34.5 52.5q3 22 2 39zM209 611q-25 0 -40 -11.5t-23 -34.5q-5 -14 -12 -47l-5 -47q2 -9 2 -20l-2 -53q0 -12 9.5 -32t15.5 -20q9 0 22 13
q49 38 65 109q7 32 7 67q0 76 -39 76zM135 -39q0 90 82 185v2q15 72 68 165l52 91q6 11 44 88l47 95l19 42l3 14q4 16 21 47q6 8 19 27q1 3 12.5 5.5t13.5 4.5q31 19 43 19q4 0 5 -19q-1 -3 -4 -8.5t-5 -13.5l-13 -37l-22 -68q-16 -50 -74 -153l-194 -352l-33 -72
q-8 -32 -35 -86q-12 -15 -26 -15q-23 0 -23 39z" />
    <glyph glyph-name="percent" unicode="&#x202b;" horiz-adv-x="686" 
d="M398 195q8 59 57 162q18 38 43 38q24 0 25 -18q20 27 36 27q78 0 78 -131q0 -72 -20 -136q-6 -21 -19 -53q-30 -51 -34 -56q-20 -29 -44 -49q-19 -12 -40 -12q-26 0 -53 16q-31 18 -34 42q0 47 -10 57l3 12l3 11l-4 28q5 8 6 16l4 25zM543 311q-57 0 -57 -26
q-20 -39 -29 -117l6 -45l-4 -27q2 -4 2 -14q7 -32 23 -37q14 0 34 21q60 64 60 151q0 61 -6 68q-9 19 -13 22.5t-16 3.5zM55 439q-2 31 13 73q3 9 28 69q21 49 27 81q10 31 47 35q9 0 12 -1l6 -4l2 -4l1 -4q4 2 6.5 3.5t10.5 6.5q15 10 26 9q75 -5 75 -127q0 -64 -24 -133
l-7 -33q-1 -5 -4 -18q0 -4 -1 -7q-7 -3 -29 -37q-26 -39 -28 -43q-20 -25 -40 -30l-10 -4q-12 -5 -18 -5q-31 0 -56.5 21.5t-34.5 52.5q3 22 2 39zM209 611q-25 0 -40 -11.5t-23 -34.5q-5 -14 -12 -47l-5 -47q2 -9 2 -20l-2 -53q0 -12 9.5 -32t15.5 -20q9 0 22 13
q49 38 65 109q7 32 7 67q0 76 -39 76zM135 -39q0 90 82 185v2q15 72 68 165l52 91q6 11 44 88l47 95l19 42l3 14q4 16 21 47q6 8 19 27q1 3 12.5 5.5t13.5 4.5q31 19 43 19q4 0 5 -19q-1 -3 -4 -8.5t-5 -13.5l-13 -37l-22 -68q-16 -50 -74 -153l-194 -352l-33 -72
q-8 -32 -35 -86q-12 -15 -26 -15q-23 0 -23 39z" />
    <glyph glyph-name="percent" unicode="&#x202a;" horiz-adv-x="686" 
d="M398 195q8 59 57 162q18 38 43 38q24 0 25 -18q20 27 36 27q78 0 78 -131q0 -72 -20 -136q-6 -21 -19 -53q-30 -51 -34 -56q-20 -29 -44 -49q-19 -12 -40 -12q-26 0 -53 16q-31 18 -34 42q0 47 -10 57l3 12l3 11l-4 28q5 8 6 16l4 25zM543 311q-57 0 -57 -26
q-20 -39 -29 -117l6 -45l-4 -27q2 -4 2 -14q7 -32 23 -37q14 0 34 21q60 64 60 151q0 61 -6 68q-9 19 -13 22.5t-16 3.5zM55 439q-2 31 13 73q3 9 28 69q21 49 27 81q10 31 47 35q9 0 12 -1l6 -4l2 -4l1 -4q4 2 6.5 3.5t10.5 6.5q15 10 26 9q75 -5 75 -127q0 -64 -24 -133
l-7 -33q-1 -5 -4 -18q0 -4 -1 -7q-7 -3 -29 -37q-26 -39 -28 -43q-20 -25 -40 -30l-10 -4q-12 -5 -18 -5q-31 0 -56.5 21.5t-34.5 52.5q3 22 2 39zM209 611q-25 0 -40 -11.5t-23 -34.5q-5 -14 -12 -47l-5 -47q2 -9 2 -20l-2 -53q0 -12 9.5 -32t15.5 -20q9 0 22 13
q49 38 65 109q7 32 7 67q0 76 -39 76zM135 -39q0 90 82 185v2q15 72 68 165l52 91q6 11 44 88l47 95l19 42l3 14q4 16 21 47q6 8 19 27q1 3 12.5 5.5t13.5 4.5q31 19 43 19q4 0 5 -19q-1 -3 -4 -8.5t-5 -13.5l-13 -37l-22 -68q-16 -50 -74 -153l-194 -352l-33 -72
q-8 -32 -35 -86q-12 -15 -26 -15q-23 0 -23 39z" />
    <glyph glyph-name="percent" unicode="&#x2029;" horiz-adv-x="686" 
d="M398 195q8 59 57 162q18 38 43 38q24 0 25 -18q20 27 36 27q78 0 78 -131q0 -72 -20 -136q-6 -21 -19 -53q-30 -51 -34 -56q-20 -29 -44 -49q-19 -12 -40 -12q-26 0 -53 16q-31 18 -34 42q0 47 -10 57l3 12l3 11l-4 28q5 8 6 16l4 25zM543 311q-57 0 -57 -26
q-20 -39 -29 -117l6 -45l-4 -27q2 -4 2 -14q7 -32 23 -37q14 0 34 21q60 64 60 151q0 61 -6 68q-9 19 -13 22.5t-16 3.5zM55 439q-2 31 13 73q3 9 28 69q21 49 27 81q10 31 47 35q9 0 12 -1l6 -4l2 -4l1 -4q4 2 6.5 3.5t10.5 6.5q15 10 26 9q75 -5 75 -127q0 -64 -24 -133
l-7 -33q-1 -5 -4 -18q0 -4 -1 -7q-7 -3 -29 -37q-26 -39 -28 -43q-20 -25 -40 -30l-10 -4q-12 -5 -18 -5q-31 0 -56.5 21.5t-34.5 52.5q3 22 2 39zM209 611q-25 0 -40 -11.5t-23 -34.5q-5 -14 -12 -47l-5 -47q2 -9 2 -20l-2 -53q0 -12 9.5 -32t15.5 -20q9 0 22 13
q49 38 65 109q7 32 7 67q0 76 -39 76zM135 -39q0 90 82 185v2q15 72 68 165l52 91q6 11 44 88l47 95l19 42l3 14q4 16 21 47q6 8 19 27q1 3 12.5 5.5t13.5 4.5q31 19 43 19q4 0 5 -19q-1 -3 -4 -8.5t-5 -13.5l-13 -37l-22 -68q-16 -50 -74 -153l-194 -352l-33 -72
q-8 -32 -35 -86q-12 -15 -26 -15q-23 0 -23 39z" />
    <glyph glyph-name="percent" unicode="&#x2028;" horiz-adv-x="686" 
d="M398 195q8 59 57 162q18 38 43 38q24 0 25 -18q20 27 36 27q78 0 78 -131q0 -72 -20 -136q-6 -21 -19 -53q-30 -51 -34 -56q-20 -29 -44 -49q-19 -12 -40 -12q-26 0 -53 16q-31 18 -34 42q0 47 -10 57l3 12l3 11l-4 28q5 8 6 16l4 25zM543 311q-57 0 -57 -26
q-20 -39 -29 -117l6 -45l-4 -27q2 -4 2 -14q7 -32 23 -37q14 0 34 21q60 64 60 151q0 61 -6 68q-9 19 -13 22.5t-16 3.5zM55 439q-2 31 13 73q3 9 28 69q21 49 27 81q10 31 47 35q9 0 12 -1l6 -4l2 -4l1 -4q4 2 6.5 3.5t10.5 6.5q15 10 26 9q75 -5 75 -127q0 -64 -24 -133
l-7 -33q-1 -5 -4 -18q0 -4 -1 -7q-7 -3 -29 -37q-26 -39 -28 -43q-20 -25 -40 -30l-10 -4q-12 -5 -18 -5q-31 0 -56.5 21.5t-34.5 52.5q3 22 2 39zM209 611q-25 0 -40 -11.5t-23 -34.5q-5 -14 -12 -47l-5 -47q2 -9 2 -20l-2 -53q0 -12 9.5 -32t15.5 -20q9 0 22 13
q49 38 65 109q7 32 7 67q0 76 -39 76zM135 -39q0 90 82 185v2q15 72 68 165l52 91q6 11 44 88l47 95l19 42l3 14q4 16 21 47q6 8 19 27q1 3 12.5 5.5t13.5 4.5q31 19 43 19q4 0 5 -19q-1 -3 -4 -8.5t-5 -13.5l-13 -37l-22 -68q-16 -50 -74 -153l-194 -352l-33 -72
q-8 -32 -35 -86q-12 -15 -26 -15q-23 0 -23 39z" />
    <glyph glyph-name="percent" unicode="&#x2027;" horiz-adv-x="686" 
d="M398 195q8 59 57 162q18 38 43 38q24 0 25 -18q20 27 36 27q78 0 78 -131q0 -72 -20 -136q-6 -21 -19 -53q-30 -51 -34 -56q-20 -29 -44 -49q-19 -12 -40 -12q-26 0 -53 16q-31 18 -34 42q0 47 -10 57l3 12l3 11l-4 28q5 8 6 16l4 25zM543 311q-57 0 -57 -26
q-20 -39 -29 -117l6 -45l-4 -27q2 -4 2 -14q7 -32 23 -37q14 0 34 21q60 64 60 151q0 61 -6 68q-9 19 -13 22.5t-16 3.5zM55 439q-2 31 13 73q3 9 28 69q21 49 27 81q10 31 47 35q9 0 12 -1l6 -4l2 -4l1 -4q4 2 6.5 3.5t10.5 6.5q15 10 26 9q75 -5 75 -127q0 -64 -24 -133
l-7 -33q-1 -5 -4 -18q0 -4 -1 -7q-7 -3 -29 -37q-26 -39 -28 -43q-20 -25 -40 -30l-10 -4q-12 -5 -18 -5q-31 0 -56.5 21.5t-34.5 52.5q3 22 2 39zM209 611q-25 0 -40 -11.5t-23 -34.5q-5 -14 -12 -47l-5 -47q2 -9 2 -20l-2 -53q0 -12 9.5 -32t15.5 -20q9 0 22 13
q49 38 65 109q7 32 7 67q0 76 -39 76zM135 -39q0 90 82 185v2q15 72 68 165l52 91q6 11 44 88l47 95l19 42l3 14q4 16 21 47q6 8 19 27q1 3 12.5 5.5t13.5 4.5q31 19 43 19q4 0 5 -19q-1 -3 -4 -8.5t-5 -13.5l-13 -37l-22 -68q-16 -50 -74 -153l-194 -352l-33 -72
q-8 -32 -35 -86q-12 -15 -26 -15q-23 0 -23 39z" />
    <glyph glyph-name="ampersand" unicode="&#x26;" horiz-adv-x="611" 
d="M213 -35q-11 0 -18.5 5t-8.5 20q5 21 11 65l9 35q4 17 9 45l-88 92q-4 5 -29 48l-30 53q-6 11 -9 24l-6 27q-7 26 -18 76q0 5 1 7q0 -2 2 9l2 11l3 10l-2 15l-4 22q5 10 10 31l8 34q3 9 11 25q27 35 77 35q40 0 111 -68q32 -31 53 -78q18 -42 33 -45q7 0 16 12l31 42
q18 22 53 67q10 14 19 18h2q6 0 8 -2q7 4 19 4q8 0 15 -2t9 -6q0 -11 -11 -34l-8 -16q-4 -7 -19 -30.5t-17 -29.5q-3 -17 -20 -46l-19 -32q-15 -47 -26 -66l-21 -37q0 -2 -2 -10l4 -29l-4 -41q0 -27 -6 -53l2 -1v-1q12 -13 39 -18l32 4l25 4q10 0 18 -2q14 2 29 8
q47 27 58 27q8 0 8 -4q0 -22 -20 -38l-15 -12q-54 -67 -144 -67q-49 0 -63 -6q-8 -2 -29 -43q-13 -25 -39 -41.5t-51 -16.5zM295 334h-6q-8 0 -18 -11l-11 -12q0 5 -2 11q0 8 6 23q5 9 15 23l14 20q4 6 4 14q0 6 -5 21l-5 15q0 9 -2 11q2 8 2 12q0 6 -9 10t-12 13
q-2 24 -39 63l-16 17q-28 40 -61 40q-27 0 -42 -33q-2 -10 -6 -31l-4 -34l6 -50q9 -76 42 -124q36 -52 66 -81q20 -19 32 -19q17 7 27 43l8 28l9 12q7 9 7 19z" />
    <glyph glyph-name="quotesingle" unicode="'" horiz-adv-x="240" 
d="M136 458q-18 -12 -29 -13q-5 0 -9 10q17 33 29 88q12 52 12 92l2 16q2 8 5 25q5 9 21 16t28 7q37 -5 37 -23q0 -7 -3 -15l-4 -11q-19 -51 -37 -89l-19 -39q-7 -17 -13 -35q-9 -21 -20 -29z" />
    <glyph glyph-name="parenleft" unicode="(" horiz-adv-x="332" 
d="M184 -61q-13 1 -47 71q-43 89 -43 211q0 93 25 180q29 101 80 197q31 59 56 83t40 24q12 0 12 -8q0 -13 -22 -67q-13 -31 -26 -65q-59 -149 -77 -232q-14 -64 -14 -112q0 -8 -2 -14q6 -64 23 -111q4 -12 24 -48q35 -64 35 -97q0 -21 -23 -21q-24 0 -41 9z" />
    <glyph glyph-name="parenright" unicode=")" horiz-adv-x="332" 
d="M141 699q38 -14 74 -117q12 -34 15 -55q10 -65 10 -113q0 -124 -45 -250t-125 -219q-10 -8 -25 -15l-12 -2q-5 0 -8 11l80 223q35 94 50 173q9 47 9 87q0 63 -19 115q-13 26 -39 79q-7 17 -21 50q-3 11 -3 18q0 21 25 21q17 0 34 -6z" />
    <glyph glyph-name="asterisk" unicode="*" horiz-adv-x="426" 
d="M277 375q-6 -12 -29 -12q-27 0 -30 29l-3 26l3 40l3 28l-36 -21l-35 -21q-15 -7 -31 -12q-10 0 -17.5 8t-9.5 15q3 12 8 12l105 56q-4 4 -67 39q-42 23 -48 55q0 10 5 22.5t14 12.5q6 0 10 -4q70 -76 100 -87v12q-1 4 -2 9v64q0 38 -5 38q2 5 12 11t16 6q18 0 24.5 -6.5
t6.5 -22.5q0 -11 -11 -88q-2 -14 -2 -18l2 -9q53 47 86 80q1 1 2 8l3 6l6 1q13 0 22.5 -9.5t9.5 -21.5q0 -16 -66 -61q-39 -26 -44 -33l40 -20l27 -15l19 -6q26 -4 26 -17q-8 -22 -36 -26q-4 4 -15 4l-48 27q-23 13 -32 16q0 -5 -2 -11l3 -21l2 -21l1 -19q1 -12 4 -30
q3 -10 6 -11z" />
    <glyph glyph-name="plus" unicode="+" horiz-adv-x="508" 
d="M211 414v152q0 36 37 36q39 0 39 -88q0 -10 -3.5 -34.5t-2.5 -36.5l2 -29q12 0 42 -1q27 -1 42 -1l80 2q37 1 37 -35q0 -41 -88 -41q-27 0 -50 6q-12 -4 -59 -4q0 -28 1 -84t1 -84q0 -55 -18 -55q-4 0 -9 8.5t-14 13.5q0 10 -6 20q-3 6 -13 18q-2 2 -7 9q-2 2 -3.5 4
l-1.5 2q-4 7 -4 17q0 1 -2 63l-2 62l-154 4q-55 1 -55 16q0 4 9 9t12 14q12 1 20 6q2 2 8 6q1 1 9 8l16 14q5 3 16 3l112 -2q8 2 9 2z" />
    <glyph glyph-name="comma" unicode="," horiz-adv-x="232" 
d="M68 72l-5 24l4 8q2 4 4 13q6 15 31 24q14 5 17 5q5 0 23 -8q14 -9 16 -15q0 -13 -17 -54q-5 -13 -12 -26l-20 -51q-8 -23 -29 -66q-12 -21 -41 -35h-4q-2 0 -5 2l-3 3q0 22 6 38q12 32 17 52l9 34l1 29q1 16 8 23z" />
    <glyph glyph-name="hyphen" unicode="-" horiz-adv-x="314" 
d="M182 191h-4q-22 0 -63 -9q-56 4 -68 4h-24q-14 0 -19 11q5 25 23.5 43.5t46.5 19.5l47 2h109q9 0 14.5 -11t5.5 -24q0 -41 -41 -41l-13 2z" />
    <glyph glyph-name="period" unicode="." horiz-adv-x="232" 
d="M205 55q-40 20 -41 33q0 29 27 47l22 22q8 5 14 5q7 0 11 -4q28 0 42.5 -16t14.5 -29q0 -9 -17 -25t-26 -16q-25 -14 -47 -17z" />
    <glyph glyph-name="slash" unicode="/" horiz-adv-x="426" 
d="M70 6q-31 -29 -56 -29q-11 0 -14 35q7 59 68 164l37 64q4 9 16 30q6 12 27 47l54 88l44 75q4 7 32 80l29 76q9 23 25 50q13 0 36.5 6.5t35.5 6.5q22 0 22 -6l-15 -44q-7 -22 -20 -58q-3 -7 -10 -23t-10 -23l-47 -77l-122 -203q-15 -25 -52 -83q-80 -126 -80 -176z" />
    <glyph glyph-name="zero" unicode="0" horiz-adv-x="465" 
d="M33 102q0 6 -5 19t-5 20v33q0 28 -5 33q3 55 18 163l15 67l19 75l15 48q22 69 48 102q8 10 19 10q7 0 12.5 -7t5.5 -19q0 -8 -4 -21l38 33q26 23 39 29t50 14q22 0 50 -19q67 -46 76 -120q5 -44 5 -62l-2 -119q-13 -136 -75 -264q-65 -132 -138 -150l-31 -2
q-34 -2 -70 19q-75 44 -75 118zM295 168q62 123 62 260q0 28 -16 71q-28 75 -99 75q-21 0 -46 -11q-55 -31 -55 -77l-10 -53q-3 -17 -8 -50q-4 -25 -4 -51q0 -15 -2 -25l2 -46q0 -13 1 -36q1 -50 13 -80q11 -84 62 -84q51 9 100 107z" />
    <glyph glyph-name="one" unicode="1" horiz-adv-x="369" 
d="M123 -47l-4 -1l-6 -1q-7 0 -9 18l1 10q2 11 12 36l14 36l52 186q10 37 18 78q5 24 11 57q17 92 17 151q0 3 -3 3q-13 0 -63 -42l-87 -72q-10 -7 -29 -27.5t-27 -25.5q-20 0 -20 22q0 15 6 33q3 4 9 13q2 2 16 17l100 103q107 109 156 152h6q17 0 41.5 -12.5t24.5 -28.5
v-19q-2 -12 -2 -13l-5 -35l-6 -36q-6 -36 -19 -109q-10 -47 -28 -108l-70 -238q-3 -17 -10.5 -34t-17.5 -27q0 -13 -25.5 -42.5t-52.5 -43.5z" />
    <glyph glyph-name="two" unicode="2" horiz-adv-x="443" 
d="M72 -25q-27 5 -38 15.5t-13 20.5l-5 32q0 23 136 192l75 93l30 41q36 50 49 85q7 20 7 42q0 49 -88 70q-17 4 -34 4q-42 0 -74 -21q-35 -23 -35 -61q0 -4 -7 -10l-11 -11q-26 0 -39 57q-4 18 -4 35l6 45q10 41 60 63q40 17 89 17q114 0 180 -56q33 -28 41 -77l1 -20
q2 -33 -16 -77q-26 -66 -138 -218q-28 -34 -80 -105q-17 -26 -21 -51l2 -1q5 -18 89 -15l176 6q14 0 14 -9q0 -10 -19 -27q-23 -20 -45 -31q-27 -13 -49 -13q-46 -25 -159 -25h-17q-53 0 -63 10z" />
    <glyph glyph-name="three" unicode="3" horiz-adv-x="426" 
d="M39 -57q-43 0 -43 22q0 14 33 35q15 8 44 26q19 11 62 38l65 42q38 24 42 27q28 19 38 33t11 22q0 13 -39 26q-24 6 -49 13q-54 16 -73 25q-26 13 -26 30q0 1 -2 7q0 32 25 63q35 37 92 119.5t58 92.5q0 16 -33 16h-19q-10 -2 -24 -4l-37 -4q-27 -3 -72 -18l-39 -13
q-22 0 -22 25q0 61 47 102q8 7 50 17q7 2 93 16h19q147 0 147 -74q0 -32 -31 -76l-27 -38q-18 -25 -38 -52q-82 -109 -82 -131q6 -8 65 -35q68 -31 78 -37q31 -20 39 -57l2 -25q2 -29 -18 -56q-51 -69 -217 -149q-46 -22 -80 -22h-19q-1 0 -4 2q-4 -2 -7.5 -5t-8.5 -3z" />
    <glyph glyph-name="four" unicode="4" horiz-adv-x="465" 
d="M231 63q7 38 7 56q0 10 -15 10h-12l-68 -4q-33 -2 -67 11q-56 22 -56 100q0 28 11 95l12 73q4 23 32 108q25 77 25 95q-10 10 -10 14q31 95 90 117q33 16 49 16q7 0 14 -5.5t7 -14.5q0 -6 -6 -23q-103 -203 -144 -395q-3 -8 -8 -37q4 -32 41 -43q62 -11 94 -11q5 1 31 5
q3 15 14 81q4 24 13 84l6 43q3 60 29 85q15 14 41 14q16 -6 32.5 -14t16.5 -25q0 -32 -16 -83q-4 -11 -13 -37l-18 -54q-9 -28 -17 -84l3 -5l4 -1l6 -2q9 0 22 5l29 11l20 8q13 0 13 -33q0 -8 -8.5 -15.5t-19.5 -13.5l-20 -10q-36 -17 -73 -38l-9 -38l-14 -70l-18 -104
q-1 -6 -11 -11l-18 -9q-16 -16 -25 -16q-7 0 -10 17l-2 11q0 8 4 41t12 96z" />
    <glyph glyph-name="five" unicode="5" horiz-adv-x="406" 
d="M0 20q0 19 37 23l55 6q6 1 28 8l10 3q25 8 71 18q84 18 84 55q0 10 -9 19t-51 47q-15 13 -96 73q-59 43 -88 83q-9 12 -15.5 36.5t-5.5 42.5l1 21q1 29 20 84q38 114 76 125l10 3q10 3 16 3h37l89 3l133 3q4 0 11 -8t7 -14q0 -22 -21 -46.5t-42 -31.5q-10 -3 -74 -13
l-54 -8q-27 -4 -44 -8q-32 -6 -39 -14q-44 -51 -44 -121q0 -25 62 -69l74 -52l53 -36q98 -67 98 -140q0 -40 -36 -74q-32 -30 -74 -41q-36 -13 -109 -32q-28 -5 -47 -5q-5 5 -20 9q-18 3 -29 3q-25 0 -60 29q-14 12 -14 16z" />
    <glyph glyph-name="six" unicode="6" horiz-adv-x="406" 
d="M135 -2q-44 23 -79.5 76t-45.5 104q-1 5 -1 12q-2 14 -3 28l-2 32q-7 116 83 249q80 118 241 230q27 19 51 19q17 0 37 -14q2 -4 2 -5q0 -4 -5 -9l-12 -9l-10 -6q-16 -21 -49 -56q-21 -21 -51 -57q-13 -19 -47 -59q-39 -45 -55 -67q-29 -39 -44 -75q4 -4 14 -4
q7 0 13.5 -3t14 -12.5t14.5 -14.5q120 -92 158 -163q26 -49 26 -104q0 -37 -17 -65q-25 -42 -81 -57q-18 -5 -35 -5q-51 0 -117 35zM281 135q-24 69 -103 172q-29 28 -32.5 46t-12.5 18q-55 -61 -55 -168q0 -29 18 -65q14 -28 42.5 -49t60.5 -28l23 -5l12 -3q14 0 22 3
q33 4 33 36q0 9 -8 43z" />
    <glyph glyph-name="seven" unicode="7" horiz-adv-x="426" 
d="M182 -102q-11 1 -16 20q0 25 23 127q46 205 116 416q4 12 4 27q0 30 -35 39q-49 14 -110 30l-89 12q-12 2 -28 7q-3 1 -11 21q-2 5 -6 14l-10 28l-8 37q2 15 5.5 19t15.5 4q25 0 54 -6q26 -5 56 -15l62 -20q87 -28 142 -74t55 -123q0 -57 -16 -105q-13 -39 -50 -128
q-26 -63 -43 -124q-4 -14 -13 -54t-18 -58q-1 -4 -5.5 -7.5t-8.5 -7.5q-9 -47 -19 -47q-32 -32 -47 -32z" />
    <glyph glyph-name="eight" unicode="8" horiz-adv-x="426" 
d="M27 -2l-3 11l-1 11q0 42 19 80q23 45 48 74l31 35q22 25 24 33q-5 6 -63 55q-41 35 -51 63q-6 17 -6 54q0 43 43 90q16 18 28 21h4q9 0 9 -11v-8q-2 -8 -2 -9l-5 -20l-6 -20q0 -13 8.5 -37t18.5 -41q9 -8 20 -24q35 -53 45 -56l13 7q4 2 10 6t8 6q20 37 41 70l47 72
q41 63 41 104t-65 41q-103 0 -199 -56q-14 0 -21 5q-3 3 -8 20l2 10q17 44 66 74q25 16 92 43l8 7l7 5l8 -3l10 -5l7 5q6 3 13 3q54 0 109 -61q43 -48 43 -127q0 -133 -145 -275q-6 -6 -11 -21q1 -9 31 -40q37 -38 37 -97q-9 -89 -110 -133q-46 -20 -87 -20q-33 0 -66.5 15
t-41.5 44zM246 47q10 23 10 39q0 22 -12.5 48t-30.5 36q-6 0 -60 -67q-20 -25 -27 -37q-13 -21 -17 -43q5 -29 41 -29q66 0 96 53z" />
    <glyph glyph-name="nine" unicode="9" horiz-adv-x="426" 
d="M229 -64q-7 -18 -51 -18h-9q-2 2 -3 5l-2 5q2 8 5 14l8 16l9 13l23 88q13 42 35 130q10 41 23 114q11 60 22 109q-31 -21 -91 -76q-10 -9 -27 -22q-40 -30 -101 -41q-15 0 -28.5 5t-24.5 17q-21 22 -21 55q9 46 25 80q19 40 46 78q32 45 54 68q65 68 108 98l30 21
q40 28 59 28q30 0 54 -17t24 -44q0 -12 -16 -16q-14 -7 -28 -7q-52 -26 -150 -124q-38 -38 -73 -79q-28 -33 -47 -82q0 -4 -2 -6q0 -3 8 -8q8 2 12 4l7 2q133 76 184 142l4 2q4 0 6 2l26 32q32 40 60 40q31 0 31 -27q0 -60 -35 -177q-9 -33 -22 -79q-61 -207 -132 -345z" />
    <glyph glyph-name="colon" unicode=":" horiz-adv-x="232" 
d="M115 281q-7 0 -25 13.5t-18 19.5q0 32 51 69q6 2 14 4q11 0 15 -4q21 0 37 -12.5t16 -32.5q0 -10 -15 -23q-9 -7 -28 -18l-15 -6l-18 -8q-10 -2 -14 -2zM68 0q-10 6 -24.5 16.5t-16.5 14.5l-2 2q3 19 23.5 43.5t39.5 32.5h2q4 0 7 -2l5 -3q26 0 43 -17q13 -13 13 -30
q0 -8 -18 -24t-27 -17l-18 -8q-7 -3 -14.5 -5.5t-10.5 -2.5h-2z" />
    <glyph glyph-name="semicolon" unicode=";" horiz-adv-x="232" 
d="M113 279q-37 22 -40 34q0 32 52 72q4 2 10 2q10 0 11 -2q27 0 43 -16t16 -31q0 -7 -18 -24t-25 -17l-27 -11q-17 -7 -22 -7zM63 63l1 15v16q4 8 4 17q3 15 19 25t32 10q8 0 22.5 -7t18.5 -14q0 -22 -31 -82l-14 -27l-15 -32l-12 -30q-5 -17 -5.5 -27.5t-18.5 -22
t-29 -11.5q-6 0 -7 7l14 53q5 21 18 61l1 29v14q1 1 1.5 3t0.5 3z" />
    <glyph glyph-name="less" unicode="&#x3c;" horiz-adv-x="512" 
d="M488 570v-50l-418 -180l418 -186v-50l-478 209v52z" />
    <glyph glyph-name="equal" unicode="=" horiz-adv-x="291" 
d="M182 195h-4q-28 0 -57 -9q-62 5 -68 5h-9q-5 0 -10 -1l-11 -1q-14 0 -19 12q1 7 5 14q2 4 7 9l11 10q10 28 24 28q13 0 23 -2l47 2h109q9 0 14.5 -9.5t5.5 -22.5q0 -41 -43 -41l-11 3zM184 301h-4q-35 0 -59 -10q-31 4 -96 4q-14 0 -19 12q3 16 12 25q4 1 11 8
q8 27 24 27q12 -2 70 -2q59 0 109 2q8 0 14 -9t6 -22q0 -41 -43 -41z" />
    <glyph glyph-name="greater" unicode="&#x3e;" horiz-adv-x="512" 
d="M10 570l478 -205v-52l-478 -209v50l420 186l-420 180v50z" />
    <glyph glyph-name="question" unicode="?" horiz-adv-x="443" 
d="M70 -2l4 8q19 37 37 41q6 3 15.5 12t14.5 12.5t11 7.5q11 5 22 5q34 0 41 -27q0 -44 -57 -75l-20 -4q-12 -2 -33 -13h-9q-19 0 -26 33zM148 506q-31 15 -50 55l-9 8l-10 13q-5 6 -5 14l8 37q3 14 13 32q9 11 26 11q7 0 24 -6l17 -6q211 -74 211 -199q0 -53 -31 -124
q-13 -29 -30 -59l-35 -61q-8 -22 -27 -65q-12 -12 -61 -19q-4 0 -9 17q8 16 31 76l18 47q6 18 13 37q29 50 29 116q0 36 -41 74q-5 6 -17 16q-35 29 -53 33q0 -2 -2 -8q4 -4 4 -22q0 -16 -10 -19l-2 2h-2z" />
    <glyph glyph-name="at" unicode="@" horiz-adv-x="723" 
d="M586 275q67 52 67 108q0 136 -98 204q-81 56 -184 56q-88 0 -158.5 -43.5t-111 -120.5t-40.5 -168q0 -71 47 -145q41 -65 111.5 -105t147.5 -40q137 0 231 110h45q-26 -34 -50 -59q-28 -29 -62 -47q-65 -35 -164 -35q-155 0 -254 104q-93 98 -93 240q0 123 86 227
q67 81 181 106q41 9 80 9q141 0 230 -82t89 -205q0 -96 -94 -153l-22 -17q-40 -31 -62 -31l-10 3q-6 0 -14 -2q-18 0 -31.5 15t-18.5 34l-3 31q-1 7 -5 8q-7 0 -19 -10.5t-16 -18.5q-2 -3 -7 -5l-5 -3l-33 -33q-1 0 -4.5 -2.5t-7.5 -5.5q-8 -16 -37.5 -33.5t-48.5 -17.5
q-15 0 -27.5 12.5t-13.5 27.5q5 10 10 25v6q0 6 -8 6v12q0 4 -2 9q5 31 5 32q4 10 20 23q1 1 5 4q10 12 34 31q11 21 57 59l35 29l41 33q58 47 94 47q11 -3 22 -20q0 -31 -38 -46q-8 -19 -41 -42q-11 -15 -39 -37q-6 -12 -13 -19l-12 -9l-8 -7q-5 -9 -29 -33l-16 -18
q-4 -3 -8 -9l-5 -11l-6 -11l2 -2q18 3 30 13q22 25 71 63q30 49 80 49q8 0 14 -16q4 -11 8 -23q-6 -21 -8 -37q0 -33 35 -33l31 7q8 2 18 12z" />
    <glyph glyph-name="A" unicode="A" horiz-adv-x="480" 
d="M23 -63q-20 -7 -31 -7q-12 0 -12 25v11q0 3 2 9l5 25l5 20q11 43 14 44q0 16 12 51q11 32 11 43q-7 0 -11 -2q-9 1 -13.5 6.5t-4.5 19.5q0 91 64 91q4 6 14 32q13 34 20 45l9 40q6 28 24 61q10 18 18 55q10 43 15 56q8 21 29 38l4 5q-1 3 -6.5 9.5t-6.5 12.5q8 17 15 24
q14 9 27.5 11t23.5 28q2 5 4 13q10 0 17.5 5.5t9.5 7t9 8.5l18 13q7 5 16 5q10 0 20.5 -7t10.5 -10q-1 -13 -12 -39q-8 -19 -11 -32q0 -7 19 -16q3 -2 6 -3l23 -10q10 -4 16 -12q26 -26 26 -115v-6l-1 -17l-1 -14l4 -13q4 -9 4 -26q0 -20 -4 -51l4 -47q0 -4 6.5 -8t6.5 -11
q0 -16 -3 -19l-16 -15q-1 -2 -1.5 -8t-0.5 -22q0 -26 -2 -34q-5 -15 -5.5 -48t-6.5 -48l4 -17q-6 -8 -11 -39q-5 -34 -10 -43q0 -2 -2 -8q0 -26 -39 -39q-10 0 -10 17l4 145q1 29 -4 76v47h-2q-6 0 -30 -7t-38 -7q-8 0 -53 -15q-23 -8 -39 -15l-35 -16q-9 -4 -32 -4
q-4 -25 -15 -53q-2 -5 -16 -26q0 -1 -2 -3q-8 -58 -19 -75l-4 -6q-3 -24 -14 -58q-9 -27 -16 -28zM340 307v4q4 8 4 37q-3 20 -6 31l4 19q-6 0 -6 34q2 14 2 43l-5 5q-3 5 -5 10q-22 49 -55 49q-19 0 -34 -42l-10 -28q-11 -16 -26 -47q-11 -40 -21 -57l-4 -13q-2 -7 -6 -16
q-24 -31 -24 -47l9 -3l13 -3l5 2.5t5 1.5t8 1l22 3l24 2h24q14 2 21 2q36 12 61 12z" />
    <glyph glyph-name="B" unicode="B" horiz-adv-x="500" 
d="M70 -59q-49 0 -62 39q11 13 24 26.5t28 15.5q5 0 12 3q10 97 10 196q0 26 -9 37.5t-34 16.5q-6 0 -10 28q3 16 5 18t28 15q23 11 23 14q9 21 13 60q2 20 4 62l2 49q7 32 40 65q16 16 16 23q0 4 -10 4q-16 0 -34 -3l-47 -8l-38 -8q-4 6 -6 10l-3 9q3 13 7 16l8 8q5 3 6 7
q1 0 1 1q0 11 24.5 25t36.5 14h8q6 2 8 2q8 3 25 8q55 11 98 11q12 0 47 4l35 4h13q5 -1 18 -4q5 -1 12 -4q49 0 91 -22q50 -27 50 -72q0 -33 -13 -58q-22 -43 -82 -85l-57 -40q-13 -9 -33 -20l-22 -12q-10 -13 -36 -27l-44 -24q-19 -10 -28 -27q10 -17 27.5 -26.5
t49.5 -18.5q22 -6 43 -15l46 -19q110 -45 110 -110q0 -52 -57 -82l-62 -26l-64 -20q-25 -8 -74 -21l-35 -7q-20 -2 -29 -2l-8 1l-7 1q0 -9 -4 -24q-5 -18 -6 -23q-6 6 -20 6q-11 0 -19 -6q-4 0 -9 6zM270 203q-12 4 -26 7q-72 24 -68 24l-4 -2q-7 -9 -11 -37l-11 -83
q-3 -30 -9 -63q12 -6 9 -6q16 1 75 18q16 5 57 29q5 4 12 6q67 22 71 47q0 10 -24 27q-18 14 -34 21q-11 5 -37 12zM361 498q11 7 26 28t15 33q0 18 -23 34q-28 20 -74 22l-21 1l-26 1q-23 1 -34 -18q-6 -11 -13 -40q-3 -13 -3 -38q4 -9 4 -15l-7 -12q-8 -11 -8 -37
q0 -20 -9 -55q4 -4 11 -6q17 3 25.5 10.5t34.5 26.5z" />
    <glyph glyph-name="C" unicode="C" horiz-adv-x="500" 
d="M123 -21q-36 10 -59 42q-30 41 -48 118q-4 17 -4 37q2 6 2 19q0 4 -2 11l-2 7q0 92 47 211l10 20q2 3 8 13q2 5 5 12l1 3l3 3l4 2l19 34q25 45 53 59q1 8 10 17l43 34q36 29 79 49q40 19 77 19q105 0 113 -68q0 -11 4 -33t4 -33q0 -23 -4 -30l4 -19q0 -9 -17 -83
q-15 -65 -22 -75q-7 -17 -20 -51q-3 -7 -5 -12q-8 -17 -53 -21q-17 4 -19 6l-4 17q0 107 43 207q3 5 11 19q8 9 12 20.5t4 27.5q0 15 -47 39l-10 1l-13 1q-54 4 -105 -33q-86 -62 -119 -204l-7 -54q-6 -48 -15 -67l3 -15q4 -12 4 -20l-2 -18l-1 -15l11 -18q14 -23 22 -49
l7 -23q8 -4 17 -13l24 -24q24 -24 55 -29q10 0 18 -2q24 0 37 3q63 5 96 40q10 3 25 9q5 13 12 14q7 0 7 -14q0 -38 -60 -72l-38 -17q-20 -9 -62 -24q-18 -4 -39 -4q-27 0 -79 15z" />
    <glyph glyph-name="D" unicode="D" horiz-adv-x="520" 
d="M158 580l-58 20l-45 23q-9 5 -11 10q-3 9 -3 27q0 9 -4 18q4 13 7 16t15 3q13 0 15 -2l10 4l8 2q37 0 64 -19l6 1l4 1q12 0 21 -6t16 -8q36 -3 72 -20q16 -7 71 -45l62 -42q42 -28 67 -81t25 -105q0 -99 -100 -232q-3 -4 -20 -21l-24 -24q-8 -9 -12 -22l11 5q9 3 12 3
q10 0 10 -6q0 -13 -13 -26t-39 -30l-46 -30q-56 -36 -79 -48q-46 -22 -89 -22q-34 0 -37 23q0 24 39 49l22 14q6 6 17 6l21 3q6 1 28 16q116 80 178 194l10 10q7 6 7 9l7 23q10 34 12 53q1 11 1 28q-2 4 -5 6.5t-5 8.5q-3 19 -11 39q-6 11 -22 33q-15 18 -28 31l-31 30
q-1 3 -9 8q-11 4 -55 29l-35 20q-7 -4 -14 -34l-12 -50l-80 -387q-4 -21 -20 -50q-19 -36 -34 -36q-5 0 -8 3l-4 9l-2 8q4 20 7 46q2 15 5 60l8 117q3 43 15 93v2q0 12 -4 21l2 4v2q4 10 9 59q1 6 6 44q4 28 5 33q5 21 15 28q5 4 17 17q2 3 8 9.5t11 11t15 5.5z" />
    <glyph glyph-name="E" unicode="E" horiz-adv-x="443" 
d="M262 0q-92 -35 -188 -35q-13 0 -19.5 2t-11.5 15v18q-15 0 -20 2.5t-8 15.5q2 4 2 9v41q0 36 8 90q9 71 11 90l2 24l2 18l5 19v19q3 12 6 31.5t8 50.5q3 26 12 79q19 88 62 126q74 67 129 86q9 3 41 6l23 2q25 2 28 2l35 -2h15q7 -2 19 -8q5 -3 11.5 -8t6.5 -25
q0 -4 -1 -10.5t-2 -16.5l-2 -16q0 -16 -5.5 -21.5t-24.5 -11.5l-8 2q-36 15 -80 15q-15 0 -44 -4.5t-44 -4.5q-21 0 -39 -40l-10 -29l0.5 -3t1.5 -5q0 -11 -3 -21.5t-10 -27.5l-7 -23q-7 -24 -18 -68q-7 -29 -7 -49q12 0 29.5 17t27.5 20l20 7l31 10q7 2 22 3l38 2l38 2
q49 0 49 -45q0 -51 -14 -51q-67 7 -113 6q-7 0 -58 -11l-42 -9q-45 -10 -52 -49q-2 -12 -10 -51l-12 -62q-5 -26 -5 -47q1 -3 1 -17h12q1 0 4 -1.5l5 -2.5q9 4 41 4q125 0 221 54q6 2 14 4q13 0 13 -19q0 -37 -76 -75q-1 -1 -60 -23z" />
    <glyph glyph-name="F" unicode="F" horiz-adv-x="406" 
d="M142 650q42 46 87 53l6 1l7 1q10 0 16 -2q16 8 25 8h72q27 0 35 -16q6 -11 6 -41q0 -57 -23 -60q3 0 -33 8q-4 1 -10 2h-29q-110 0 -110 -51q0 -4 -6 -9.5t-7 -8.5q-8 -21 -14.5 -64t-13.5 -63q-9 -37 -9 -54l66 18q70 19 117 19q71 0 74 -28q0 -16 -1 -19q-2 -16 -2 -19
q-3 -28 -7 -31.5t-13 -6.5q-7 2 -15 4t-18 5q-25 7 -41 7q-77 0 -155 -24q-10 -3 -17.5 -12t-7.5 -31q0 -45 -16 -113v-18q0 -40 -9 -76l2 -70q0 -17 -8 -32t-24 -15q-35 0 -35 78q0 40 4 49l-2 5l-2 11q6 21 6 54q0 16 -2 32q6 26 6 60v61l-14 -3l-19 -5l-7 5l-1 7
q0 20 33 45q20 12 20 58q0 4 2 20q2 7 4 19q5 34 7 49l4 34q0 25 5 41q10 57 67 118z" />
    <glyph glyph-name="G" unicode="G" horiz-adv-x="537" 
d="M271 29q-56 -41 -109 -47q-28 0 -63 12.5t-52 32.5q-33 40 -33 131q0 55 13 124q18 96 72 197q23 44 38 54q0 7 2 11t8 10l33 32q54 64 121 88q40 14 53 14q3 0 8 -3t9 -3l11 2l11 2q42 0 76 -43q17 -20 47 -79l4 -16q1 -5 9 -23l-5 -23q3 -1 3 -6q-33 -47 -70 -57
q-19 3 -19 28q-10 72 -42 107q-3 17 -21 27.5t-37 11.5q-47 1 -99 -55q-42 -44 -67 -97q-15 -31 -24 -69q-12 -48 -21 -62q-16 -86 -16 -98q0 -64 14 -117q7 -25 22.5 -38.5t38.5 -13.5q55 0 107 48q21 19 38 40l75 91q10 10 28 10q15 0 30 -6q19 -8 19 -21q0 -75 -16 -120
l-24 -96q-18 -70 -25 -87l-4 -23q-8 -46 -43 -53q0 -16 -9.5 -24t-21.5 -8l-4 10l-3 10l8 66q0 22 4 41q2 11 7 34l6 89v15q-1 4 -3 17q-12 -5 -37 -24q-4 -4 -15 -14z" />
    <glyph glyph-name="H" unicode="H" horiz-adv-x="500" 
d="M117 223q-8 -88 -8 -84q0 -67 18 -67q6 0 7 3l7 8l5 9l3 1l5 1q12 0 12 -6q-24 -53 -37 -72q-28 -39 -65 -39q-21 0 -21 31q0 21 -6 62.5t-6 62.5q0 11 -2 19l2 15q0 5 2 13q-27 54 -31 78q1 6 19 36q13 21 18 42q17 105 27 225l4 46q0 17 6 45q22 22 26 25q15 11 33 11
q43 0 43 -42q0 -11 -6 -31q-10 -49 -27 -144l-11 -65q-3 -23 -7 -51l-2 -3q0 -5 14 -10q33 13 56 13q11 0 26 -3l50 7q20 0 40 -4q32 0 68 12l8 23q6 17 6 30v18q11 47 11 142v24l35 50l19 21q7 6 22 16l18 8h8q10 -7 10 -49q0 -34 -12 -111l-0.5 -1.5t-1.5 -2.5q2 -6 2 -14
l-2 -11l-2 -10q-10 -56 -33 -146q0 -16 -7 -46l-12 -51q-7 -30 -7 -46q-1 -6 -7 -17.5t-6 -17.5q0 -30 -5 -47l-19 -65q-7 -24 -17 -70q-5 -29 -22 -80l-9 -7l-14 -9q-6 0 -14.5 2.5t-11.5 5.5l-3 20q-3 19 -4 21q0 4 4 17l5 16l2 33q0 14 2.5 32.5t9.5 56.5l12 61l16 86
q7 38 7 52q-57 -12 -76 -14q-70 -9 -86 -17q-27 -14 -53 -14q-32 -24 -35 -33z" />
    <glyph glyph-name="I" unicode="I" horiz-adv-x="203" 
d="M45 0l-12 94q4 52 4 64q0 4 3 11t3 11v33q3 31 10 93q8 50 8 73q0 47 -16 47l-1 8l-1 11l4 21q4 21 4 24q0 4 -4 12l13 43l18 62q22 77 70 77q26 15 38 15q17 0 17 -27q0 -16 -11 -60l-10 -40q0 -37 -11 -74q-2 -9 -5 -23l-12 -47l2 -1q-29 -122 -29 -216q0 -9 -11 -86
q-3 -21 -3 -25q0 -40 14 -88q0 -12 -13.5 -19t-21.5 -18q-9 -4 -22 -4q-21 0 -25 29z" />
    <glyph glyph-name="J" unicode="J" horiz-adv-x="332" 
d="M109 72v-2q12 5 17 14q11 16 16 40l8 40l16 62l16 66q3 10 8 28q2 9 9 26q0 25 4 47l20 110q4 22 4 48q0 47 -47 47l-4 7q22 48 76 65q25 31 51 37q15 0 22 -26q2 -5 3 -11l1 -19l1 -26q2 -42 -23 -168l-24 -83l-3 -18q-1 -6 -1 -20q0 -2 -5 -16l-4 -11q-19 -51 -40 -133
q-7 -12 -20 -62q-5 -19 -23 -81q-8 -27 -21 -39l-20 -6l-28 -9q-18 -2 -20 -2q-48 0 -71 54q-6 15 -18 59q-2 10 -6 24q-3 8 -7 23l-8 33l-8 37q-3 14 -3 33q0 42 4 46.5t27 4.5q24 0 40 -16q2 -3 5 -8t7 -11l12 -22q0 -12 22 -52v-18q0 -6 -2 -12q-6 -3 -14 -10
q-2 -2 -4 -9l6 -20q6 -19 9 -25q7 -12 20 -16z" />
    <glyph glyph-name="K" unicode="K" horiz-adv-x="480" 
d="M252 55l-22 29l-18 25l-17 30q-9 5 -18 21l-26 44l-21 37q-5 9 -9 9q-12 -11 -16 -68q-1 -10 -5 -32.5t-4 -34.5q0 -17 -3 -50.5t-4 -49t-23 -15.5l-5 1l-6 1l-18 -2q-8 5 -11 9l-5 22q2 6 2 10q5 35 5 72q0 31 6 79q5 36 11 60q0 10 5 23.5l5 13.5q0 20 -4 47q4 24 7 44
q0 4 6 55l10 93q1 13 12 62q0 25 20 42q10 9 42 26q2 1 7.5 6.5t8.5 5.5q11 0 20 -15.5t9 -27.5q0 -5 -9 -43q-37 -107 -55 -264l2 -1q14 0 95 95l47 55q54 53 98 142q10 16 10 30q0 3 -8 10.5t-10 14.5q5 14 12 20q4 4 13 10l19 9l21 8q26 10 30 10t11.5 3.5t10.5 3.5
q5 0 14 -15q0 -95 -37 -110q-32 -62 -53 -85q-3 -5 -22 -24q-14 -14 -15 -17q-4 -8 -17 -23l-19 -22l-22 -22l-24 -23q-14 -14 -21 -26q-27 -22 -32 -29q-9 -10 -9 -23q4 -21 10 -33l19 -36l18 -33q17 -45 31 -63l19 -31q19 -31 47 -37q26 5 64 34q19 14 32 21l10 2
q9 0 9 -18q0 -35 -39 -45l-16 -19l-13 -15l-12 -17q-41 -25 -70 -25q-43 0 -80 59z" />
    <glyph glyph-name="L" unicode="L" horiz-adv-x="314" 
d="M16 53q2 32 37 244l4 55q1 10 -16 27q8 22 13 61q7 48 10 62l13 55q12 51 21 68l14 34q19 46 46 46q18 8 24 8t14.5 -10.5t8.5 -26.5q0 -24 -12 -78q-2 -9 -6 -29l-11 -55q0 -53 -9 -69q-1 -1 -3 -17.5t-10 -25.5q0 -15 -11 -60l-12 -49q-2 -12 -12 -67l-13 -69
q-6 -32 -6 -57q5 -32 17 -39q9 4 25 5l32 2q73 13 111 37q19 12 29 12q1 -1 2.5 -3l1.5 -2l2 -8q0 -8 -7 -26q1 0 4 -11l3 -16q0 -11 -15 -20l-14 -8q-11 -7 -35 -20q-21 -9 -50 -18l-38 -12q-14 0 -18 -0.5t-24 -3.5q-26 -4 -42 -4q-27 0 -39 14q-16 0 -23 13q-4 7 -5 19
l-3 12q0 2 2 30z" />
    <glyph glyph-name="M" unicode="M" horiz-adv-x="611" 
d="M55 -5q-17 -7 -30 -7q-5 0 -6 20v15q-1 5 -4 8q3 6 6 41l5 61q1 13 8 29v15q0 5 -2 12q0 19 5 50l9 55l6 46v21q0 5 -2 12l4 49l7 33q5 24 5 35q0 163 22 188l21 16q18 11 24 21q9 0 24.5 7.5t20.5 7.5q13 -2 15 -23q0 2 0 -31q0 -18 2 -48q2 -36 2 -48q0 -16 3 -43
q1 -15 5 -25l17 -71q19 -79 71 -86q35 5 73 41q5 5 15 16q7 7 14 16l65 83q17 22 44 59l13 24q7 16 22 31q10 10 24 10q17 17 27 17q19 0 19 -58q0 -68 -15 -131q-8 -34 -48 -173q-19 -65 -42 -175l-14 -66q-11 -2 -19 -8q-1 -1 -9 -11q-4 -4 -10.5 -12t-10.5 -12l-6 -3
q-6 -3 -11 -3q-3 0 -4 4q0 30 11 84q13 66 15 86q5 43 12 81l19 97q7 38 15 91q0 6 -8 6q-5 0 -7 -2l-39 -46q-14 -17 -38 -44l-20 -20q-2 -2 -7 -6.5t-8.5 -7.5t-12.5 -10t-22 -12q-35 -41 -72 -41q-35 0 -76 51l-18 36q-12 25 -18 26q-3 0 -6 -9l-8 -38l-5 -31l-23 -160
q-3 -24 -9 -49q-5 -20 -5 -22q-4 -32 -7 -41q-7 -20 -28 -28z" />
    <glyph glyph-name="N" unicode="N" horiz-adv-x="557" 
d="M-1 -18l18 94q39 206 60 408q3 33 11 53q0 12 -2 24q0 20 4 32q4 16 10 25q12 21 43 21q2 0 12 -2l11 -6l10 -8q5 3 23 28q15 19 28 19q8 0 14.5 -6t6.5 -14v-13q-3 -7 -7 -21q-3 -5 -10 -22l-13 -35q-5 -18 -5 -32q2 -14 21 -66q8 -18 20 -53q3 -9 17 -53q11 -36 18 -50
q18 -35 31 -70l27 -70q25 -65 44 -73q15 23 41 221q13 99 13 222q0 77 37 154q33 26 41 28q8 0 8 -37q0 -17 -4.5 -50t-4.5 -50q0 -4 -2 -21q-1 -20 -2 -36q0 -22 -3 -67q-6 -56 -19 -168q-15 -138 -39 -222l-6 -21q-5 -16 -8.5 -23.5t-10.5 -19.5l-29 -12q-29 -12 -40 -13
q-15 0 -40 39q-18 28 -28 52l-29 70l-26 65q-7 14 -25 51q-6 13 -21 45l-21 48q-8 18 -13 22q-11 0 -49 -156q-25 -100 -48 -174v-14q0 -15 -13 -44q-7 -15 -15 -40q0 -1 -1 -1.5l-2 -1t-3 -1t-3 -0.5l-10 -3l-12 -4q-10 0 -10 21v6q1 3 3 14z" />
    <glyph glyph-name="O" unicode="O" horiz-adv-x="537" 
d="M270 10l-41 -13l-45 -15q-15 -5 -38 -5q-82 0 -109 92q-12 41 -12 79q0 1 -0.5 2.5t-1.5 1.5q8 32 8 82q0 6 4 17t4 17q0 23 -6 23q-4 0 -4 -6q-1 -16 -19 -21q-12 5 -12 11l4 25q5 31 16 50q35 61 69 153q13 34 35 86q15 34 34 67l28 20q17 0 17 -22q0 -14 -15 -47
q0 -6 -4 -15q0 -4 4 -8q15 5 15 14q11 20 51 39q14 22 31 28q2 1 5.5 2t4.5 1l21 4q4 0 13 6t13 6q74 -14 130.5 -85t56.5 -148q0 -89 -32 -174q-33 -88 -92 -150l-47 -44q-27 -25 -44 -37t-42 -36zM316 125q32 26 58 59.5t35 73.5q6 19 13 27q16 47 16 92q0 23 -9 61
q-18 76 -68 111q-27 19 -64 19q-79 -7 -147 -93l-27 -152q-4 -22 -4 -65v-12q0 -6 -2 -17q-2 -22 -2 -30q10 -62 17 -84q19 -52 57 -52q43 0 67 17q9 4 30 21z" />
    <glyph glyph-name="P" unicode="P" horiz-adv-x="443" 
d="M61 -90q-30 0 -30 55q0 -3 2 22q0 12 1 34l3 51q1 15 -2 18l-18 7l-12 6l-3 6q1 7 3 17l4 4l17 9q12 4 15 11q4 12 6 19q2 14 2 25v21q1 6 2 14q8 52 17 112q12 84 17 115q7 45 20 116q-18 25 -52 76q0 34 52 67q22 19 30 19q6 0 11 -4l6 -3q24 0 78 -32q98 -58 152 -134
q57 -80 57 -180q0 -130 -160 -205q-107 -51 -164 -55q-4 -11 -7 -45q0 -20 -3 -35q5 -48 24 -57q-38 -74 -68 -74zM345 328l2 43q4 91 -115 199l-21 19l-18 15q-6 4 -9 7q-25 10 -36 10l-3 -4l1 -4l6 -4l8 -7l20 -27q17 -23 21 -33t4 -28l-12 -39l-7 -33l-8 -28
q-7 -23 -20 -55l1 -5l1 -8q0 -6 -11 -38q-12 -35 -13 -43q-3 -23 -11 -68q0 -12 12 -17q54 16 110 49q46 27 61 40q33 27 37 59z" />
    <glyph glyph-name="Q" unicode="Q" horiz-adv-x="537" 
d="M59 207l15 -49q20 -64 50 -85q16 -15 44 -18q13 3 16 6q-8 16 -23 36l-32 43q-10 14 -16 28q-37 64 -49 180q2 29 11 86q25 116 113 194q57 51 130 75q28 4 36 4q98 0 149 -86q24 -40 24 -115q0 -124 -48 -231q-17 -38 -30 -48l-6 -8v-8q0 -10 -7 -20q-2 -2 -7 -8.5
t-13 -15.5l-17 -19q-13 -20 -37 -44l-17 -17q-12 -12 -15 -30q9 -15 29 -34q8 -7 18 -16q5 -4 12 -13q16 -9 41 -29q27 -23 39 -31l11 -7q8 -5 12 -9q25 -16 59 -49v-2q0 -27 -47 -27q-17 0 -55 19l-32 16q-17 8 -47 24q-21 11 -44 29q-10 5 -46 43q-31 33 -44 33
q-49 -29 -93 -29q-89 0 -127 90q-18 42 -18 83q0 94 22 136q6 12 21 15q16 0 16 -10l-4 -10v-15q4 -8 4 -30v-15q2 -4 2 -12zM422 293q23 63 23 127q0 109 -55 157q-31 27 -79 27q-64 0 -112.5 -56.5t-48.5 -125.5q0 -128 67 -233q19 -33 57 -80q8 -6 15 -9q40 19 82 95
q11 20 33 61z" />
    <glyph glyph-name="R" unicode="R" horiz-adv-x="520" 
d="M84 -33h-6q-29 0 -41 35q1 3 2 14l6 71q6 71 6 89v19l-13 11q-12 10 -15 17l-3 15q0 18 7 30q32 8 37.5 26.5t5.5 80.5q0 20 -1.5 61t-1.5 62t-1 57q-2 47 -2 58q-1 39 34 65q31 23 72 23q89 0 168 -37q68 -32 98 -59q47 -42 47 -99q0 -36 -22.5 -64.5t-98.5 -71.5
l-46 -26q-14 -8 -59 -30q-81 -36 -81 -48q0 -14 11 -27q18 -20 42 -40l36 -29l114 -87q15 -12 40 -34q8 0 21.5 -10t17.5 -18q22 0 36 -21.5t14 -44.5q0 -24 -4 -33h-6q-16 0 -35 17q-6 6 -63 30q-49 21 -78 41l-99 68q-99 68 -100 68l-13 -47l-14 -80q-7 -41 -12 -52z
M356 443q35 27 35 51q-12 47 -102 82q-2 1 -18 7q-24 5 -73 14q-19 3 -28 3q-47 0 -59 -24l-4 -31q3 -23 16 -27q18 19 35 19q12 0 19 -9t7 -28q0 -32 -15 -84q-18 -61 -21 -84l3 -4q2 -4 5 -6q119 60 200 121z" />
    <glyph glyph-name="S" unicode="S" horiz-adv-x="369" 
d="M66 -61l-26 9q-13 4 -22.5 13t-9.5 25q0 18 15 28l14 9l16 10q18 11 59 28.5t60 30.5h8q13 0 13 -16q0 -6 -5 -9l-13 -6l-14 -6q-5 -5 -5 -10l6 -6q10 2 18 10l20 20l15 17q0 7 -3 8q1 7 6 10l10 10q6 6 10 11t4 14q0 22 -25 52q-69 83 -125 129q-14 12 -14 30
q-11 0 -25 25q-10 20 -14 35q0 19 -4 31q7 73 50 129q44 46 115.5 90.5t130.5 61.5q4 1 13 1q18 0 27.5 -12.5t9.5 -30.5q0 -17 -8 -41l-2 -4q-79 -71 -148 -100q-2 0 -8 -2q-14 3 -14 18q0 12 10 19l22 16q11 8 11 18q0 3 -6 3l-4 -2q-35 -18 -64 -55.5t-29 -72.5
q16 -67 83 -140l63 -69q41 -60 41 -114q18 0 18 -23q0 -11 -6 -17l-2.5 -2t-4.5 -4q-8 -4 -11 -5q-12 -6 -17 -11q-10 -4 -20 -17l-11 -14q-13 -17 -26 -25l-44 -28q-39 -25 -48 -35q-3 -1 -24 -13q-16 -7 -32.5 -14t-33.5 -7z" />
    <glyph glyph-name="T" unicode="T" horiz-adv-x="369" 
d="M189 -21q0 -8 -9 -8l-6 1l-4 1q-10 5 -14 47q0 14 -4 41l4 27q-1 5 -6 27l6 35q0 10 -2 31t-2 32l4 31l18 185q1 8 8 44q0 17 3 39q8 59 8 90q0 7 -21 11q10 0 -43 -9q-43 -7 -78 -24h-8l-12 -4q-8 0 -13 12q5 22 9 29q0 13 5 33q6 24 13 30q7 15 23 20q13 5 39.5 7
t35.5 6q4 0 5.5 -0.5t9.5 -3.5q32 12 71 10l44 -2q44 -2 43 -2q8 0 27.5 -4t19.5 -6l12 2q16 0 16 -41l-4 -18q1 0 1.5 -1.5t0.5 -2.5t1 -4l1 -13q1 -14 -8 -14q-22 0 -72 12q-55 0 -55 -12l11 -10q5 -5 17 -23q9 -14 9 -29q0 -22 -14 -90q-20 -95 -58 -316l-2 -14l-2 -16
l2 -25q-2 -14 -2 -61v-12q0 -17 -2 -25q-1 -2 -3 -4l-11 -5z" />
    <glyph glyph-name="U" unicode="U" horiz-adv-x="520" 
d="M63 191q-3 3 -8 26l2 27l-6 24l2 17l4 20q-6 14 -6 125q0 73 8 86q0 75 5 121q1 13 12.5 26t23.5 13q6 0 14.5 -20t14.5 -23q31 -17 31 -51q0 -23 -7 -59q-9 -45 -8 -56l1 -14q1 -18 -9 -39q-1 -10 -4 -31l2 -47q0 -8 -4 -27q0 -26 9 -80q7 -40 10 -41q9 -56 45 -92
q12 -12 20 -12q33 0 67 51q16 24 23 31q18 35 28 69l25 87q14 49 29 82q0 28 13 75l1 5q12 42 15 69q0 4 6 20l8 21l3 14l5 12q2 4 9 11q0 2 -2 4q4 25 16 54q0 9 19.5 21.5t29.5 12.5q8 0 11 -8l4 -20l2 -25q2 -26 -6 -85q-7 -51 -13 -75q-7 -31 -22 -92l-23 -96
q-33 -138 -45 -252l2 -16q0 -9 2 -15q14 -9 14 -19q0 -7 -9 -18t-12 -14.5t-8 -7.5q-11 -9 -22.5 -19t-25.5 -10q-20 0 -23 33l1 11l1 7q0 7 -4 14q12 71 12 109q0 9 -6 10q-4 0 -9 -6l-15 -27q-62 -114 -154 -114q-34 0 -52 30q-4 8 -10 16q-2 5 -5 12l-13 30
q-15 34 -21 108l1 4z" />
    <glyph glyph-name="V" unicode="V" horiz-adv-x="443" 
d="M234 4l-11 -7q-8 -5 -14 -11q-12 -15 -27 -21h-16q-38 0 -41 23q0 22 15 40l6 7l-16 42q-13 35 -19 62q-6 4 -14 33q-1 9 -4 26q-1 9 -1 23q-20 13 -20 99q-7 9 -8.5 29t-3.5 58q-3 33 -3 44q-8 5 -12 43v45q0 18 -3 36l-5 30q0 25 10 60q10 39 25 54l11 4l17 6l14 6
l14 5l9 2q16 0 17 -17l4 -67q2 -37 -11 -88q5 -30 5 -90q0 -52 6 -104l7 -59q3 -26 3 -42q6 -4 6 -23v-29q7 -3 10 -16l9 -36q2 -11 8 -32q3 -8 8 -8q5 1 31 48l6 12q1 2 53 120l22 50q22 51 24 56q14 34 16 58l4 42q0 33 8 54q5 20 23 31l13 5l17 6q3 1 9 5q2 3 10 5
q11 0 14 -12q0 -103 -23 -129q0 -23 -26 -86q0 -3 -2 -5v-10q0 -4 -2 -6q-14 -22 -26 -59q-10 -31 -21 -54q-4 -9 -19 -41l-16 -33q-14 -38 -33 -72q-6 -12 -20 -34l4 -25q0 -10 -7 -17q-6 -11 -17 -19z" />
    <glyph glyph-name="W" unicode="W" horiz-adv-x="668" 
d="M230 23q0 -46 -48 -46q-26 0 -28.5 12.5t-11.5 36.5l-13 35q-4 12 -6 27l6 21q-9 5 -16 39q-2 15 -7 41q0 21 -5 63q-2 7 -7 28q-8 36 -8 42l-2 16q0 6 -1 9q0 16 -10 28q-4 7 -14 12l-6 74q-3 33 6 100q6 46 13 68q0 113 53 113q27 -3 45 -35q16 -27 16 -57
q0 -24 -10 -91l4 -16l-8 -86q1 -5 2 -49l1 -45l2 -45q1 -20 3 -26t7 -28l4 -46q1 -14 4 -42q8 -51 14 -53q13 0 21 29q8 14 23 41l5 10l13 36q5 16 24 50q17 54 49 163q11 43 11 69q0 17 3 30q3 10 11 31q0 4 6 12l8 11q29 22 60 22h10q12 -6 12 -31q0 -18 -3 -37l-8 -51
l-24 -142q-4 -25 -4 -46q0 -51 4 -62l-4 -45l2 -41q2 -37 6 -41l2 -2q7 1 17 29q10 24 33 86l10 27q7 20 18 49l10 22q3 5 7 13q2 5 3 6q0 27 28.5 108.5t28.5 116.5q0 78 52 96q5 0 5 -22q0 -99 -19 -181q-33 -145 -53 -172q0 -21 -15 -59q-20 -52 -22 -59
q-20 -70 -49.5 -118.5t-83.5 -54.5q-7 3 -18 7q-6 1 -12 5.5t-11 23t-9 45.5t-4 48q2 8 2 15q0 5 -3 14.5t-3 14.5l-1 29q-1 30 -7 30q-4 0 -7 -6l-9 -21l-8 -18q-23 -51 -33 -70q0 -2 -27 -61l-12 -26l-8 -16q-1 -2 -6 -7z" />
    <glyph glyph-name="X" unicode="X" horiz-adv-x="480" 
d="M42 14q0 13 9 28l37 63q18 30 47 83q0 7 17 31l26 37q8 14 8 25q0 8 -16 40t-18 43q-4 16 -23 66q-31 76 -31 117q-11 17 -16 49q0 19 7 35.5t23 50.5q2 7 3 11q23 26 43 26q19 0 22 -18q27 -21 27 -64q0 -22 -10 -33q0 -29 14 -92q15 -68 23 -73q2 -3 9 -35
q6 -27 13 -27q8 20 36 61l32 46q59 85 59 106h-2q-2 0 -5 -2l-7 -4l-6 -4l-9 4q-5 2 -7 5l-5 9q6 27 51 60q15 13 64 51q21 16 25 16q8 0 29 -28q3 -5 3 -8l-2 -14l-4 -19q2 -6 2 -13q0 -8 -4 -16l-4 -12q-6 -19 -23 -56q-17 -27 -38 -53l-43 -53q-33 -51 -107 -148
q-1 -1 -6 -16q3 -20 20 -59q2 -6 9 -15l8 -12q4 -6 16 -36q7 -19 19 -36q12 -22 39 -65q24 -33 24 -43q0 -8 -18 -13l-13 -2l-2 2h-2q-54 13 -108 103l-50 84q-3 4 -6 4q-11 -5 -24 -25l-15 -24q-6 -16 -31.5 -57.5t-29.5 -57.5q-17 -15 -39 -53l-17 -30q-7 -13 -11 -17
q-7 -7 -17 -9q-10 3 -10 35q0 41 15 51z" />
    <glyph glyph-name="Y" unicode="Y" horiz-adv-x="443" 
d="M104 -18q0 57 27 92q6 43 17 65q12 19 17 34q5 22 5 28q-21 12 -52 78l-20 43l-11 38l-14 59q-18 76 -18 134q-6 0 -10 29l-4 29l4 25q3 16 10 24t19 8q8 2 10 2q21 12 37 12q14 0 25.5 -16t11.5 -29q0 -17 -2 -50t-2 -50q0 -42 16 -103l5 -36q3 -24 7 -40q1 -4 6 -23
q8 -30 21 -46q9 2 18 21l32 69q13 27 30 59q12 47 52 116q6 11 29 49q16 29 32 59q27 45 41 45q10 -3 20 -18q0 -125 -53 -207q0 -31 -19 -50q0 -7 -34 -51l-21 -38q-21 -38 -29 -48q-5 -14 -17 -40l-19 -40q-12 -29 -37 -76q0 -10 -10 -51q-11 -45 -11 -63l3 -5l5 -9l2 -7
q-3 -11 -14.5 -20.5t-22.5 -10.5q-5 -14 -36 -14q-14 0 -30 5.5t-16 17.5z" />
    <glyph glyph-name="Z" unicode="Z" horiz-adv-x="426" 
d="M63 -33l-13 -1l-15 -1q-26 -2 -45 13.5t-19 41.5q0 38 29 78q14 20 37 45l26 29l50 60q16 20 35 43q7 15 16 27l38 47q14 16 30 38l41 61q57 85 57 116q-5 28 -92 38q-42 5 -49 9q-21 -3 -69 -3q-52 0 -59 -1q-11 0 -13 18q4 38 18 47q5 53 71 53q33 0 41 -8q4 1 11 2h18
q30 0 87 -12l38 -8q2 0 27 -11.5t30 -13.5q50 -39 50 -90q0 -37 -13 -61q-21 -67 -78 -105q-7 -14 -18 -30q-3 -4 -9 -12.5t-12 -15.5l-52 -61q-2 -6 -7 -12l-15 -15l-19 -18q-9 -26 -40 -58l-21 -22q0 -9 -7 -16l-19 -24q-30 -38 -30 -56h6l20 -1l12 -1q8 4 15 4q5 0 24 -6
q11 7 40 13l66 13q23 5 54 19q4 1 34 16q22 11 34 11t12 -31q0 -26 -25 -36l-27 -11l-22 -7q-9 -11 -37 -21q-32 -13 -41 -19q-44 -23 -124 -39z" />
    <glyph glyph-name="bracketleft" unicode="[" horiz-adv-x="463" 
d="M201 -90q-48 0 -67 31q0 24 12 142q8 62 19 151l8 78l16 136q3 13 8.5 41t17.5 79l11 50q4 19 17 42q10 18 32 28q6 3 26 8l19 5q62 24 102 24q20 0 33 -6q6 -10 6 -24q0 -17 -13 -27l-17 -7l-15 -5h-23q-76 0 -92 -70q-11 -48 -23 -128q-4 -26 -24 -142q-7 -41 -15 -92
q-13 -76 -13 -119l1 -7l1 -4q-22 -78 -22 -100q1 -6 3 -12q2 -1 39 -7q6 -2 18 -4l43 10q32 7 43 9l7 -2q2 -1 4 -3.5t2 -7.5q0 -2 -8 -20q0 -7 -7 -20l2 -2q-40 -25 -151 -25z" />
    <glyph glyph-name="backslash" unicode="\" horiz-adv-x="447" 
d="M354 6q0 48 -81 176q-50 79 -129 211q-49 82 -119 205l-20 71q-5 19 -7 24q0 6 20 6q6 0 32 -6q14 -2 42 -7q18 -27 26 -50l28 -76q11 -32 32 -80l140 -240q3 -6 21 -39q4 -7 16 -30l38 -68q29 -65 29 -91q0 -35 -12 -35q-24 0 -56 29z" />
    <glyph glyph-name="bracketright" unicode="]" horiz-adv-x="463" 
d="M145 -66q-50 -22 -106 -22q-34 0 -39 25l4 16q11 27 29 26l30 -2q56 -4 87 29l8 26q2 4 4 13q1 3 3 8.5t2.5 8.5t11.5 74l61 407q4 28 12 66q6 30 6 37q0 10 -25 13q-15 2 -36 5q-66 -19 -86 -19q-6 0 -8 2l-3 5l-2 4q4 29 19 44t45 19q49 6 78 6q72 0 92 -32l-13 -89
l-19 -172l-9 -98l-17 -140q-2 -20 -9 -62q-4 -18 -6 -32q-5 -19 -16 -57q-1 -4 -1 -5q-13 -38 -14 -42q-9 -20 -26 -37t-57 -25z" />
    <glyph glyph-name="asciicircum" unicode="^" 
 />
    <glyph glyph-name="underscore" unicode="_" horiz-adv-x="500" 
d="M0 -74h500v-51h-500v51z" />
    <glyph glyph-name="grave" unicode="`" horiz-adv-x="277" 
d="M-223 510q20 -13 49 -25q36 -15 50 -26q0 -7 -8 -14t-13 -7l-29 8q-51 14 -73 31q-9 1 -41 19q-35 20 -47 24l-9 15l-8 14q0 6 -2 12l2 13q15 18 37 18h10q31 -49 82 -82z" />
    <glyph glyph-name="a" unicode="a" horiz-adv-x="406" 
d="M2 96l-2 29q-3 41 70 92q9 18 61 62q28 29 84 71q66 50 103 50q15 -3 24 -21q0 -9 -9.5 -26.5t-31.5 -24.5q-10 -18 -45 -47q-7 -3 -20 -19t-23 -20q-4 -8 -5.5 -10t-4 -5.5t-4.5 -5.5l-12 -10q-1 0 -8 -5l-1 -1q-6 -11 -33 -39l-26 -27l-5 -12l-5 -9l-2 -5l2 -2
q20 5 33 15l39 37q27 25 40 32q12 21 37 38t49 17q14 0 19 -25l4 -20l-6 -31q0 -17 11 -30.5t26 -14.5q25 5 49 29q4 -1 4 -4l1 -12q0 -6 1 -15q0 -7 -4 -14q0 -18 -30 -48q-10 -8 -19 -11q-16 -9 -33 -11l-5 2q-3 1 -7 2q-3 0 -15 -2q-20 2 -35 17.5t-18 35.5l-3 21l-3 17
q0 6 -4 7q-4 0 -18 -12q-7 -6 -12 -12t-15 -15l-7 -2q-28 -37 -49 -45q-8 -17 -32.5 -34t-42.5 -17l-17 -6q-40 0 -47 49q0 8 7 26q2 3 5 9v2q0 6 -10 10z" />
    <glyph glyph-name="b" unicode="b" horiz-adv-x="352" 
d="M234 45q-22 -34 -61 -64q-44 -34 -79 -34q-32 0 -47 27q-6 10 -11 29q-3 10 -8 34l-7 70q-3 0 -11.5 -10.5t-11.5 -10.5q-1 1 -1.5 2.5t-0.5 5.5l4 56q0 2 10 12l14 14q3 3 5 12q7 69 22 109q0 15 8 45l17 64l16 57q30 107 76 178l15 19q13 16 16 26q10 2 34 15.5
t37 13.5h19q24 0 24 -39v-15q-1 -2 -1 -9l-1 -17q-14 -50 -45 -145q-13 -34 -38 -81q-10 -19 -24 -42l-36 -60q-34 -59 -57 -102q-5 -18 -7 -21l-4 -23l-4 -28l5 -30q5 -31 9.5 -42.5t16.5 -25.5q46 7 62 43l-3 3q-8 4 -12 5q-15 7 -16 12q0 31 26 70l20 30q13 20 24 30
t23 10l9 -2h27q24 0 24 -15q0 -14 -6 -31q-7 -20 -17.5 -40.5t-17.5 -40.5l-18 -32q-6 -11 -18 -32zM266 64q39 37 89 98q5 0 8 -5l5 -17q1 -6 5 -17q0 -17 -4 -21t-11 -9q-10 -8 -18 -13q-11 -5 -30 -21q-22 -18 -31 -23q-12 -9 -27 -9l-6 8q1 4 4 10l8 10zM156 373l12 25
l8 16q9 18 22 65t21 61.5t8 23.5q0 4 -4 4l-4 -2l-22 -42l-20 -40l-18 -40q0 -1 -2.5 -7.5t-5 -12t-5.5 -16.5q-2 -7 -12.5 -46t-10.5 -48q5 2 33 59z" />
    <glyph glyph-name="c" unicode="c" horiz-adv-x="332" 
d="M12 166l22 17q11 7 29 18q0 12 65 61q54 40 81 56l21 15q34 24 77 24l6 -23q3 -12 3 -20q0 -32 -82 -72q-8 -18 -45 -42q-47 -30 -54 -37q-14 -13 -14 -42l-4 -17l4 -13q1 -2 2.5 -6.5t3.5 -8t12 -8.5q18 -4 47 -7l25 5q6 2 10 6q22 10 62 37q46 31 49 49q0 4 4 4
q6 0 10 -6l6 -10l2 -35q-3 -18 -67 -60q-50 -33 -75 -44q-43 -19 -85 -19q-43 0 -86 41q-10 19 -15 48q-1 6 -4 21q0 4 -1 7q-3 0 -12.5 -9.5t-10.5 -9.5q-2 4 -2 6v58l1.5 2t3.5 4q6 4 7.5 6t3.5 4z" />
    <glyph glyph-name="d" unicode="d" horiz-adv-x="463" 
d="M61 -12q-46 0 -50 37q0 35 21 80l-3 1l-6 1l-4 -1l-3 -1l-8 -9l-8 -8q-5 3 -6 6q0 7 4 16.5t4 12.5l-2 6q-1 3 -1 10q0 27 59 62l29 34q12 11 33 35q15 13 28 19q11 16 28 32q4 5 33 29l25 21l16 13q4 4 13 10q9 3 19 4q6 6 25 65l21 66q1 3 53 112q24 51 57 64h7
q22 0 22 -41q0 -39 -16 -70q0 -10 -5 -27q-4 -10 -13 -30t-9 -25q0 -34 -28 -74q-5 -26 -17 -42q0 -18 -20 -50q-17 -27 -17 -78q0 -124 70 -131q41 15 63 27q3 0 5 -2l2 -4l-2 -9l-3 -10q1 -1 3 -16l2 -18q-40 -46 -115 -46q-33 6 -58 26.5t-30 55.5q-5 7 -9 26
q-3 16 -6 17q-24 0 -49 -57q-26 -31 -80 -93q-43 -46 -74 -46zM218 205l21 34l27 42l2 37q-33 -23 -44 -42l-11 -14q-24 -24 -60 -81q-39 -62 -39 -85q7 0 18 11l28 29z" />
    <glyph glyph-name="e" unicode="e" horiz-adv-x="297" 
d="M37 39q-7 11 -17 35q-4 8 -6 19q-7 22 -7 65q0 6 2 18l9 25l10 25l12 26l16 29q14 26 24 30q23 31 63 50q1 6 16 14q4 1 12 4q12 2 18 2q29 0 45 -18q10 -3 10 -35q0 -35 -10 -39q0 -18 -59 -79q-22 -23 -41 -30q-8 -11 -16 -17l-17 -13l-4 -13q3 -25 17.5 -35t39.5 -16
q66 8 112 45q5 1 18 15t19 14t6 -12v-9q0 -36 -8 -47q-28 -17 -110 -69q-12 -5 -23 -7l-55 -10l-17 2q-21 0 -59 31zM158 287q-17 0 -36.5 -23.5t-22.5 -42.5q1 -4 6 -4q5 1 17 8q8 6 11 11q9 3 19 17t10 24q0 6 -4 10z" />
    <glyph glyph-name="f" unicode="f" horiz-adv-x="277" 
d="M148 -283q-12 -4 -21 -4q-30 0 -45 46q-4 12 -5.5 17t-4.5 13v8q-15 75 -15 205q0 15 1 45t1 45q0 35 -4 39q-4 -2 -22 -16l-27 -21l-12 -10q-6 3 -6 6q3 9 6 27l-2 29l28 28q18 18 33 39l18 36q2 3 17 30l-4 65q-4 69 22 163q15 52 54 139q11 25 32 66q16 24 42 24
q32 0 32 -31q0 -24 5 -59q0 -38 -4 -65l-15 -101l-12 -47q-3 -13 -7 -25q-20 -71 -53 -113q-9 -12 -18 -51q-12 -55 -15 -89l-10 -116v-10q0 -3 -2 -13l4 -55l-4 -51q1 -13 8 -62l2 -2q20 0 44 84l15 53q8 27 13 40l7 35q5 25 10 30q0 20 24 27q8 0 8 -23v-15q0 -9 -4 -16
q3 0 6 -11l2 -15q0 -27 -14 -68q-17 -54 -20 -67q-13 -64 -56 -148q-13 -26 -32 -35zM213 512l5 32q5 32 5 44t-6 12q-17 -41 -43 -98l-6 -22q-2 -9 -8 -25v-12q0 -19 -6 -33q0 -11 -2 -25q0 -21 6 -26q6 2 10 24q15 7 31 59q14 47 14 70z" />
    <glyph glyph-name="g" unicode="g" horiz-adv-x="352" 
d="M250 -207q-47 -55 -104.5 -86t-86.5 -31l-29 5q-14 2 -19 4q-8 4 -13 14q-13 1 -16.5 12.5t-4.5 32.5q-1 33 13 66t33 56q7 8 23 28l75 75q0 9 -22 45q-14 23 -28 47.5t-14 61.5q2 4 2 8q-17 -7 -30 -17l-21 -17q-5 -5 -14 -11v4l-2 56q1 2 36 32q31 26 40 39q10 4 24 24
l21 30q1 16 46 57q37 34 62 51q0 8 27 21l12 6q9 11 25 18l13 3t15 3q29 0 29 -41q0 -12 -5 -26q-7 -17 -17 -17q-24 -37 -99 -94q-13 -9 -34 -26q-17 -14 -21 -19q-9 -10 -13.5 -23t-4.5 -36q2 -8 2 -21l18 -39q9 -19 33 -45q47 42 147 109q3 5 11 12q6 0 6 -31v-29
q-47 -48 -107 -90q-21 -11 -26 -26q39 -36 39 -115q0 -19 -3 -35q-2 -6 -7 -15l-9 -16q0 -4 -2 -14zM172 -191q16 17 16 50q0 50 -26 67q-6 0 -12 -7l-32 -36q-6 -7 -13 -8l-4 -7l-3 -7l-32 -38l-22 -29q-7 -9 -7 -17q-5 -7 -8 -17q3 -24 28 -24q53 6 115 73z" />
    <glyph glyph-name="h" unicode="h" horiz-adv-x="369" 
d="M197 109q-45 -49 -45 -60q-28 -48 -66 -78l-13 -2l-18 -2q-28 0 -38 35q-2 12 -5 35l-2 31v34l-5 -9q-3 -3 -9 -5l2 64l13 13q10 10 10 13q42 175 86 265q4 7 24 48q14 29 29 44q6 12 15 27q6 7 13 17q4 4 11 13l20 25q19 30 60 66t59 36q9 0 16 -12q13 0 22 -8t9 -21
q0 -41 -12 -53q0 -32 -19 -55q-13 -61 -77 -160q-19 -30 -62 -86q-8 -7 -36 -41l-29 -35l-38 -44l-4 -8q-1 -2 -3 -5q0 -18 -7 -56q-9 -44 -10 -59q3 -12 6 -17q13 0 45 58q44 78 52 108q14 25 63 25q7 -3 11 -13l11 -39q5 -18 15 -42q13 -17 35 -17q2 0 4 -2q25 1 43 21
l6 2q8 0 8 -12q0 -44 -10 -54q-6 -7 -16 -12t-17 -12q-38 -15 -57 -19q-15 1 -51 17q-4 2 -17 24q-11 17 -22 17zM205 393q7 8 13 18l11 19q3 5 11 8l12 22l16 34l18 32q30 53 30 83l-1 4l-1 2q-6 0 -21 -17q-10 -14 -35 -48l-34 -46q-10 -13 -17 -18q0 -23 -25 -43
q0 -14 -22 -63q-23 -52 -25 -67l2 -3l2 -1q3 0 31 38q32 43 35 46z" />
    <glyph glyph-name="i" unicode="i" horiz-adv-x="297" 
d="M-7 78q-3 8 -2 21l2 45q8 5 21 20.5t24 20.5q3 8 23 32q13 16 30 27q9 19 21 25q41 0 61 -29q3 -36 19 -108q8 -23 30 -27l13 4q10 5 24 10q3 9 15.5 19t21.5 12l-2 -62q-24 -48 -110 -69l-21 6q-35 16 -47 50l-8 22q-4 3 -15 25t-20 22q-10 0 -25 -16l-28 -29
q-10 -4 -27 -21zM103 348q-25 15 -25 41q0 17 18 33t35 16q15 0 33 -10q14 0 14 -29v-21q-2 -5 -17.5 -13.5t-16.5 -14.5h-15z" />
    <glyph glyph-name="j" unicode="j" horiz-adv-x="297" 
d="M294 545q-1 -21 -16.5 -35.5t-43.5 -30.5h-17l-24 3q-6 12 -11 39q8 47 54 73q2 12 20 20q15 7 29 7q24 0 24 -19q0 -28 -15 -57zM-2 86v16q-1 5 -2 13.5t-1 16.5q-1 3 -1 13q0 3 3 7l9 10l17 16q17 16 48 48q16 20 56 68l51 61q14 14 29 14t23 -7.5t8 -19.5l-2 -69
q-1 -41 -17 -131l-12 -68q0 -4 10 -4q19 18 58 53l8 16q5 10 15 22q8 8 15 9l1 -14l2 -21l4 -24q-13 -6 -26.5 -29.5t-22.5 -30.5q-62 -47 -85 -90q-14 -25 -23 -57l-20 -67q-12 -42 -22 -60l-12 -23l-15 -31q-16 -34 -31 -51q-6 -7 -13 -10.5t-17 -3.5h-10q-21 0 -21 22v19
q0 6 -2 16q5 31 11 43q0 36 31 94q47 89 75 123q6 4 10 39l9 76q5 43 9 55q0 3 -1.5 14.5t-1.5 25.5q-1 19 -7 20h-8q-13 0 -45 -37q-60 -70 -84 -82z" />
    <glyph glyph-name="k" unicode="k" horiz-adv-x="389" 
d="M94 -41q-44 0 -44 61q0 34 14 64l-2 12l7 45l2 23l-5 -2v2q-17 -30 -66 -74h-6q0 4 3 11l3 10q-3 8 -3 32q0 15 33 53l20 23q9 28 38 92l38 85q7 15 20 63q13 34 43 117l12 35q10 30 13 36q11 27 22 29q37 0 47 -63q0 -33 -21 -101q-1 -1 -11 -26l-17 -43
q-42 -107 -54 -140q0 -28 -20.5 -88t-20.5 -86q-6 -14 -14 -57q0 -8 6 -13l8 5q33 65 43 82l5 28q11 62 47 62q4 0 12 8l25 49q12 22 28 53l9 18q4 10 14 26q4 8 14 14l6 2q21 0 21 -49q0 -12 -6 -25q-1 -4 -16 -31q-8 -15 -13 -26l-18 -29q-11 -16 -29 -58q2 -12 24 -30
q16 -31 43 -31q18 0 43 31h2q3 0 7 -11.5t4 -17.5q0 -47 -47 -79q-22 -15 -44 -15q-11 0 -21 7q-6 4 -28 22q-3 3 -11 9q-19 19 -34 19q-9 0 -12 -8q-7 -12 -53 -70q-5 -3 -9 -10q-9 -13 -30 -36q-10 -9 -21 -9z" />
    <glyph glyph-name="l" unicode="l" horiz-adv-x="332" 
d="M336 90q-93 -67 -152 -67l-20 6q-44 0 -69.5 35t-31.5 77q-15 -6 -37 -23q-26 -20 -26 -32q-2 4 -2 6l2 33v29q21 20 59 63q0 35 4 68q12 91 58 199q44 103 82 167q9 15 16 23q41 56 70 56q39 0 39 -56q0 -98 -55 -216q-25 -53 -68 -128l-53 -92l-21 -23q0 -103 86 -113
q25 2 76 34q29 18 45 24v-25l-1 -26zM182 371l18 31l17 30q3 2 14.5 39.5t16.5 44.5q0 3 -2 5q0 4 2 12t2 12l4 18q-56 -53 -63 -90q-10 -54 -29 -77q0 -6 -10.5 -38.5t-10.5 -43.5q8 0 41 57z" />
    <glyph glyph-name="m" unicode="m" horiz-adv-x="668" 
d="M94 4l-18 -4q-18 5 -18 18q0 14 10 52q3 8 9 27l13 44q5 17 5 25q0 10 -3 10q-9 0 -22 -10q-18 -21 -55 -62q-9 -10 -19 -12v33l-2 25q12 18 24 31l36 37l28 28q21 22 54 56q20 18 44 18q28 0 28 -25q0 -8 -1 -16t-2 -15l-16 -71l2 -3l2 -1q7 0 22 14l49 45l39 37l37 37
q7 7 21 15q13 5 26 5q10 0 16.5 -13t6.5 -32q0 -1 -5 -46l-11 -51q-5 -23 -5 -46q5 2 16 14l11 12q59 64 115 64q12 -2 25 -21.5t16 -35.5t19.5 -37t31.5 -21q9 0 31 18l13 14q5 3 9 3q0 -15 -2 -23l4 -39q0 -25 -53 -45l-27 -10q-11 2 -43 17q-8 4 -28 29q-39 48 -66 48
q-20 0 -53 -39l-46 -55q-27 -32 -44 -45q-12 -14 -31 -14q-14 0 -20 18q0 39 8 55q0 -9 21 67q12 43 12 65l-1 6h-8q-8 0 -16 -5q-11 -13 -33 -32q-7 -6 -16 -6q-7 -12 -47 -54q-37 -38 -50 -57q-40 -40 -43 -41z" />
    <glyph glyph-name="n" unicode="n" horiz-adv-x="480" 
d="M127 -20q-4 -15 -41 -15q-18 0 -22 4l-3 11q2 6 2 14q0 6 -2 12q1 7 2 16q1 4 5 16l8 28q0 4 14 43q2 8 2.5 14t2.5 18q0 4 1 5q8 14 8 26q0 8 -8 8q-13 0 -21.5 -10t-15.5 -20q-2 -2 -16 -17l-27 -29q-6 -5 -18 -16q-2 2 -2 6l2 54q1 15 12 24q8 19 45 59l41 44
q15 17 43 44q20 15 43 15q35 0 35 -53q0 -22 -8 -47l-8 -25l-15 -49q-14 -46 -14 -51q4 0 8 4l23 30q11 15 49 46q22 28 42.5 44.5t47.5 16.5q15 0 31 -6l14 -21l13 -24l15 -34q6 -14 19 -32l8 -4l5 -2q8 4 23.5 19t21.5 16q0 -55 4 -60q-27 -33 -47 -48q-23 -17 -43 -17
q-22 5 -29 12q-5 4 -19 23l-19 32q-9 15 -19 21q-7 21 -21 21q-9 0 -37 -25l-31 -27q-6 -3 -16 -12q-8 -17 -20 -32l-38 -38z" />
    <glyph glyph-name="o" unicode="o" horiz-adv-x="406" 
d="M88 12q-28 11 -35 43q0 7 -2 9q4 22 5 36q1 23 5 37q-12 0 -37 -25l-17 -17q-7 -5 -11 -5v6q0 9 0.5 13t3.5 14l-2 5l-2 3v17q10 16 52 55l28 26q11 10 29 25q12 23 60 62l34 28q1 1 5 2h9q31 0 31 -12l-6 -12l-6 -15q8 0 28 7.5t31 7.5q39 0 61 -31l5 -16q6 -13 6 -29
q0 -46 -13 -74q0 -2 -7 -15q-13 -16 -29 -46l-14 -13q-13 -12 -17 -22l-52 -46q-41 -36 -90 -36q-45 0 -53 18zM271 133q7 8 14 37q2 9 2 23q0 39 -31 39q-20 0 -49 -29q-13 -25 -33 -25q-25 -29 -31 -76q0 -38 23 -41q58 19 105 72zM313 27q-5 0 -10 8q9 16 22 30l31 33
q14 15 23 31q19 14 31 31q7 0 14 -24l4 -13q0 -23 -37 -45q-4 -3 -13 -8q-3 -2 -9 -5.5t-28 -20.5t-28 -17z" />
    <glyph glyph-name="p" unicode="p" horiz-adv-x="389" 
d="M61 -266l-8 -18q-5 -12 -12 -15h-10q-32 0 -32 28q0 118 21 240q6 30 16 92l3 21l3 23l1 22q-7 -3 -15 -9l-12 -14l-10 -10q-3 -4 -8 -4l-2 6v4l1 11q-3 5 -3 10q5 7 5 31l14 12l20 18q10 19 26 48l16 24l27 46l33 55q0 9 4 10q22 41 31 63l5 5q2 2 5 6l10 11q6 2 11 3
q5 0 10.5 -12.5t5.5 -30.5q0 -14 -17 -57q-4 -7 -6 -17l-3 -16q-5 -5 -17 -45q-8 -26 -30 -90q-36 -95 -49 -171q-2 -13 -18 -69q-13 -44 -13 -70q7 1 10 12l10 40q9 34 13 42q21 118 94 236q14 33 41 33q26 0 30 -13l23 -35q20 -31 26 -37q16 -19 37 -24q12 1 29 13t19 12
q1 -2 1.5 -6t0.5 -11l-1 -25l-1 -18q-48 -37 -76 -37q-30 0 -70 35l-25 27q-4 4 -10 4q-9 0 -16 -14l-5 -10l-5 -13l-56 -140l-22 -65q-12 -40 -33 -94q-3 -20 -6 -28l-6 -16z" />
    <glyph glyph-name="q" unicode="q" horiz-adv-x="389" 
d="M-6 80q5 15 5 39l-1 11l-1 9q0 21 30 40l25 16q59 53 93 71q5 12 52 41q55 33 84 33q10 0 19 -11q14 -17 16 -18q0 -10 -6.5 -14.5t-21.5 -12.5l-13 -7q-5 -11 -15 -17l-26 -16q-15 -9 -21 -17l-29 -29q-16 -15 -45 -44q-19 -20 -19 -29q-14 -12 -15 -25q2 -4 2 -10l2 -2
q3 0 21 12q16 9 26 13q17 23 55 50q48 35 60.5 46.5t21.5 11.5q37 -10 37 -45v-20q0 -28 -4 -55t-12 -62l-15 -66q-12 -54 -36 -161q-10 -46 -36 -136q-13 -18 -36 -18q-13 0 -15 18q9 24 19 105q1 7 4 12l2 8q0 1 -0.5 3t-1.5 3q3 6 7 25l4 27l4 31l3 30q7 36 21 160
q0 29 -8 31q-6 0 -12 -6l-16 -15q-9 -9 -14 -12q-80 -69 -114 -80l-12 -3t-17 -3q-18 0 -34 31q0 4 -4 12q0 4 14 63q-3 0 -8 -2t-11 -8z" />
    <glyph glyph-name="r" unicode="r" horiz-adv-x="332" 
d="M-2 100l-1 12l-1 19v17l12 14l14 18q3 5 5 15l12 15l14 17q7 15 27 39l-1 7l-2 8l-2 7l-1 7q2 1 4 3q6 6 12 10q13 8 19 14q19 18 39 18q29 0 63 -33q4 -10 10 -10q6 -5 11 -22q22 -21 22 -84q0 -21 -15 -59q-12 -31 -16 -50l4 -10q7 0 28 13q14 8 40 30q12 9 33 30
q5 8 8 9q6 0 6 -11v-6q6 -7 6 -30q0 -1 -2 -3.5t-7 -10.5q-9 -10 -9 -19q-3 0 -40 -28l-42 -32q-9 -2 -31 -15l-30 -18q-7 -4 -17 -4q-20 0 -29 4.5t-14 20.5q3 24 16 63q16 46 20 62q5 22 5 45q0 18 -8.5 39t-24.5 21h-2q-19 -4 -53 -48q-9 -13 -25 -32l-12 -12
q-4 -4 -10 -11l-12 -13l-14 -17q-2 -1 -7 -6q-1 0 -2 -1v8z" />
    <glyph glyph-name="s" unicode="s" horiz-adv-x="314" 
d="M-2 90l2 12q0 1 -2 20l-2 19q0 17 39 48q10 8 22 20q7 10 21 23l20 22q6 2 15 11q3 3 21 23l18 21l18 20q4 5 10 9q3 4 12 10.5t21 6.5q53 0 53 -50q0 -30 -4 -35v-10q0 -37 -26 -114q-16 -48 -19 -70q4 -8 4 -6q5 0 33 24l29 25q31 43 39 43q4 0 4 -4l-2 -7
q-2 -7 -2 -10l6 -34q0 -8 -13 -21t-14 -16q-14 -20 -41 -38l-53 -35q-25 -16 -37 -38l-22 -10l-7 -5l-8 -5q-20 0 -20 22q-17 31 -17 90l-2 7q0 4 -2 6q0 14 12.5 27t26.5 13q8 0 11 -10l4 -10l1 1q17 3 17 114v14q0 6 -6 10l-3 1l-5 1q-3 0 -10.5 -5.5t-15.5 -14.5l-13 -12
q-18 -15 -51 -43q-20 -18 -31 -31q-26 -29 -31 -29z" />
    <glyph glyph-name="t" unicode="t" horiz-adv-x="297" 
d="M97 25q0 118 30 184v2q0 3 -2 5l-2 1q-6 -8 -29 -36q-26 -30 -28 -30q-2 -3 -22 -22l-46 -45l-2 16q-2 16 -2 19v6q0 26 31 54q15 13 20 22q63 85 98 143q23 38 23 49h-14l-47 2l-50 1l-4 -1q-17 0 -29.5 7t-12.5 12q0 55 11 66q5 5 35 4l93 -2q6 0 8 -2l20 4q5 0 12 -4
q21 5 30 21l23 44q14 27 30 35h2q2 0 8 -2l4 -2q18 -9 18 -27v-6q0 1 -2 -13l-8 -21l-6 -15q0 -7 8 -13t8 -12q-4 -27 -4 -65q0 -8 -7 -9l-21 -3q-11 -2 -14.5 -3.5t-9.5 -22.5l-7 -24q-5 -16 -21 -80l-24 -94q-7 -27 -7 -37q-4 -17 -4 -37q2 -12 5 -18q25 0 56 37
q5 6 13 13.5t10 8.5l12 9q5 3 13 11t12 9q8 0 8 -16q0 -29 -7 -44q-4 -9 -29 -34l-16 -16l-17 -16q-7 -7 -14 -9q-69 -69 -87 -72q-25 11 -36.5 24t-11.5 29z" />
    <glyph glyph-name="u" unicode="u" horiz-adv-x="443" 
d="M90 6q-14 10 -20 25q-1 5 -4 18t-3 16l-4 42v6q0 20 -2 22q-3 0 -20.5 -13t-20.5 -17l-9 -9l-8 -7q-1 -1 -7 -3q-4 0 -4 35q0 24 16 37q25 21 43 43q4 6 42 61l38 56q22 22 51 22q13 0 13 -22q0 -5 -10 -55q-3 -6 -9 -23l-14 -38q-3 -13 -6 -30l-4 -49q-3 -32 8 -47
q1 0 2 -2q6 2 16 9q3 3 9.5 7t8 5.5t26.5 30.5l26 30l22 36q35 58 64 58q35 0 35 -57q0 -62 31 -62q11 0 19 6l21 15q11 11 15 12q6 0 6 -33v-14q0 -27 -38 -48q-33 -18 -62 -18q-28 0 -39 10q-14 8 -19 21l-11 29q-4 16 -7 16q-4 0 -17 -17l-20 -26l-25 -30
q-4 -5 -15 -16.5t-43 -34.5q-17 -9 -36 -9q-11 0 -35 12z" />
    <glyph glyph-name="v" unicode="v" horiz-adv-x="352" 
d="M81 63q-7 0 -9 14l-6 50q3 18 3 27q-8 0 -16 -9l-28 -30q-9 -10 -23 -23q-3 2 -3 6q0 5 1 6l-3 21q-1 4 -1 11q-1 4 -2 9l33 51l33 54q5 8 11 23q4 9 9 26q3 7 24.5 21t28.5 14q11 0 12 -45l1 -77v-77q0 -69 14 -69q17 0 49 59q8 14 23 45l25 56q4 10 11 24q9 18 16 46
q4 13 7 26q0 15 12 29t27 14q10 0 10 -11q0 -46 -20 -83q-4 -19 -13 -49q-5 -14 -16 -25q-1 -18 -14 -42.5t-15 -33.5l-22 -38q-6 -10 -15 -28q-22 -40 -39 -49l-12 -16q-7 -12 -18 -20q-7 -7 -27 -7q-40 0 -48 51q-5 13 -4 25l1 12zM307 57q-25 -19 -49 -30l-10 8l6 12
q7 15 22 28l30 27q14 12 18 27q8 4 22 19l13 14q2 0 9 -18t7 -23q0 -13 -7.5 -21.5t-31.5 -22.5q-5 -4 -15 -10t-14 -10z" />
    <glyph glyph-name="w" unicode="w" horiz-adv-x="500" 
d="M72 125v16q0 2 -0.5 5t-1.5 4h-4q-7 0 -27 -23q-24 -27 -37 -35q-8 0 -8 4q3 8 3 17v16q0 24 16 45q19 25 38.5 51.5t30.5 55.5l18 23q3 3 7.5 8.5t9.5 8.5q8 7 22 7q20 0 20 -21q0 -35 -6 -67q3 -23 4 -60l1 -32q1 -23 3 -34q1 -7 7 -9q5 0 9 6l11 22l11 21q6 6 20 35
q0 15 18 45l13 22l17 36q23 48 53 48q22 0 22 -37q0 -20 -8 -20l-2 -19v-6q0 -15 -8 -28q0 9 -5 -51l-5 -60l1 -15q1 -18 11 -28q13 4 35 45l21 39q20 38 28 47q5 17 12 41l15 35l8 24q4 38 7 50q9 32 28 38q18 -12 18 -28q0 -81 -57 -193l-52 -102l-30 -46
q-17 -25 -35.5 -40t-42.5 -15q-37 0 -36 80v19l-2 10q4 36 4 37q0 6 -5 6h-2q-6 -6 -12 -20l-14 -32q-5 -12 -17 -24q0 -3 -4 -23q-2 -6 -8 -14l-11 -16q-21 -55 -51 -55q-25 3 -25 43q-26 52 -26 143zM469 66q-33 -30 -63 -39l-4 2l-2 3l-2 5q3 15 18 29l31 29q17 16 22 30
q6 4 14.5 12t11.5 13q9 12 13 12q7 0 13 -39q0 -18 -21 -35q-13 -11 -31 -22z" />
    <glyph glyph-name="x" unicode="x" horiz-adv-x="389" 
d="M252 254q19 28 19 45v7l-1 3q-2 2 -16 2l-11 -11l-13 -10q-5 -4 -17 -9q-8 -9 -23 -23l-19 -14q-8 -6 -11 -12q0 -14 8 -35t14 -21q22 7 49 47zM72 4l-12 -10q-8 -5 -13 -6h-6q-17 0 -18 10l18 21l18 20l49 47q10 9 15 18q-2 11 -13 36q-13 29 -20 30q-11 -7 -36 -33
t-36 -32q-16 -18 -24 -21q-6 2 -6 20q0 31 6 41q3 8 29 26q12 9 37 25q8 7 10 21q0 9 -5.5 24t-7.5 22.5t-2 15.5l9 30q11 37 40 37q17 0 30 -48q7 -25 12 -30q10 1 44 27l21 21q33 33 82 71q8 6 20 6q23 0 34.5 -20.5t11.5 -44.5q0 -42 -43 -90q-18 -20 -33 -35
q-3 -1 -12 -15q-6 -6 -9 -10t-10 -10q-41 -36 -41 -51q12 -37 55 -37q27 4 41 8q9 10 23 10q25 13 47 47q3 1 11 9l8 8l4 -2v-60q-27 -33 -68 -57l-34 -20q-39 -23 -64 -23q-24 0 -46 18q-21 22 -47 46l-7 -7l-5.5 -5.5t-7.5 -4.5l-17 -19q-9 -11 -14 -15q-9 -7 -18 -9z" />
    <glyph glyph-name="y" unicode="y" horiz-adv-x="443" 
d="M229 111l-17 -16q-18 -17 -20 -18q-12 -9 -24 -11q-13 -23 -32 -33q-11 -5 -44 -13q-20 5 -25 8.5t-8 20.5q4 28 4 29q-2 2 -3 14l-1 15q-2 25 -6 26q-4 0 -30 -23t-31 -26q-2 2 -4 6q8 18 8 27l-4 28q3 8 34 34.5t38 35.5q18 21 36 43q25 27 45 27q13 0 23 -9t10 -22
q-2 -9 -5 -23q-3 -7 -6 -18l-14 -46q-3 -12 -8 -36q0 -14 5 -16l10 2q1 5 22 19l27 18q18 15 40 41q35 41 37 43q10 11 32 22q3 2 33 31q18 18 40 18q25 0 25 -20q0 -18 -18 -62l-6 -25q-1 -4 -9 -26l-29 -79l-4 -17l4 -4l4 4q6 4 11 11q11 14 22 22q6 2 31 26q22 23 31 23
q3 0 4 -1l2 -1q0 -6 -2 -14l4 -37v-4q-18 -21 -67 -60q-59 -48 -73 -61q-27 -25 -48 -64l-39 -58q-33 -49 -45 -73q-18 -10 -43 -41q-28 -35 -41 -46q-20 -16 -48 -16q-15 0 -17.5 3t-8.5 20q0 11 16 35q8 11 17 26q8 2 18 17q7 16 14 16q11 24 41 60q7 7 9 11l8 7
q31 48 58 73q9 9 18 15q2 14 17 50t24 49q0 8 5 32l7 33l1 9l1 6q0 9 -4 10q-11 -7 -32 -22q-4 -3 -12 -9.5t-8 -15.5z" />
    <glyph glyph-name="z" unicode="z" horiz-adv-x="332" 
d="M-6 148q7 10 15.5 21.5t20.5 23.5q26 28 36 43l45 53q23 39 49 39q45 0 70 -40q22 -35 22 -83t-20 -68q-2 -8 -19 -32l-20 -28q-5 -10 -5 -24q2 -17 7 -26l4 -4q6 0 14.5 7.5t19.5 19.5l13 14q27 29 51 51l22 29l14 17q2 3 5 3q6 0 6 -29v-33q-3 -7 -10 -14l-59 -49
q-7 -8 -24 -27l-20 -23q-6 -7 -6 -18q8 -21 11 -26.5t6 -10.5q10 -33 10 -61q0 -47 -23 -85q-38 -64 -141 -118q-40 -4 -37 -4q-54 0 -54 59q0 44 45 108l31 44q4 1 30 33q29 36 35 41q-14 29 -18 67q0 47 26 70q1 3 12 26l15 30q5 11 5 18q-1 20 -11 39q-13 24 -30 24
q-12 0 -26 -11q-5 -5 -14 -15t-14 -15q-12 -17 -19 -24q-20 -26 -37 -35q-3 -11 -14 -23t-21 -12q-2 2 -2 4l2 37q1 16 2 17zM172 -182v49q-5 32 -14 33q-23 0 -58 -74q-18 -18 -34 -39q0 -3 -2 -10t-7 -14q-7 -16 -9 -25q2 -8 5 -11l10 -2q61 0 109 93z" />
    <glyph glyph-name="braceleft" unicode="{" horiz-adv-x="332" 
d="M355 664h-50q-20 0 -34.5 -14.5t-16.5 -34.5l-9 -93q-10 -102 -49 -157q-23 -32 -63 -47v-2q60 -21 60 -113q0 -21 -4 -54l-7 -57l-10 -71q12 -54 55 -52l19 1l14 1l-8 -61h-76q-39 0 -61.5 30t-22.5 70l19 158q2 17 2 27q0 84 -64 96l8 53q64 8 87 82q8 26 16 84l8 58
q8 59 16 81q16 43 53 61q30 15 54 15h74z" />
    <glyph glyph-name="bar" unicode="|" 
 />
    <glyph glyph-name="braceright" unicode="}" horiz-adv-x="332" 
d="M-14 -29h49q20 0 36.5 15t16.5 35l16 106l3 30q0 121 104 159v2q-9 3 -18 9t-20 17q-17 17 -25 56q0 10 -2 16q0 10 13 94q11 71 11 105q0 41 -46 46l-42 5l10 59h76q16 0 29 -6q16 -9 27 -19q26 -24 26 -73q0 -5 -12 -95q-11 -83 -11 -91q0 -37 15 -64q19 -33 53 -33
l-8 -53q-65 -14 -87 -83q-12 -38 -16 -70l-8 -70q0 -30 -17 -75q-31 -83 -110 -83h-70z" />
    <glyph glyph-name="asciitilde" unicode="~" 
 />
    <glyph glyph-name="exclamdown" horiz-adv-x="426" 
d="M63 -33l-13 -1l-15 -1q-26 -2 -45 13.5t-19 41.5q0 38 29 78q14 20 37 45l26 29l50 60q16 20 35 43q7 15 16 27l38 47q14 16 30 38l41 61q57 85 57 116q-5 28 -92 38q-42 5 -49 9q-21 -3 -69 -3q-52 0 -59 -1q-11 0 -13 18q4 38 18 47q5 53 71 53q33 0 41 -8q4 1 11 2h18
q30 0 87 -12l38 -8q2 0 27 -11.5t30 -13.5q50 -39 50 -90q0 -37 -13 -61q-21 -67 -78 -105q-7 -14 -18 -30q-3 -4 -9 -12.5t-12 -15.5l-52 -61q-2 -6 -7 -12l-15 -15l-19 -18q-9 -26 -40 -58l-21 -22q0 -9 -7 -16l-19 -24q-30 -38 -30 -56h6l20 -1l12 -1q8 4 15 4q5 0 24 -6
q11 7 40 13l66 13q23 5 54 19q4 1 34 16q22 11 34 11t12 -31q0 -26 -25 -36l-27 -11l-22 -7q-9 -11 -37 -21q-32 -13 -41 -19q-44 -23 -124 -39zM145 881q-13 -4 -15 -22l1 -8q6 -16 19 -26q1 0 29 -17q25 -14 34 -27q5 -1 13 -5q2 -2 10 -7q14 -10 20 -10q15 0 43 20
q6 5 39 19q27 12 34 22q17 11 17 43q0 14 -8 18l-37 -18q-32 -16 -47 -18q-34 -25 -46 -25q-10 0 -26 13q-19 14 -25 16q-13 4 -32 17q-10 7 -23 15z" />
    <glyph glyph-name="cent" 
 />
    <glyph glyph-name="sterling" horiz-adv-x="1" 
d="M160 295q-13 -4 -15 -22l1 -8q6 -16 19 -26q1 0 29 -17q25 -14 34 -27q5 -1 13 -5q2 -2 10 -7q14 -10 20 -10q15 0 43 20q6 5 39 19q27 12 34 22q17 11 17 43q0 14 -8 18l-37 -18q-32 -16 -47 -18q-34 -25 -46 -25q-10 0 -26 13q-19 14 -25 16q-13 4 -32 17q-10 7 -23 15
z" />
    <glyph glyph-name="plusminus" 
 />
    <glyph glyph-name="twosuperior" 
 />
    <glyph glyph-name="threesuperior" 
 />
    <glyph glyph-name="acute" horiz-adv-x="277" 
d="M78 441q-13 4 -15 22l1 8q6 16 19 26q1 0 29 17q25 14 34 27q5 1 13 5q2 2 10 7q14 10 20 10q15 0 43 -20q6 -5 39 -19q27 -12 34 -22q17 -11 17 -43q0 -14 -8 -18l-37 18q-32 16 -47 18q-34 25 -46 25q-10 0 -26 -13q-19 -14 -25 -16q-13 -4 -32 -17q-10 -7 -23 -15z
" />
    <glyph glyph-name="Atilde" horiz-adv-x="297" 
d="M-7 78q-3 8 -2 21l2 45q8 5 21 20.5t24 20.5q3 8 23 32q13 16 30 27q9 19 21 25q41 0 61 -29q3 -36 19 -108q8 -23 30 -27l13 4q10 5 24 10q3 9 15.5 19t21.5 12l-2 -62q-24 -48 -110 -69l-21 6q-35 16 -47 50l-8 22q-4 3 -15 25t-20 22q-10 0 -25 -16l-28 -29
q-10 -4 -27 -21z" />
    <glyph glyph-name="Atilde" unicode="&#x131;" horiz-adv-x="297" 
d="M-7 78q-3 8 -2 21l2 45q8 5 21 20.5t24 20.5q3 8 23 32q13 16 30 27q9 19 21 25q41 0 61 -29q3 -36 19 -108q8 -23 30 -27l13 4q10 5 24 10q3 9 15.5 19t21.5 12l-2 -62q-24 -48 -110 -69l-21 6q-35 16 -47 50l-8 22q-4 3 -15 25t-20 22q-10 0 -25 -16l-28 -29
q-10 -4 -27 -21z" />
    <glyph glyph-name="Adieresis" horiz-adv-x="332" 
d="M-6 148q7 10 15.5 21.5t20.5 23.5q26 28 36 43l45 53q23 39 49 39q45 0 70 -40q22 -35 22 -83t-20 -68q-2 -8 -19 -32l-20 -28q-5 -10 -5 -24q2 -17 7 -26l4 -4q6 0 14.5 7.5t19.5 19.5l13 14q27 29 51 51l22 29l14 17q2 3 5 3q6 0 6 -29v-33q-3 -7 -10 -14l-59 -49
q-7 -8 -24 -27l-20 -23q-6 -7 -6 -18q8 -21 11 -26.5t6 -10.5q10 -33 10 -61q0 -47 -23 -85q-38 -64 -141 -118q-40 -4 -37 -4q-54 0 -54 59q0 44 45 108l31 44q4 1 30 33q29 36 35 41q-14 29 -18 67q0 47 26 70q1 3 12 26l15 30q5 11 5 18q-1 20 -11 39q-13 24 -30 24
q-12 0 -26 -11q-5 -5 -14 -15t-14 -15q-12 -17 -19 -24q-20 -26 -37 -35q-3 -11 -14 -23t-21 -12q-2 2 -2 4l2 37q1 16 2 17zM172 -182v49q-5 32 -14 33q-23 0 -58 -74q-18 -18 -34 -39q0 -3 -2 -10t-7 -14q-7 -16 -9 -25q2 -8 5 -11l10 -2q61 0 109 93zM47 502
q-13 -4 -15 -22l1 -8q6 -16 19 -26q1 0 29 -17q25 -14 34 -27q5 -1 13 -5q2 -2 10 -7q14 -10 20 -10q15 0 43 20q6 5 39 19q27 12 34 22q17 11 17 43q0 14 -8 18l-37 -18q-32 -16 -47 -18q-34 -25 -46 -25q-10 0 -26 13q-19 14 -25 16q-13 4 -32 17q-10 7 -23 15z" />
    <glyph glyph-name="Aring" horiz-adv-x="443" 
d="M104 -18q0 57 27 92q6 43 17 65q12 19 17 34q5 22 5 28q-21 12 -52 78l-20 43l-11 38l-14 59q-18 76 -18 134q-6 0 -10 29l-4 29l4 25q3 16 10 24t19 8q8 2 10 2q21 12 37 12q14 0 25.5 -16t11.5 -29q0 -17 -2 -50t-2 -50q0 -42 16 -103l5 -36q3 -24 7 -40q1 -4 6 -23
q8 -30 21 -46q9 2 18 21l32 69q13 27 30 59q12 47 52 116q6 11 29 49q16 29 32 59q27 45 41 45q10 -3 20 -18q0 -125 -53 -207q0 -31 -19 -50q0 -7 -34 -51l-21 -38q-21 -38 -29 -48q-5 -14 -17 -40l-19 -40q-12 -29 -37 -76q0 -10 -10 -51q-11 -45 -11 -63l3 -5l5 -9l2 -7
q-3 -11 -14.5 -20.5t-22.5 -10.5q-5 -14 -36 -14q-14 0 -30 5.5t-16 17.5zM334 742q-11 0 -22 11t-12 22q3 18 14 26q16 29 41 29q6 0 18 -5t17.5 -5t10.5 -5q0 -2 1.5 -9.5t1.5 -10.5q0 -25 -6 -31l-9 -5q-7 -3 -10.5 -6t-9.5 -13q-4 4 -18 4h-11q-2 0 -6 -2zM181 740
q-25 15 -25 41q0 17 18 33t35 16q18 0 33 -10q14 0 14 -29v-21q0 -4 -15.5 -12.5t-18.5 -15.5h-15z" />
    <glyph glyph-name="Aring" unicode="&#x178;" horiz-adv-x="443" 
d="M104 -18q0 57 27 92q6 43 17 65q12 19 17 34q5 22 5 28q-21 12 -52 78l-20 43l-11 38l-14 59q-18 76 -18 134q-6 0 -10 29l-4 29l4 25q3 16 10 24t19 8q8 2 10 2q21 12 37 12q14 0 25.5 -16t11.5 -29q0 -17 -2 -50t-2 -50q0 -42 16 -103l5 -36q3 -24 7 -40q1 -4 6 -23
q8 -30 21 -46q9 2 18 21l32 69q13 27 30 59q12 47 52 116q6 11 29 49q16 29 32 59q27 45 41 45q10 -3 20 -18q0 -125 -53 -207q0 -31 -19 -50q0 -7 -34 -51l-21 -38q-21 -38 -29 -48q-5 -14 -17 -40l-19 -40q-12 -29 -37 -76q0 -10 -10 -51q-11 -45 -11 -63l3 -5l5 -9l2 -7
q-3 -11 -14.5 -20.5t-22.5 -10.5q-5 -14 -36 -14q-14 0 -30 5.5t-16 17.5zM334 742q-11 0 -22 11t-12 22q3 18 14 26q16 29 41 29q6 0 18 -5t17.5 -5t10.5 -5q0 -2 1.5 -9.5t1.5 -10.5q0 -25 -6 -31l-9 -5q-7 -3 -10.5 -6t-9.5 -13q-4 4 -18 4h-11q-2 0 -6 -2zM181 740
q-25 15 -25 41q0 17 18 33t35 16q18 0 33 -10q14 0 14 -29v-21q0 -4 -15.5 -12.5t-18.5 -15.5h-15z" />
    <glyph glyph-name="AE" unicode="&#xa0;" horiz-adv-x="122" 
 />
    <glyph glyph-name="Ccedilla" unicode="&#xa1;" horiz-adv-x="332" 
d="M47 -324q-8 0 -12.5 6t-5.5 19q0 19 9 58q11 51 13 61q0 89 34 218q15 57 15 95q6 11 11 32q1 6 4 39l2 26q9 17 28 36q22 23 37 23q6 0 6 -16q0 -30 -4 -50l2 -10q0 -4 2 -10l-1 -19q-1 -17 -11 -47v-14q0 -17 -5 -70l-5 -53q-12 -32 -16 -78l4 -22l7 -2q3 0 9 -2v-5
q0 -19 -7 -57t-7 -57q0 -48 -41 -56q-9 -13 -32 -29t-36 -16zM152 330q-20 5 -22 6q-8 4 -13 18q4 28 4 31q0 23 5 31t26 8q36 6 45 6q26 0 26 -45v-2q-18 -38 -61 -57z" />
    <glyph glyph-name="Egrave" unicode="&#xa2;" horiz-adv-x="465" 
d="M57 45q0 17 -3 29q0 2 -4 9l-1 3q0 23 9 40q4 7 11 19q15 18 35 46q11 16 85 69q0 52 8 60q0 43 47 43h6l-8 -29q-4 -14 -6 -33l2 -4v-2l13 10q14 9 22 11q17 12 28 12q12 6 19 6q24 0 24 -21v-10q0 -20 -2 -28l-12 -11l-16 -12q-7 -12 -52 -37q-4 -10 -33 -27
q-3 -5 -7.5 -41t-8.5 -42v-1q2 -4 2 -8v-15q-3 -9 -3 -13q-3 -19 -3 -29q42 0 82 31q15 0 38 13l26 15q12 0 12 -10q0 -30 -47 -60q-25 -16 -31 -22q-36 -23 -59 -33l-14 -4l-11 -4q-4 -4 -7 -24.5t-6 -26.5q-3 -10 -14 -10q-6 0 -12 16q3 4 3 45h-13q-35 0 -63 22.5
t-36 57.5zM186 156q-6 0 -9 -5l-5 -6q-25 -13 -25 -49q0 -26 9 -37.5t22 -19.5q0 13 1 16q0 -2 3 17q4 23 4 33l-4 10q0 7 2 20.5t2 20.5z" />
    <glyph glyph-name="Eacute" unicode="&#xa3;" horiz-adv-x="537" 
d="M100 -6q-10 0 -30 14q-16 15 -25 15q-5 13 -25 40q-7 8 -19 25q-24 35 -24 55q22 48 39 48q3 -1 9.5 -2t22.5 -9l32 -22q31 -21 49 -21q6 3 14.5 22.5t14.5 24.5q0 13 6 39t6 39h-29q-25 0 -110 -20q-8 8 -11 14l6 24q2 13 17 42q39 18 72 18l5 -7q1 -1 5 -3l8 -2
q47 5 55 14q2 10 3 13q3 14 8 40v9q7 13 12 47t14 49q0 51 35 131q0 21 12 30.5t31 16.5q25 19 41 19q45 0 45 -90q0 -34 -4 -46q4 -10 5 -32l1 -23v-20q1 -2 9 -12t8 -15q-11 -32 -64 -51q-2 1 -5 3t-4 2q-3 4 -4 8l-3 9q6 17 6 29q0 14 -4 18q2 6 2 13l-2 90q0 8 -8 8
t-10 -11q-3 -7 -5 -28l-2 -20q-34 -146 -41 -170l4 -7l3 -2l8 -2l16 3l17 3l12 1q44 2 121 10q4 0 4 -11q0 -22 -37 -43q-2 -1 -5 -4l-3 -4q-5 -1 -18 -4t-31 -6l-67 -10q-29 -4 -42 -10q-8 -15 -12 -34l-8 -42q-3 -15 -11 -29q-2 -8 -12 -38q-8 -23 -8 -38q5 -5 7 -6
q17 -16 57 -41q19 -8 44 -8q15 0 43 6q59 27 95 84l14 22q7 15 22 31q10 11 19 11q6 0 6 -5l-8 -22l-8 -26q-4 -8 -4 -27l-54 -71q-57 -75 -127 -75q-79 0 -158 56q-6 0 -13 -4l-5 -5q-5 -5 -7 -6l-10 -10z" />
    <glyph glyph-name="Ecircumflex" unicode="&#xa4;" 
 />
    <glyph glyph-name="Edieresis" unicode="&#xa5;" horiz-adv-x="443" 
d="M262 0q-92 -35 -188 -35q-13 0 -19.5 2t-11.5 15v18q-15 0 -20 2.5t-8 15.5q2 4 2 9v41q0 36 8 90q9 71 11 90l2 24l2 18l5 19v19q3 12 6 31.5t8 50.5q3 26 12 79q19 88 62 126q74 67 129 86q9 3 41 6l23 2q25 2 28 2l35 -2h15q7 -2 19 -8q5 -3 11.5 -8t6.5 -25
q0 -4 -1 -10.5t-2 -16.5l-2 -16q0 -16 -5.5 -21.5t-24.5 -11.5l-8 2q-36 15 -80 15q-15 0 -44 -4.5t-44 -4.5q-21 0 -39 -40l-10 -29l0.5 -3t1.5 -5q0 -11 -3 -21.5t-10 -27.5l-7 -23q-7 -24 -18 -68q-7 -29 -7 -49q12 0 29.5 17t27.5 20l20 7l31 10q7 2 22 3l38 2l38 2
q49 0 49 -45q0 -51 -14 -51q-67 7 -113 6q-7 0 -58 -11l-42 -9q-45 -10 -52 -49q-2 -12 -10 -51l-12 -62q-5 -26 -5 -47q1 -3 1 -17h12q1 0 4 -1.5l5 -2.5q9 4 41 4q125 0 221 54q6 2 14 4q13 0 13 -19q0 -37 -76 -75q-1 -1 -60 -23zM187 745q-13 4 -15 22l1 8q6 16 19 26
q1 0 29 17q25 14 34 27q5 1 13 5q2 2 10 7q14 10 20 10q15 0 43 -20q6 -5 39 -19q27 -12 34 -22q17 -11 17 -43q0 -14 -8 -18l-37 18q-32 16 -47 18q-34 25 -46 25q-10 0 -26 -13q-19 -14 -25 -16q-13 -4 -32 -17q-10 -7 -23 -15z" />
    <glyph glyph-name="Igrave" unicode="&#xa6;" horiz-adv-x="387" 
d="M314 0v711h55v-711h-55z" />
    <glyph glyph-name="Iacute" unicode="&#xa7;" 
 />
    <glyph glyph-name="Icircumflex" unicode="&#xa8;" horiz-adv-x="277" 
d="M266 449q-11 0 -22 11t-12 22q3 18 14 26q16 29 41 29q6 0 18 -5t17.5 -5t10.5 -5q0 -2 1.5 -9.5t1.5 -10.5q0 -25 -6 -31l-9 -5q-7 -3 -10.5 -6t-9.5 -13q-4 4 -18 4h-11q-2 0 -6 -2zM113 447q-25 15 -25 41q0 17 18 33t35 16q18 0 33 -10q14 0 14 -29v-21
q0 -4 -15.5 -12.5t-18.5 -15.5h-15z" />
    <glyph glyph-name="Idieresis" unicode="&#xa9;" horiz-adv-x="801" 
d="M400 -23q-138 0 -243 97q-109 101 -109 256q0 96 45 175.5t128.5 129t178.5 49.5q94 0 175.5 -47.5t130 -128.5t48.5 -176v-2q0 -156 -112 -258q-104 -95 -242 -95zM523 400q-13 50 -52 72q-25 14 -61 14q-89 0 -120 -80q-15 -39 -15 -76q0 -63 35 -108q38 -48 100 -48
q97 0 113 90h63q-20 -97 -98 -135q-33 -16 -78 -16q-92 0 -150 64q-56 61 -56 153q0 144 109 195q47 22 97 22q44 0 81 -17q57 -26 84 -88q11 -25 11 -42h-63zM400 43q117 0 199 85.5t82 201.5q0 161 -138 247q-64 40 -143 40q-76 0 -140.5 -39.5t-101.5 -107.5t-37 -140
q0 -76 36.5 -142.5t100.5 -105.5t142 -39z" />
    <glyph glyph-name="Eth" unicode="&#xaa;" horiz-adv-x="266" 
d="M35 486l-2 8l-3 10q23 107 72 135q0 4 6 8l20 15l17 12l31 24q35 27 62 27l9 -2q7 -2 12 -6t5 -6q-2 -11 -9 -17.5t-12 -7.5l-7 -4l-19 -21q-23 -26 -38 -32q-12 -18 -29 -24q-2 -3 -16 -17l-22 -22l-8 -17q13 0 28 11l14 10q8 18 36 30q5 7 17 16l22 17h15q9 0 10.5 -4
t3.5 -15l4 -16l-4 -18q3 -14 7.5 -19t15.5 -10q17 4 34 19q1 0 1.5 -1.5t0.5 -2.5v-7q2 -2 2 -8l-4 -8q0 -15 -20 -28t-37 -15q-2 1 -19 3q-12 1 -22 13t-10 35q0 10 -4 10q-6 0 -27 -20q-64 -62 -107 -66q-13 3 -26 11z" />
    <glyph glyph-name="Ntilde" unicode="&#xab;" horiz-adv-x="537" 
d="M270 10l-41 -13l-45 -15q-15 -5 -38 -5q-82 0 -109 92q-12 41 -12 79q0 1 -0.5 2.5t-1.5 1.5q8 32 8 82q0 6 4 17t4 17q0 23 -6 23q-4 0 -4 -6q-1 -16 -19 -21q-12 5 -12 11l4 25q5 31 16 50q35 61 69 153q13 34 35 86q15 34 34 67l28 20q17 0 17 -22q0 -14 -15 -47
q0 -6 -4 -15q0 -4 4 -8q15 5 15 14q11 20 51 39q14 22 31 28q2 1 5.5 2t4.5 1l21 4q4 0 13 6t13 6q74 -14 130.5 -85t56.5 -148q0 -89 -32 -174q-33 -88 -92 -150l-47 -44q-27 -25 -44 -37t-42 -36zM316 125q32 26 58 59.5t35 73.5q6 19 13 27q16 47 16 92q0 23 -9 61
q-18 76 -68 111q-27 19 -64 19q-79 -7 -147 -93l-27 -152q-4 -22 -4 -65v-12q0 -6 -2 -17q-2 -22 -2 -30q10 -62 17 -84q19 -52 57 -52q43 0 67 17q9 4 30 21zM236 685q-13 4 -15 22l1 8q6 16 19 26q1 0 29 17q25 14 34 27q5 1 13 5q2 2 10 7q14 10 20 10q15 0 43 -20
q6 -5 39 -19q27 -12 34 -22q17 -11 17 -43q0 -14 -8 -18l-37 18q-32 16 -47 18q-34 25 -46 25q-10 0 -26 -13q-19 -14 -25 -16q-13 -4 -32 -17q-10 -7 -23 -15z" />
    <glyph glyph-name="Ograve" unicode="&#xac;" horiz-adv-x="514" 
d="M12 264h478v-264h-45v221h-433v43z" />
    <glyph glyph-name="Oacute" unicode="&#xad;" 
 />
    <glyph glyph-name="Ocircumflex" unicode="&#xae;" horiz-adv-x="801" 
d="M266 533h158q139 0 139 -117q0 -48 -29 -77t-77 -34l115 -180h-68l-108 178h-64v-178h-66v408zM332 480v-123h104q40 0 53 33q5 13 5 26q0 41 -28 54q-18 8 -66 9zM400 -23q-75 0 -144 31q-95 43 -151.5 129.5t-56.5 190.5q0 148 102 252t250 104q96 0 177.5 -47
t129 -130.5t47.5 -178.5q0 -69 -26 -132q-54 -130 -189 -190q-66 -29 -139 -29zM400 43q87 0 157 51q28 20 43 36q39 40 60 92t21 106q0 119 -82 204t-199 85q-78 0 -143.5 -40t-100.5 -108.5t-35 -140.5q0 -79 43 -151q56 -94 158 -123q38 -11 78 -11z" />
    <glyph glyph-name="Otilde" unicode="&#xaf;" 
 />
    <glyph glyph-name="Odieresis" unicode="&#xb0;" 
 />
    <glyph glyph-name="multiply" unicode="&#xb1;" horiz-adv-x="537" 
d="M270 10l-41 -13l-45 -15q-15 -5 -38 -5q-82 0 -109 92q-12 41 -12 79q0 1 -0.5 2.5t-1.5 1.5q8 32 8 82q0 6 4 17t4 17q0 23 -6 23q-4 0 -4 -6q-1 -16 -19 -21q-12 5 -12 11l4 25q5 31 16 50q35 61 69 153q13 34 35 86q15 34 34 67l28 20q17 0 17 -22q0 -14 -15 -47
q0 -6 -4 -15q0 -4 4 -8q15 5 15 14q11 20 51 39q14 22 31 28q2 1 5.5 2t4.5 1l21 4q4 0 13 6t13 6q74 -14 130.5 -85t56.5 -148q0 -89 -32 -174q-33 -88 -92 -150l-47 -44q-27 -25 -44 -37t-42 -36zM316 125q32 26 58 59.5t35 73.5q6 19 13 27q16 47 16 92q0 23 -9 61
q-18 76 -68 111q-27 19 -64 19q-79 -7 -147 -93l-27 -152q-4 -22 -4 -65v-12q0 -6 -2 -17q-2 -22 -2 -30q10 -62 17 -84q19 -52 57 -52q43 0 67 17q9 4 30 21zM561 625l8 33q0 1 1 5q0 1 1 4v6q3 11 25 18q1 0 3 1h4h4q5 0 19 -6.5t14 -11.5q0 -3 -6 -26q-2 -7 -18 -48
l-19 -48q-6 -21 -23 -60q-10 -19 -38 -32h-5l-2 2q0 12 18 84l8 32v27q0 14 6 20z" />
    <glyph glyph-name="Oslash" unicode="&#xb2;" horiz-adv-x="289" 
d="M55 277q-19 4 -24.5 11t-9.5 28q0 15 62 93q19 23 60 73q9 12 37 57q13 21 13 41t-26 32q-22 11 -44 11q-62 0 -62 -49l-6 -7l-6 -4q-21 0 -24 50l2 16l2 14q3 24 34 36q24 10 52 10q44 0 79 -18q42 -21 48 -60q0 -56 -52 -130l-36 -51q-25 -29 -60 -90q13 -9 40 -11
l18 -1q7 0 58 2l40 2q8 0 8 -6q0 -12 -26.5 -25.5t-40.5 -13.5q-23 -16 -101 -16l-21 3z" />
    <glyph glyph-name="Ugrave" unicode="&#xb3;" horiz-adv-x="277" 
d="M-2 260q-2 2 -2 6q0 14 33 29l18 8l50 30l55 32q8 6 25 18q11 11 11 15q-1 4 -46 15q-27 8 -54 15q-22 8 -24 23q0 20 15.5 36.5t54.5 66.5q44 56 44 63q0 6 -24 6q-19 0 -49 -6q-7 -3 -26 -8q-15 -3 -46 -9l-6 4q-7 2 -7 17q12 47 29 59q9 5 38 11q41 8 63 8h22
q42 0 60 -4q28 -6 36 -21l1 -7l1 -13l-1 -7l-1 -6q-2 -12 -32 -50l-54 -68q-28 -35 -28 -44q5 -7 42 -22q47 -20 49 -21q20 -10 28 -34v-13q0 -33 -58.5 -74t-148.5 -65l-29 4q-9 0 -21 -4q-17 3 -18 10z" />
    <glyph glyph-name="Uacute" unicode="&#xb4;" horiz-adv-x="232" 
d="M-181 855q13 -4 15 -22l-1 -8q-6 -16 -19 -26q-1 0 -27.5 -15.5t-35.5 -28.5q-5 -1 -13 -5q-2 -2 -10 -7q-14 -10 -20 -10q-15 0 -43 20q-6 5 -39 19q-27 12 -34 22q-17 11 -17 43q0 14 8 18l37 -18q32 -16 47 -18q34 -25 46 -25q10 0 27.5 13.5t23.5 15.5q13 4 32 17
q10 7 23 15z" />
    <glyph glyph-name="Ucircumflex" unicode="&#xb5;" horiz-adv-x="443" 
d="M-6 145q8 12 31 33t31 35q12 21 33 47t36 54q4 7 21 18q18 8 28 8q20 0 20 -24q0 -15 -11 -43q-14 -35 -16 -44q-8 -22 -14 -62q-5 -32 -5 -54q5 -40 12 -41q4 2 6 4t10 7q14 11 29.5 28.5t49.5 66.5q31 44 51 64q8 8 22 8q24 0 31 -13.5t7 -42.5q0 -24 7 -45
q5 -14 23 -18q11 0 21 6l20 15l14 10q6 0 6 -43q0 -30 -39 -50q-29 -15 -66 -20l-18 4q-30 11 -39 37l-5 15l-6 17q-2 5 -5 5q-4 -1 -27 -31q-25 -33 -29 -37l-23 -22l-28 -26q-14 -11 -22 -15l-6 -1l-7 -1l-8 4l-6 4l-8 -47v-45q-2 -16 -6 -70q-2 -36 -14 -87
q-11 -46 -34 -83q-8 -12 -26 -12q-38 0 -38 86q0 74 57 213l9 22l6 9q-3 19 -5 57l-3 49q-1 12 -2 17v16q0 6 -4 6q-7 0 -35 -26l-14 -13q-10 -10 -14 -10q-1 3 -2 9v16q0 32 4 36z" />
    <glyph glyph-name="Udieresis" unicode="&#xb6;" horiz-adv-x="494" 
d="M31 484q0 82 59 135q52 47 152 47h229v-31h-47v-735h-41v735h-110v-735h-41v411q-25 0 -43 3q-48 8 -85 32q-33 21 -53 59.5t-20 78.5z" />
    <glyph glyph-name="Yacute" unicode="&#xb7;" horiz-adv-x="465" 
d="M96 -16l4 18l5 25l6 19q3 11 6.5 17.5t6.5 8.5t3 6q0 22 10 35q-17 0 -48 -5l-55 -9q-31 -5 -48 -5q-9 0 -9 10q0 22 20.5 42.5t43.5 19.5l51 -2q4 0 33 6l37 8q8 26 8 66q0 8 -4 8h-12q-36 0 -129 -18l-5 -2q-14 2 -14 18q6 24 23.5 40.5t40.5 16.5h49q10 2 16 2
q-5 15 -24 43q-11 16 -28 43q-9 15 -9 33l-6 24l-6 18l-14 43q-5 15 -5 38q-1 1 -4 8l-4 33l-2 35q0 5 10.5 17.5t15.5 15.5q1 1 2.5 1.5t2.5 1t7 0.5l9 1l13 6.5t14 5.5q11 0 25 -13t14 -22q0 -16 -2.5 -47t-2.5 -47q0 -49 19 -106l7 -21l9 -30q2 -6 4 -29q0 -12 8.5 -25.5
t20.5 -15.5q11 8 21 24l19 31q7 12 17 16l30 56l36 62l32 59q25 46 25 55q6 19 22 41q18 26 30 35l4 2q7 0 18 -17v-55q-1 -10 -5 -23l-5 -6q0 -19 -6 -30l-21 -38q-14 -25 -18 -38q-12 -37 -41 -78q-22 -28 -62 -86q2 0 4 -2q21 3 60 18q13 5 34 5q28 0 40 4q8 0 8 -9
q0 -15 -17.5 -34t-33.5 -23l-57 -8q-28 -3 -68 -10l-21 -51q-2 -12 -8 -32l12 1q13 0 36 3l83 18q14 3 37 3h2q4 0 4 -12q0 -25 -45 -45l-2 -4l-2 -2q-18 -4 -107 -15q-37 -8 -39 -10.5t-16 -39.5q-10 -27 -10 -46l2 -10q12 -16 12 -19q0 -20 -63 -45h-13q-35 0 -41 19z" />
    <glyph glyph-name="Yacute" unicode="&#x2219;" horiz-adv-x="465" 
d="M96 -16l4 18l5 25l6 19q3 11 6.5 17.5t6.5 8.5t3 6q0 22 10 35q-17 0 -48 -5l-55 -9q-31 -5 -48 -5q-9 0 -9 10q0 22 20.5 42.5t43.5 19.5l51 -2q4 0 33 6l37 8q8 26 8 66q0 8 -4 8h-12q-36 0 -129 -18l-5 -2q-14 2 -14 18q6 24 23.5 40.5t40.5 16.5h49q10 2 16 2
q-5 15 -24 43q-11 16 -28 43q-9 15 -9 33l-6 24l-6 18l-14 43q-5 15 -5 38q-1 1 -4 8l-4 33l-2 35q0 5 10.5 17.5t15.5 15.5q1 1 2.5 1.5t2.5 1t7 0.5l9 1l13 6.5t14 5.5q11 0 25 -13t14 -22q0 -16 -2.5 -47t-2.5 -47q0 -49 19 -106l7 -21l9 -30q2 -6 4 -29q0 -12 8.5 -25.5
t20.5 -15.5q11 8 21 24l19 31q7 12 17 16l30 56l36 62l32 59q25 46 25 55q6 19 22 41q18 26 30 35l4 2q7 0 18 -17v-55q-1 -10 -5 -23l-5 -6q0 -19 -6 -30l-21 -38q-14 -25 -18 -38q-12 -37 -41 -78q-22 -28 -62 -86q2 0 4 -2q21 3 60 18q13 5 34 5q28 0 40 4q8 0 8 -9
q0 -15 -17.5 -34t-33.5 -23l-57 -8q-28 -3 -68 -10l-21 -51q-2 -12 -8 -32l12 1q13 0 36 3l83 18q14 3 37 3h2q4 0 4 -12q0 -25 -45 -45l-2 -4l-2 -2q-18 -4 -107 -15q-37 -8 -39 -10.5t-16 -39.5q-10 -27 -10 -46l2 -10q12 -16 12 -19q0 -20 -63 -45h-13q-35 0 -41 19z" />
    <glyph glyph-name="Thorn" unicode="&#xb8;" 
d="M-35 563q13 -4 15 -22l-1 -8q-6 -16 -19 -26q-1 0 -27.5 -15.5t-35.5 -28.5q-5 -1 -13 -5q-2 -2 -10 -7q-14 -10 -20 -10q-15 0 -43 20q-6 5 -39 19q-27 12 -34 22q-17 11 -17 43q0 14 8 18l37 -18q32 -16 47 -18q34 -25 46 -25q10 0 27.5 13.5t23.5 15.5q13 4 32 17
q10 7 23 15z" />
    <glyph glyph-name="germandbls" unicode="&#xb9;" horiz-adv-x="240" 
d="M113 256q-2 -1 -25 -6q-18 5 -18 10q0 15 14 49l16 39q6 21 26 97q23 86 23 141l1 10h-4l-3 -3q-3 -3 -5 -4q-5 -5 -11 -9q-15 -6 -78 -57l-16 -13l-13 -11q-8 -5 -10 -5q0 1 -0.5 2t-1.5 2.5t-4 7.5l4 17l2 10q5 10 32 36l63 61q34 33 73 59q11 7 19.5 9.5t15.5 2.5
q12 0 28.5 -8t16.5 -19q-6 -68 -51 -215q-28 -92 -33 -119q-9 -28 -20 -39q0 -16 -41 -45z" />
    <glyph glyph-name="agrave" unicode="&#xba;" horiz-adv-x="266" 
d="M204 564q1 7 4 12.5t10 15.5q0 29 -25 29q-13 0 -19 -6l-20 -20q-6 -4 -13 -5q-17 -13 -21 -49l3 -10q1 -2 4 -4l10 -4q27 3 67 41zM58 533q0 29 14 67q12 33 33 54q1 0 10 7l18 18l23 22q29 0 29 -12q-8 -5 -8 -15q21 8 48 8q50 0 50 -53q0 -26 -11 -56t-34 -38
q-7 -16 -19 -19q-15 -25 -80 -41q-16 0 -29 4q-38 5 -44 54z" />
    <glyph glyph-name="aacute" unicode="&#xbb;" horiz-adv-x="631" 
d="M311 27q-20 -13 -41 -13q-13 0 -20.5 6t-7.5 17q0 6 4 9l20 17q9 4 27 23q17 16 31 21q6 10 27 33q38 42 38 69q0 33 -33 92l-22 39q0 12 22 20q18 7 33 7l8 -1l5 -1q23 -16 45 -66l18 -41q10 -23 10 -47q0 -18 -8 -33q-4 -15 -12 -22l-25 -22q-18 -16 -22 -25
q-14 -9 -50.5 -43t-46.5 -39zM143 27q-20 -13 -38 -13q-24 0 -31 17q0 16 20 32q5 3 15 11l20 16q19 15 27 15q6 11 27 36q5 5 15 17.5t15 17.5q8 13 10 27q0 34 -19 70q-8 14 -17 30l-21 35q0 4 -2 4q14 25 57 25q22 0 46 -40l12 -20q4 -6 8 -22t10 -29q10 -20 10 -41
q0 -35 -21 -60l-25 -22q-16 -14 -21 -24q-15 -10 -33 -27l-33 -32q-17 -17 -31 -23z" />
    <glyph glyph-name="acircumflex" unicode="&#xbc;" horiz-adv-x="688" 
d="M542 20l4 20q5 25 5 34q0 5 -8 8h-11q-20 -4 -30 -4q-22 0 -36 7t-19 17q-4 3 -6.5 14.5t-2.5 22.5q0 18 5 48l6 36q1 5 16 56l14 47q-4 3 -4 8q3 24 24 46t48 22q3 0 6 -4t4 -7q0 -4 -2 -10q-44 -83 -80 -223q5 -18 20 -22q4 -1 48 -7l18 4l3 19l6 33l8 63q6 43 35 43
l15 -6q11 -7 11 -15q0 -26 -16 -71q-7 -18 -19 -62l4 -2l3 -2q1 0 20 7l17 6q8 0 8 -19q0 -6 -25 -18l-22 -11l-15 -8q-3 -10 -11 -52l-11 -58l-3 -3q-6 -4 -10 -7q-13 -7 -16 -7l-6 16zM137 270q-2 0 -6 -2q-6 5 -6 9q21 38 21 71q7 6 10 18l7 31l5 25q4 12 9 31
q4 14 11 49q2 9 8 54q3 23 3 46l-2 2q-7 0 -86 -69l-16 -14q-7 -7 -19 -15q-9 0 -12 10q1 5 19 41q3 4 11 11l26 25l23 20q52 59 91 90h2q9 0 24 -7.5t15 -15.5q0 -15 -3 -35l-4 -26q-14 -90 -69 -265q-4 -22 -15 -36q0 -9 -17.5 -25.5t-29.5 -22.5zM135 -39q0 90 82 185v2
q15 72 68 165l52 91q6 11 44 88l47 95l19 42l3 14q4 16 21 47q6 8 19 27q1 3 12.5 5.5t13.5 4.5q31 19 43 19q3 0 4 -19v-3q-5 -5 -8 -19l-13 -37l-22 -68q-16 -50 -74 -153l-194 -352l-33 -72q-8 -32 -35 -86q-12 -15 -26 -15q-23 0 -23 39z" />
    <glyph glyph-name="atilde" unicode="&#xbd;" horiz-adv-x="463" 
d="M96 2h4q-25 -14 -35 -14q-46 0 -50 37q0 35 21 80l-3 1l-6 1l-4 -1l-3 -1l-8 -9l-8 -8q-5 3 -6 6q0 7 4 16.5t4 12.5l-2 6q-1 3 -1 10q0 27 59 62l29 34q12 11 33 35q15 13 28 19q11 16 28 32q4 5 33 29l25 21l16 13q4 4 13 10q5 2 11 4q22 50 26 62q10 35 18 56
q-44 1 -87 2q-53 5 -53 21q0 3 2 7q4 12 61 12q45 0 91 -6q12 27 42 88q25 51 57 64h7q22 0 22 -41q0 -39 -16 -70q0 -10 -5 -27q-2 -4 -6 -14q23 1 43 -4t20 -11q0 -2 -1 -3q1 -3 1 -5q0 -15 -75 -11q0 -25 -8 -42q-10 -23 -21 -38q-5 -26 -17 -42q0 -18 -20 -50
q-17 -27 -17 -78q0 -124 70 -131q41 15 63 27q3 0 5 -2l2 -4l-2 -9l-3 -10q1 -1 3 -16l2 -18q-40 -46 -115 -46q-33 6 -58 26.5t-30 55.5q-5 7 -9 26q-3 16 -6 17q-24 0 -49 -57q-26 -31 -80 -93q-18 -19 -39 -32zM222 205l21 34l27 42l2 37q-33 -23 -44 -42l-11 -14
q-24 -24 -60 -81q-39 -62 -39 -85q7 0 18 11l28 29zM243 239z" />
    <glyph glyph-name="adieresis" unicode="&#xbe;" horiz-adv-x="664" 
d="M135 -39q0 90 82 185v2q15 72 68 165l52 91q6 11 44 88l47 95l19 42l3 14q4 16 21 47q6 8 19 27q1 3 12.5 5.5t13.5 4.5q31 19 43 19q3 0 4 -19v-3q-5 -5 -8 -19l-13 -37l-22 -68q-16 -50 -74 -153l-194 -352l-33 -72q-8 -32 -35 -86q-12 -15 -26 -15q-23 0 -23 39z
M70 264q-19 0 -27 9q2 8 21 24q78 43 131 82q14 8 22 25q0 8 -13 12q-5 1 -17 5q-24 7 -64 21q-15 7 -16 17q0 4 -2 6q3 21 16.5 35t47.5 62q38 52 38 61q0 8 -18 8q-48 0 -88 -14l-23 -8q-10 0 -14 16q7 38 29 58t93 20q85 0 85 -45v-8l-1 -7q-1 -10 -15 -27
q-7 -11 -18 -27q-7 -9 -18 -23q-21 -28 -37 -52q-12 -18 -12 -26q33 -17 82 -43q18 -12 21 -33v-16q0 -31 -46 -66q-75 -56 -133 -64q-6 2 -14 2q-2 0 -4.5 -2t-5.5 -2zM517 19q4 28 4 36q0 9 -17 8l-35 -2q-39 -2 -57 23q-5 8 -10 37q0 6 7 48l7 42q0 9 14 51q15 47 17 58
l-7 8q13 32 31 52t45 20q11 0 11 -9q0 -17 -20 -60l-13 -28q-24 -53 -54 -160q6 -18 26 -22q26 -6 50 -8l8 2q3 1 7 2q9 26 12 74q1 16 4 44q12 48 41 48l15 -7q5 -1 7 -3.5t3 -10.5q0 -29 -21 -95l-14 -44l4 -2q1 0 3 -1l1 -1l19 5l20 7q8 0 8 -22l-29 -17q-36 -16 -36 -20
q-5 -14 -14 -64l-9 -51l-3 -3q-2 -2 -10 -7q-14 -8 -16 -8q-8 0 -8 16z" />
    <glyph glyph-name="aring" unicode="&#xbf;" horiz-adv-x="443" 
d="M277 -115l6 4q17 0 55 -55l9 -13l7 -13q3 -6 3 -13q0 -26 -9 -48q-12 -28 -35 -28q-39 0 -115 41q-38 21 -59 29q-31 16 -57 55q-21 31 -21 90q0 64 37 133l40 75q16 29 38 75q11 18 16 24t19 9q8 0 18 3l17 3q6 0 6 -16q0 -20 -18 -56l-11 -22q-59 -118 -59 -197
q0 -27 19 -54t44 -42q26 -25 43 -25q5 0 5 6q0 18 -4 25q4 8 6 10zM363 396q-3 -9 -17.5 -23.5t-17.5 -24.5q-15 -10 -46 -31q-18 -6 -22 -6q-11 1 -31 6q-5 2 -10 11l2 10l2 14l5 11l4 10l6 9q4 6 13.5 15t23.5 15q15 3 51 16l6 1l8 1q19 0 23 -34z" />
    <glyph glyph-name="ae" unicode="&#xc0;" horiz-adv-x="480" 
d="M23 -63q-20 -7 -31 -7q-12 0 -12 25v11q0 3 2 9l5 25l5 20q11 43 14 44q0 16 12 51q11 32 11 43q-7 0 -11 -2q-9 1 -13.5 6.5t-4.5 19.5q0 91 64 91q4 6 14 32q13 34 20 45l9 40q6 28 24 61q10 18 18 55q10 43 15 56q8 21 29 38l4 5q-1 3 -6.5 9.5t-6.5 12.5q8 17 15 24
q14 9 27.5 11t23.5 28q2 5 4 13q10 0 17.5 5.5t9.5 7t9 8.5l18 13q7 5 16 5q10 0 20.5 -7t10.5 -10q-1 -13 -12 -39q-8 -19 -11 -32q0 -7 19 -16q3 -2 6 -3l23 -10q10 -4 16 -12q26 -26 26 -115v-6l-1 -17l-1 -14l4 -13q4 -9 4 -26q0 -20 -4 -51l4 -47q0 -4 6.5 -8t6.5 -11
q0 -16 -3 -19l-16 -15q-1 -2 -1.5 -8t-0.5 -22q0 -26 -2 -34q-5 -15 -5.5 -48t-6.5 -48l4 -17q-6 -8 -11 -39q-5 -34 -10 -43q0 -2 -2 -8q0 -26 -39 -39q-10 0 -10 17l4 145q1 29 -4 76v47h-2q-6 0 -30 -7t-38 -7q-8 0 -53 -15q-23 -8 -39 -15l-35 -16q-9 -4 -32 -4
q-4 -25 -15 -53q-2 -5 -16 -26q0 -1 -2 -3q-8 -58 -19 -75l-4 -6q-3 -24 -14 -58q-9 -27 -16 -28zM340 307v4q4 8 4 37q-3 20 -6 31l4 19q-6 0 -6 34q2 14 2 43l-5 5q-3 5 -5 10q-22 49 -55 49q-19 0 -34 -42l-10 -28q-11 -16 -26 -47q-11 -40 -21 -57l-4 -13q-2 -7 -6 -16
q-24 -31 -24 -47l9 -3l13 -3l5 2.5t5 1.5t8 1l22 3l24 2h24q14 2 21 2q36 12 61 12zM291 864q20 -13 49 -25q36 -15 50 -26q0 -7 -7.5 -14t-13.5 -7l-29 8q-51 14 -73 31q-9 1 -41 19q-35 20 -47 24l-9 15l-8 14q0 6 -2 12l2 13q15 18 37 18h10q31 -49 82 -82z" />
    <glyph glyph-name="ccedilla" unicode="&#xc1;" horiz-adv-x="480" 
d="M23 -63q-20 -7 -31 -7q-12 0 -12 25v11q0 3 2 9l5 25l5 20q11 43 14 44q0 16 12 51q11 32 11 43q-7 0 -11 -2q-9 1 -13.5 6.5t-4.5 19.5q0 91 64 91q4 6 14 32q13 34 20 45l9 40q6 28 24 61q10 18 18 55q10 43 15 56q8 21 29 38l4 5q-1 3 -6.5 9.5t-6.5 12.5q8 17 15 24
q14 9 27.5 11t23.5 28q2 5 4 13q10 0 17.5 5.5t9.5 7t9 8.5l18 13q7 5 16 5q10 0 20.5 -7t10.5 -10q-1 -13 -12 -39q-8 -19 -11 -32q0 -7 19 -16q3 -2 6 -3l23 -10q10 -4 16 -12q26 -26 26 -115v-6l-1 -17l-1 -14l4 -13q4 -9 4 -26q0 -20 -4 -51l4 -47q0 -4 6.5 -8t6.5 -11
q0 -16 -3 -19l-16 -15q-1 -2 -1.5 -8t-0.5 -22q0 -26 -2 -34q-5 -15 -5.5 -48t-6.5 -48l4 -17q-6 -8 -11 -39q-5 -34 -10 -43q0 -2 -2 -8q0 -26 -39 -39q-10 0 -10 17l4 145q1 29 -4 76v47h-2q-6 0 -30 -7t-38 -7q-8 0 -53 -15q-23 -8 -39 -15l-35 -16q-9 -4 -32 -4
q-4 -25 -15 -53q-2 -5 -16 -26q0 -1 -2 -3q-8 -58 -19 -75l-4 -6q-3 -24 -14 -58q-9 -27 -16 -28zM340 307v4q4 8 4 37q-3 20 -6 31l4 19q-6 0 -6 34q2 14 2 43l-5 5q-3 5 -5 10q-22 49 -55 49q-19 0 -34 -42l-10 -28q-11 -16 -26 -47q-11 -40 -21 -57l-4 -13q-2 -7 -6 -16
q-24 -31 -24 -47l9 -3l13 -3l5 2.5t5 1.5t8 1l22 3l24 2h24q14 2 21 2q36 12 61 12zM304 864q-20 -13 -49 -25q-36 -15 -50 -26q0 -7 8 -14t13 -7l29 8q51 14 73 31q9 1 42.5 20t45.5 23l9 15l8 14q0 6 2 12l-2 13q-15 18 -37 18h-10q-31 -49 -82 -82z" />
    <glyph glyph-name="egrave" unicode="&#xc2;" horiz-adv-x="480" 
d="M23 -63q-20 -7 -31 -7q-12 0 -12 25v11q0 3 2 9l5 25l5 20q11 43 14 44q0 16 12 51q11 32 11 43q-7 0 -11 -2q-9 1 -13.5 6.5t-4.5 19.5q0 91 64 91q4 6 14 32q13 34 20 45l9 40q6 28 24 61q10 18 18 55q10 43 15 56q8 21 29 38l4 5q-1 3 -6.5 9.5t-6.5 12.5q8 17 15 24
q14 9 27.5 11t23.5 28q2 5 4 13q10 0 17.5 5.5t9.5 7t9 8.5l18 13q7 5 16 5q10 0 20.5 -7t10.5 -10q-1 -13 -12 -39q-8 -19 -11 -32q0 -7 19 -16q3 -2 6 -3l23 -10q10 -4 16 -12q26 -26 26 -115v-6l-1 -17l-1 -14l4 -13q4 -9 4 -26q0 -20 -4 -51l4 -47q0 -4 6.5 -8t6.5 -11
q0 -16 -3 -19l-16 -15q-1 -2 -1.5 -8t-0.5 -22q0 -26 -2 -34q-5 -15 -5.5 -48t-6.5 -48l4 -17q-6 -8 -11 -39q-5 -34 -10 -43q0 -2 -2 -8q0 -26 -39 -39q-10 0 -10 17l4 145q1 29 -4 76v47h-2q-6 0 -30 -7t-38 -7q-8 0 -53 -15q-23 -8 -39 -15l-35 -16q-9 -4 -32 -4
q-4 -25 -15 -53q-2 -5 -16 -26q0 -1 -2 -3q-8 -58 -19 -75l-4 -6q-3 -24 -14 -58q-9 -27 -16 -28zM340 307v4q4 8 4 37q-3 20 -6 31l4 19q-6 0 -6 34q2 14 2 43l-5 5q-3 5 -5 10q-22 49 -55 49q-19 0 -34 -42l-10 -28q-11 -16 -26 -47q-11 -40 -21 -57l-4 -13q-2 -7 -6 -16
q-24 -31 -24 -47l9 -3l13 -3l5 2.5t5 1.5t8 1l22 3l24 2h24q14 2 21 2q36 12 61 12zM195 756q-13 4 -15 22l1 8q6 16 19 26q1 0 29 17q25 14 34 27q5 1 13 5q2 2 10 7q14 10 20 10q15 0 43 -20q6 -5 39 -19q27 -12 34 -22q17 -11 17 -43q0 -14 -8 -18l-37 18q-32 16 -47 18
q-34 25 -46 25q-10 0 -26 -13q-19 -14 -25 -16q-13 -4 -32 -17q-10 -7 -23 -15z" />
    <glyph glyph-name="eacute" unicode="&#xc3;" horiz-adv-x="480" 
d="M23 -63q-20 -7 -31 -7q-12 0 -12 25v11q0 3 2 9l5 25l5 20q11 43 14 44q0 16 12 51q11 32 11 43q-7 0 -11 -2q-9 1 -13.5 6.5t-4.5 19.5q0 91 64 91q4 6 14 32q13 34 20 45l9 40q6 28 24 61q10 18 18 55q10 43 15 56q8 21 29 38l4 5q-1 3 -6.5 9.5t-6.5 12.5q8 17 15 24
q14 9 27.5 11t23.5 28q2 5 4 13q10 0 17.5 5.5t9.5 7t9 8.5l18 13q7 5 16 5q10 0 20.5 -7t10.5 -10q-1 -13 -12 -39q-8 -19 -11 -32q0 -7 19 -16q3 -2 6 -3l23 -10q10 -4 16 -12q26 -26 26 -115v-6l-1 -17l-1 -14l4 -13q4 -9 4 -26q0 -20 -4 -51l4 -47q0 -4 6.5 -8t6.5 -11
q0 -16 -3 -19l-16 -15q-1 -2 -1.5 -8t-0.5 -22q0 -26 -2 -34q-5 -15 -5.5 -48t-6.5 -48l4 -17q-6 -8 -11 -39q-5 -34 -10 -43q0 -2 -2 -8q0 -26 -39 -39q-10 0 -10 17l4 145q1 29 -4 76v47h-2q-6 0 -30 -7t-38 -7q-8 0 -53 -15q-23 -8 -39 -15l-35 -16q-9 -4 -32 -4
q-4 -25 -15 -53q-2 -5 -16 -26q0 -1 -2 -3q-8 -58 -19 -75l-4 -6q-3 -24 -14 -58q-9 -27 -16 -28zM340 307v4q4 8 4 37q-3 20 -6 31l4 19q-6 0 -6 34q2 14 2 43l-5 5q-3 5 -5 10q-22 49 -55 49q-19 0 -34 -42l-10 -28q-11 -16 -26 -47q-11 -40 -21 -57l-4 -13q-2 -7 -6 -16
q-24 -31 -24 -47l9 -3l13 -3l5 2.5t5 1.5t8 1l22 3l24 2h24q14 2 21 2q36 12 61 12zM208 836q-14 -4 -37 -14l-34 -15l-5 8q1 2 1.5 5.5t0.5 12.5q9 19 32 25q14 10 61 29l49 20h6q29 0 51 -22v-13l-4 -16l3 -4l6 -6q11 2 57 18q21 10 24 11q22 10 33 10q5 0 6 -4
q0 -29 -21 -42q-13 -7 -49 -15t-46 -13l-27 -8l-23 -6l-8 4q-3 3 -14 30q-9 23 -20 23q-10 0 -21 -6z" />
    <glyph glyph-name="ecircumflex" unicode="&#xc4;" horiz-adv-x="480" 
d="M23 -63q-20 -7 -31 -7q-12 0 -12 25v11q0 3 2 9l5 25l5 20q11 43 14 44q0 16 12 51q11 32 11 43q-7 0 -11 -2q-9 1 -13.5 6.5t-4.5 19.5q0 91 64 91q4 6 14 32q13 34 20 45l9 40q6 28 24 61q10 18 18 55q10 43 15 56q8 21 29 38l4 5q-1 3 -6.5 9.5t-6.5 12.5q8 17 15 24
q14 9 27.5 11t23.5 28q2 5 4 13q10 0 17.5 5.5t9.5 7t9 8.5l18 13q7 5 16 5q10 0 20.5 -7t10.5 -10q-1 -13 -12 -39q-8 -19 -11 -32q0 -7 19 -16q3 -2 6 -3l23 -10q10 -4 16 -12q26 -26 26 -115v-6l-1 -17l-1 -14l4 -13q4 -9 4 -26q0 -20 -4 -51l4 -47q0 -4 6.5 -8t6.5 -11
q0 -16 -3 -19l-16 -15q-1 -2 -1.5 -8t-0.5 -22q0 -26 -2 -34q-5 -15 -5.5 -48t-6.5 -48l4 -17q-6 -8 -11 -39q-5 -34 -10 -43q0 -2 -2 -8q0 -26 -39 -39q-10 0 -10 17l4 145q1 29 -4 76v47h-2q-6 0 -30 -7t-38 -7q-8 0 -53 -15q-23 -8 -39 -15l-35 -16q-9 -4 -32 -4
q-4 -25 -15 -53q-2 -5 -16 -26q0 -1 -2 -3q-8 -58 -19 -75l-4 -6q-3 -24 -14 -58q-9 -27 -16 -28zM340 307v4q4 8 4 37q-3 20 -6 31l4 19q-6 0 -6 34q2 14 2 43l-5 5q-3 5 -5 10q-22 49 -55 49q-19 0 -34 -42l-10 -28q-11 -16 -26 -47q-11 -40 -21 -57l-4 -13q-2 -7 -6 -16
q-24 -31 -24 -47l9 -3l13 -3l5 2.5t5 1.5t8 1l22 3l24 2h24q14 2 21 2q36 12 61 12zM360 796q-11 0 -22 11t-12 22q3 18 14 26q16 29 41 29q6 0 18 -5t17.5 -5t10.5 -5q0 -2 1.5 -9.5t1.5 -10.5q0 -25 -6 -31l-9 -5q-7 -3 -10.5 -6t-9.5 -13q-4 4 -18 4h-11q-2 0 -6 -2z
M207 794q-25 15 -25 41q0 17 18 33t35 16q18 0 33 -10q14 0 14 -29v-21q0 -4 -15.5 -12.5t-18.5 -15.5h-15z" />
    <glyph glyph-name="edieresis" unicode="&#xc5;" horiz-adv-x="480" 
d="M23 -63q-20 -7 -31 -7q-12 0 -12 25v11q0 3 2 9l5 25l5 20q11 43 14 44q0 16 12 51q11 32 11 43q-7 0 -11 -2q-9 1 -13.5 6.5t-4.5 19.5q0 91 64 91q4 6 14 32q13 34 20 45l9 40q6 28 24 61q10 18 18 55q10 43 15 56q8 21 29 38l4 5q-1 3 -6.5 9.5t-6.5 12.5q8 17 15 24
q14 9 27.5 11t23.5 28q2 5 4 13q10 0 17.5 5.5t9.5 7t9 8.5l18 13q7 5 16 5q10 0 20.5 -7t10.5 -10q-1 -13 -12 -39q-8 -19 -11 -32q0 -7 19 -16q3 -2 6 -3l23 -10q10 -4 16 -12q26 -26 26 -115v-6l-1 -17l-1 -14l4 -13q4 -9 4 -26q0 -20 -4 -51l4 -47q0 -4 6.5 -8t6.5 -11
q0 -16 -3 -19l-16 -15q-1 -2 -1.5 -8t-0.5 -22q0 -26 -2 -34q-5 -15 -5.5 -48t-6.5 -48l4 -17q-6 -8 -11 -39q-5 -34 -10 -43q0 -2 -2 -8q0 -26 -39 -39q-10 0 -10 17l4 145q1 29 -4 76v47h-2q-6 0 -30 -7t-38 -7q-8 0 -53 -15q-23 -8 -39 -15l-35 -16q-9 -4 -32 -4
q-4 -25 -15 -53q-2 -5 -16 -26q0 -1 -2 -3q-8 -58 -19 -75l-4 -6q-3 -24 -14 -58q-9 -27 -16 -28zM340 307v4q4 8 4 37q-3 20 -6 31l4 19q-6 0 -6 34q2 14 2 43l-5 5q-3 5 -5 10q-22 49 -55 49q-19 0 -34 -42l-10 -28q-11 -16 -26 -47q-11 -40 -21 -57l-4 -13q-2 -7 -6 -16
q-24 -31 -24 -47l9 -3l13 -3l5 2.5t5 1.5t8 1l22 3l24 2h24q14 2 21 2q36 12 61 12zM350 876h-2q0 3 6 12q0 26 -22 26q-9 0 -12 -1l-15 -15q-4 -2 -8.5 -3t-10.5 -16t-6 -26l2 -9l9 -3q24 1 59 35zM246 795v7q-15 7 -18 41q0 19 2 27q3 44 35 76q1 0 7 4l16 16l20 19
q26 0 26 -10q-6 -3 -6 -12q11 3 20 3h22q43 0 43 -46q0 -25 -9 -50.5t-29 -31.5q-6 -13 -16 -15q-13 -22 -69 -34q-16 0 -26 1.5t-18 4.5z" />
    <glyph glyph-name="igrave" unicode="&#xc6;" 
d="M-95 975q-20 -13 -49 -25q-36 -15 -50 -26q0 -7 7.5 -14t13.5 -7l29 8q51 14 73 31q9 1 42.5 20t45.5 23l9 15l8 14q0 6 2 12l-2 13q-15 18 -37 18h-10q-31 -49 -82 -82z" />
    <glyph glyph-name="iacute" unicode="&#xc7;" horiz-adv-x="500" 
d="M123 -21q-36 10 -59 42q-30 41 -48 118q-4 17 -4 37q2 6 2 19q0 4 -2 11l-2 7q0 92 47 211l10 20q2 3 8 13q2 5 5 12l1 3l3 3l4 2l19 34q25 45 53 59q1 8 10 17l43 34q36 29 79 49q40 19 77 19q105 0 113 -68q0 -11 4 -33t4 -33q0 -23 -4 -30l4 -19q0 -9 -17 -83
q-15 -65 -22 -75q-7 -17 -20 -51q-3 -7 -5 -12q-8 -17 -53 -21q-17 4 -19 6l-4 17q0 107 43 207q3 5 11 19q8 9 12 20.5t4 27.5q0 15 -47 39l-10 1l-13 1q-54 4 -105 -33q-86 -62 -119 -204l-7 -54q-6 -48 -15 -67l3 -15q4 -12 4 -20l-2 -18l-1 -15l11 -18q14 -23 22 -49
l7 -23q8 -4 17 -13l24 -24q24 -24 55 -29q10 0 18 -2q24 0 37 3q63 5 96 40q10 3 25 9q5 13 12 14q7 0 7 -14q0 -38 -60 -72l-38 -17q-20 -9 -62 -24q-18 -4 -39 -4q-27 0 -79 15zM153 -101l7 24q0 1 1 5q0 1 1 4v5q3 11 24 18h3q2 1 4 1h4q6 0 19 -6t13 -11q0 -22 -24 -61
l-18 -40q-6 -17 -23 -50q-10 -16 -36 -27h-5l-2 2q0 17 6 34.5t12 34.5l8 27v23q0 11 6 17z" />
    <glyph glyph-name="icircumflex" unicode="&#xc8;" horiz-adv-x="443" 
d="M262 0q-92 -35 -188 -35q-13 0 -19.5 2t-11.5 15v18q-15 0 -20 2.5t-8 15.5q2 4 2 9v41q0 36 8 90q9 71 11 90l2 24l2 18l5 19v19q3 12 6 31.5t8 50.5q3 26 12 79q19 88 62 126q74 67 129 86q9 3 41 6l23 2q25 2 28 2l35 -2h15q7 -2 19 -8q5 -3 11.5 -8t6.5 -25
q0 -4 -1 -10.5t-2 -16.5l-2 -16q0 -16 -5.5 -21.5t-24.5 -11.5l-8 2q-36 15 -80 15q-15 0 -44 -4.5t-44 -4.5q-21 0 -39 -40l-10 -29l0.5 -3t1.5 -5q0 -11 -3 -21.5t-10 -27.5l-7 -23q-7 -24 -18 -68q-7 -29 -7 -49q12 0 29.5 17t27.5 20l20 7l31 10q7 2 22 3l38 2l38 2
q49 0 49 -45q0 -51 -14 -51q-67 7 -113 6q-7 0 -58 -11l-42 -9q-45 -10 -52 -49q-2 -12 -10 -51l-12 -62q-5 -26 -5 -47q1 -3 1 -17h12q1 0 4 -1.5l5 -2.5q9 4 41 4q125 0 221 54q6 2 14 4q13 0 13 -19q0 -37 -76 -75q-1 -1 -60 -23zM304 833q20 -13 49 -25q36 -15 50 -26
q0 -7 -7.5 -14t-13.5 -7l-29 8q-51 14 -73 31q-9 1 -41 19q-35 20 -47 24l-9 15l-8 14q0 6 -2 12l2 13q15 18 37 18h10q31 -49 82 -82z" />
    <glyph glyph-name="idieresis" unicode="&#xc9;" horiz-adv-x="443" 
d="M262 0q-92 -35 -188 -35q-13 0 -19.5 2t-11.5 15v18q-15 0 -20 2.5t-8 15.5q2 4 2 9v41q0 36 8 90q9 71 11 90l2 24l2 18l5 19v19q3 12 6 31.5t8 50.5q3 26 12 79q19 88 62 126q74 67 129 86q9 3 41 6l23 2q25 2 28 2l35 -2h15q7 -2 19 -8q5 -3 11.5 -8t6.5 -25
q0 -4 -1 -10.5t-2 -16.5l-2 -16q0 -16 -5.5 -21.5t-24.5 -11.5l-8 2q-36 15 -80 15q-15 0 -44 -4.5t-44 -4.5q-21 0 -39 -40l-10 -29l0.5 -3t1.5 -5q0 -11 -3 -21.5t-10 -27.5l-7 -23q-7 -24 -18 -68q-7 -29 -7 -49q12 0 29.5 17t27.5 20l20 7l31 10q7 2 22 3l38 2l38 2
q49 0 49 -45q0 -51 -14 -51q-67 7 -113 6q-7 0 -58 -11l-42 -9q-45 -10 -52 -49q-2 -12 -10 -51l-12 -62q-5 -26 -5 -47q1 -3 1 -17h12q1 0 4 -1.5l5 -2.5q9 4 41 4q125 0 221 54q6 2 14 4q13 0 13 -19q0 -37 -76 -75q-1 -1 -60 -23zM337 833q-20 -13 -49 -25
q-36 -15 -50 -26q0 -7 8 -14t13 -7l29 8q51 14 73 31q9 1 42.5 20t45.5 23l9 15l8 14q0 6 2 12l-2 13q-15 18 -37 18h-10q-31 -49 -82 -82z" />
    <glyph glyph-name="eth" unicode="&#xca;" horiz-adv-x="443" 
d="M262 0q-92 -35 -188 -35q-13 0 -19.5 2t-11.5 15v18q-15 0 -20 2.5t-8 15.5q2 4 2 9v41q0 36 8 90q9 71 11 90l2 24l2 18l5 19v19q3 12 6 31.5t8 50.5q3 26 12 79q19 88 62 126q74 67 129 86q9 3 41 6l23 2q25 2 28 2l35 -2h15q7 -2 19 -8q5 -3 11.5 -8t6.5 -25
q0 -4 -1 -10.5t-2 -16.5l-2 -16q0 -16 -5.5 -21.5t-24.5 -11.5l-8 2q-36 15 -80 15q-15 0 -44 -4.5t-44 -4.5q-21 0 -39 -40l-10 -29l0.5 -3t1.5 -5q0 -11 -3 -21.5t-10 -27.5l-7 -23q-7 -24 -18 -68q-7 -29 -7 -49q12 0 29.5 17t27.5 20l20 7l31 10q7 2 22 3l38 2l38 2
q49 0 49 -45q0 -51 -14 -51q-67 7 -113 6q-7 0 -58 -11l-42 -9q-45 -10 -52 -49q-2 -12 -10 -51l-12 -62q-5 -26 -5 -47q1 -3 1 -17h12q1 0 4 -1.5l5 -2.5q9 4 41 4q125 0 221 54q6 2 14 4q13 0 13 -19q0 -37 -76 -75q-1 -1 -60 -23zM187 745q-13 4 -15 22l1 8q6 16 19 26
q1 0 29 17q25 14 34 27q5 1 13 5q2 2 10 7q14 10 20 10q15 0 43 -20q6 -5 39 -19q27 -12 34 -22q17 -11 17 -43q0 -14 -8 -18l-37 18q-32 16 -47 18q-34 25 -46 25q-10 0 -26 -13q-19 -14 -25 -16q-13 -4 -32 -17q-10 -7 -23 -15z" />
    <glyph glyph-name="ntilde" unicode="&#xcb;" horiz-adv-x="443" 
d="M262 0q-92 -35 -188 -35q-13 0 -19.5 2t-11.5 15v18q-15 0 -20 2.5t-8 15.5q2 4 2 9v41q0 36 8 90q9 71 11 90l2 24l2 18l5 19v19q3 12 6 31.5t8 50.5q3 26 12 79q19 88 62 126q74 67 129 86q9 3 41 6l23 2q25 2 28 2l35 -2h15q7 -2 19 -8q5 -3 11.5 -8t6.5 -25
q0 -4 -1 -10.5t-2 -16.5l-2 -16q0 -16 -5.5 -21.5t-24.5 -11.5l-8 2q-36 15 -80 15q-15 0 -44 -4.5t-44 -4.5q-21 0 -39 -40l-10 -29l0.5 -3t1.5 -5q0 -11 -3 -21.5t-10 -27.5l-7 -23q-7 -24 -18 -68q-7 -29 -7 -49q12 0 29.5 17t27.5 20l20 7l31 10q7 2 22 3l38 2l38 2
q49 0 49 -45q0 -51 -14 -51q-67 7 -113 6q-7 0 -58 -11l-42 -9q-45 -10 -52 -49q-2 -12 -10 -51l-12 -62q-5 -26 -5 -47q1 -3 1 -17h12q1 0 4 -1.5l5 -2.5q9 4 41 4q125 0 221 54q6 2 14 4q13 0 13 -19q0 -37 -76 -75q-1 -1 -60 -23zM342 755q-11 0 -22 11t-12 22
q3 18 14 26q16 29 41 29q6 0 18 -5t17.5 -5t10.5 -5q0 -2 1.5 -9.5t1.5 -10.5q0 -25 -6 -31l-9 -5q-7 -3 -10.5 -6t-9.5 -13q-4 4 -18 4h-11q-2 0 -6 -2zM189 753q-25 15 -25 41q0 17 18 33t35 16q18 0 33 -10q14 0 14 -29v-21q0 -4 -15.5 -12.5t-18.5 -15.5h-15z" />
    <glyph glyph-name="ograve" unicode="&#xcc;" horiz-adv-x="203" 
d="M45 0l-12 94q4 52 4 64q0 4 3 11t3 11v33q3 31 10 93q8 50 8 73q0 47 -16 47l-1 8l-1 11l4 21q4 21 4 24q0 4 -4 12l13 43l18 62q22 77 70 77q26 15 38 15q17 0 17 -27q0 -16 -11 -60l-10 -40q0 -37 -11 -74q-2 -9 -5 -23l-12 -47l2 -1q-29 -122 -29 -216q0 -9 -11 -86
q-3 -21 -3 -25q0 -40 14 -88q0 -12 -13.5 -19t-21.5 -18q-9 -4 -22 -4q-21 0 -25 29zM159 826q20 -13 49 -25q36 -15 50 -26q0 -7 -7.5 -14t-13.5 -7l-29 8q-51 14 -73 31q-9 1 -41 19q-35 20 -47 24l-9 15l-8 14q0 6 -2 12l2 13q15 18 37 18h10q31 -49 82 -82z" />
    <glyph glyph-name="oacute" unicode="&#xcd;" horiz-adv-x="203" 
d="M45 0l-12 94q4 52 4 64q0 4 3 11t3 11v33q3 31 10 93q8 50 8 73q0 47 -16 47l-1 8l-1 11l4 21q4 21 4 24q0 4 -4 12l13 43l18 62q22 77 70 77q26 15 38 15q17 0 17 -27q0 -16 -11 -60l-10 -40q0 -37 -11 -74q-2 -9 -5 -23l-12 -47l2 -1q-29 -122 -29 -216q0 -9 -11 -86
q-3 -21 -3 -25q0 -40 14 -88q0 -12 -13.5 -19t-21.5 -18q-9 -4 -22 -4q-21 0 -25 29zM177 831q-20 -13 -49 -25q-36 -15 -50 -26q0 -7 8 -14t13 -7l29 8q51 14 73 31q9 1 42.5 20t45.5 23l9 15l8 14q0 6 2 12l-2 13q-15 18 -37 18h-10q-31 -49 -82 -82z" />
    <glyph glyph-name="ocircumflex" unicode="&#xce;" horiz-adv-x="203" 
d="M45 0l-12 94q4 52 4 64q0 4 3 11t3 11v33q3 31 10 93q8 50 8 73q0 47 -16 47l-1 8l-1 11l4 21q4 21 4 24q0 4 -4 12l13 43l18 62q22 77 70 77q26 15 38 15q17 0 17 -27q0 -16 -11 -60l-10 -40q0 -37 -11 -74q-2 -9 -5 -23l-12 -47l2 -1q-29 -122 -29 -216q0 -9 -11 -86
q-3 -21 -3 -25q0 -40 14 -88q0 -12 -13.5 -19t-21.5 -18q-9 -4 -22 -4q-21 0 -25 29zM33 739q-13 4 -15 22l1 8q6 16 19 26q1 0 29 17q25 14 34 27q5 1 13 5q2 2 10 7q14 10 20 10q15 0 43 -20q6 -5 39 -19q27 -12 34 -22q17 -11 17 -43q0 -14 -8 -18l-37 18q-32 16 -47 18
q-34 25 -46 25q-10 0 -26 -13q-19 -14 -25 -16q-13 -4 -32 -17q-10 -7 -23 -15z" />
    <glyph glyph-name="otilde" unicode="&#xcf;" horiz-adv-x="203" 
d="M45 0l-12 94q4 52 4 64q0 4 3 11t3 11v33q3 31 10 93q8 50 8 73q0 47 -16 47l-1 8l-1 11l4 21q4 21 4 24q0 4 -4 12l13 43l18 62q22 77 70 77q26 15 38 15q17 0 17 -27q0 -16 -11 -60l-10 -40q0 -37 -11 -74q-2 -9 -5 -23l-12 -47l2 -1q-29 -122 -29 -216q0 -9 -11 -86
q-3 -21 -3 -25q0 -40 14 -88q0 -12 -13.5 -19t-21.5 -18q-9 -4 -22 -4q-21 0 -25 29zM208 754q-11 0 -22 11t-12 22q3 18 14 26q16 29 41 29q6 0 18 -5t17.5 -5t10.5 -5q0 -2 1.5 -9.5t1.5 -10.5q0 -25 -6 -31l-9 -5q-7 -3 -10.5 -6t-9.5 -13q-4 4 -18 4h-11q-2 0 -6 -2z
M55 752q-25 15 -25 41q0 17 18 33t35 16q18 0 33 -10q14 0 14 -29v-21q0 -4 -15.5 -12.5t-18.5 -15.5h-15z" />
    <glyph glyph-name="odieresis" unicode="&#xd0;" horiz-adv-x="520" 
d="M146 270q-3 -12 -10 -45q-5 -26 -11 -58l-16 -81q-4 -19 -12 -38q-19 -44 -40 -48q-9 0 -11 2l-1 8q0 5 -3 8q4 23 8 55q1 46 8 136q3 18 6 51q-36 0 -80 -18h-3q-1 -1 -1 -2q-11 3 -11 16q0 43 62 68q25 10 48 10q0 4 -6 25q4 9 9 28q1 25 5 74q3 27 6 36q6 19 19 32
q1 1 3 3.5t5 6t6 7.5q9 12 16.5 18.5t18.5 7.5l-2 8q-14 7 -40 15l-24 8q-28 9 -47 26q-6 8 -8 29l-2 24l4 8q2 4 5 5l12 2q13 0 15 -2l10 4l8 2q37 0 64 -19l6 1l4 1q12 0 21 -6t16 -8q57 -7 143 -65l62 -42q9 -6 45 -51q23 -29 35 -57.5t12 -71.5q0 -90 -64 -187
q-27 -41 -65 -79q-19 -19 -27 -39l11 5q9 3 12 3q8 0 8 -6q0 -15 -11.5 -26.5t-16.5 -14.5q-7 -7 -18 -14l-50 -31q-32 -20 -92 -53q-43 -19 -89 -19q-7 0 -15 9t-8 16q0 8 14 25l16 20q12 10 32 17l26 9q74 25 116 72q26 29 49.5 61.5t50.5 77.5q3 5 17 19l7 23
q10 34 12 53q1 11 1 28q-2 4 -5 6.5t-5 8.5q-6 64 -58 102l-14 13l-15 16l-14 10q-11 4 -55 29l-35 20q-4 -3 -24 -84q-9 -30 -16 -64l-12 -55q13 0 37 4q30 5 38 5q47 0 47 -39q0 -47 -27 -56l-14 3l-23 4z" />
    <glyph glyph-name="divide" unicode="&#xd1;" horiz-adv-x="557" 
d="M-1 -18l18 94q39 206 60 408q3 33 11 53q0 12 -2 24q0 20 4 32q4 16 10 25q12 21 43 21q2 0 12 -2l11 -6l10 -8q5 3 23 28q15 19 28 19q8 0 14.5 -6t6.5 -14v-13q-3 -7 -7 -21q-3 -5 -10 -22l-13 -35q-5 -18 -5 -32q2 -14 21 -66q8 -18 20 -53q3 -9 17 -53q11 -36 18 -50
q18 -35 31 -70l27 -70q25 -65 44 -73q15 23 41 221q13 99 13 222q0 77 37 154q33 26 41 28q8 0 8 -37q0 -17 -4.5 -50t-4.5 -50q0 -4 -2 -21q-1 -20 -2 -36q0 -22 -3 -67q-6 -56 -19 -168q-15 -138 -39 -222l-6 -21q-5 -16 -8.5 -23.5t-10.5 -19.5l-29 -12q-29 -12 -40 -13
q-15 0 -40 39q-18 28 -28 52l-29 70l-26 65q-7 14 -25 51q-6 13 -21 45l-21 48q-8 18 -13 22q-11 0 -49 -156q-25 -100 -48 -174v-14q0 -15 -13 -44q-7 -15 -15 -40q0 -1 -1 -1.5l-2 -1t-3 -1t-3 -0.5l-10 -3l-12 -4q-10 0 -10 21v6q1 3 3 14zM282 801q-14 -4 -37 -14
l-34 -15l-5 8q1 2 1.5 5.5t0.5 12.5q9 19 32 25q14 10 61 29l49 20h6q29 0 51 -22v-13l-4 -16l3 -4l6 -6q11 2 57 18q21 10 24 11q22 10 33 10q5 0 6 -4q0 -29 -21 -42q-13 -7 -49 -15t-46 -13l-27 -8l-23 -6l-8 4q-3 3 -14 30q-9 23 -20 23q-10 0 -21 -6z" />
    <glyph glyph-name="oslash" unicode="&#xd2;" horiz-adv-x="537" 
d="M270 10l-41 -13l-45 -15q-15 -5 -38 -5q-82 0 -109 92q-12 41 -12 79q0 1 -0.5 2.5t-1.5 1.5q8 32 8 82q0 6 4 17t4 17q0 23 -6 23q-4 0 -4 -6q-1 -16 -19 -21q-12 5 -12 11l4 25q5 31 16 50q35 61 69 153q13 34 35 86q15 34 34 67l28 20q17 0 17 -22q0 -14 -15 -47
q0 -6 -4 -15q0 -4 4 -8q15 5 15 14q11 20 51 39q14 22 31 28q2 1 5.5 2t4.5 1l21 4q4 0 13 6t13 6q74 -14 130.5 -85t56.5 -148q0 -89 -32 -174q-33 -88 -92 -150l-47 -44q-27 -25 -44 -37t-42 -36zM316 125q32 26 58 59.5t35 73.5q6 19 13 27q16 47 16 92q0 23 -9 61
q-18 76 -68 111q-27 19 -64 19q-79 -7 -147 -93l-27 -152q-4 -22 -4 -65v-12q0 -6 -2 -17q-2 -22 -2 -30q10 -62 17 -84q19 -52 57 -52q43 0 67 17q9 4 30 21zM307 806q20 -13 49 -25q36 -15 50 -26q0 -7 -7.5 -14t-13.5 -7l-29 8q-51 14 -73 31q-9 1 -41 19q-35 20 -47 24
l-9 15l-8 14q0 6 -2 12l2 13q15 18 37 18h10q31 -49 82 -82z" />
    <glyph glyph-name="ugrave" unicode="&#xd3;" horiz-adv-x="537" 
d="M270 10l-41 -13l-45 -15q-15 -5 -38 -5q-82 0 -109 92q-12 41 -12 79q0 1 -0.5 2.5t-1.5 1.5q8 32 8 82q0 6 4 17t4 17q0 23 -6 23q-4 0 -4 -6q-1 -16 -19 -21q-12 5 -12 11l4 25q5 31 16 50q35 61 69 153q13 34 35 86q15 34 34 67l28 20q17 0 17 -22q0 -14 -15 -47
q0 -6 -4 -15q0 -4 4 -8q15 5 15 14q11 20 51 39q14 22 31 28q2 1 5.5 2t4.5 1l21 4q4 0 13 6t13 6q74 -14 130.5 -85t56.5 -148q0 -89 -32 -174q-33 -88 -92 -150l-47 -44q-27 -25 -44 -37t-42 -36zM316 125q32 26 58 59.5t35 73.5q6 19 13 27q16 47 16 92q0 23 -9 61
q-18 76 -68 111q-27 19 -64 19q-79 -7 -147 -93l-27 -152q-4 -22 -4 -65v-12q0 -6 -2 -17q-2 -22 -2 -30q10 -62 17 -84q19 -52 57 -52q43 0 67 17q9 4 30 21zM350 806q-20 -13 -49 -25q-36 -15 -50 -26q0 -7 8 -14t13 -7l29 8q51 14 73 31q9 1 42.5 20t45.5 23l9 15l8 14
q0 6 2 12l-2 13q-15 18 -37 18h-10q-31 -49 -82 -82z" />
    <glyph glyph-name="uacute" unicode="&#xd4;" horiz-adv-x="537" 
d="M270 10l-41 -13l-45 -15q-15 -5 -38 -5q-82 0 -109 92q-12 41 -12 79q0 1 -0.5 2.5t-1.5 1.5q8 32 8 82q0 6 4 17t4 17q0 23 -6 23q-4 0 -4 -6q-1 -16 -19 -21q-12 5 -12 11l4 25q5 31 16 50q35 61 69 153q13 34 35 86q15 34 34 67l28 20q17 0 17 -22q0 -14 -15 -47
q0 -6 -4 -15q0 -4 4 -8q15 5 15 14q11 20 51 39q14 22 31 28q2 1 5.5 2t4.5 1l21 4q4 0 13 6t13 6q74 -14 130.5 -85t56.5 -148q0 -89 -32 -174q-33 -88 -92 -150l-47 -44q-27 -25 -44 -37t-42 -36zM316 125q32 26 58 59.5t35 73.5q6 19 13 27q16 47 16 92q0 23 -9 61
q-18 76 -68 111q-27 19 -64 19q-79 -7 -147 -93l-27 -152q-4 -22 -4 -65v-12q0 -6 -2 -17q-2 -22 -2 -30q10 -62 17 -84q19 -52 57 -52q43 0 67 17q9 4 30 21zM236 685q-13 4 -15 22l1 8q6 16 19 26q1 0 29 17q25 14 34 27q5 1 13 5q2 2 10 7q14 10 20 10q15 0 43 -20
q6 -5 39 -19q27 -12 34 -22q17 -11 17 -43q0 -14 -8 -18l-37 18q-32 16 -47 18q-34 25 -46 25q-10 0 -26 -13q-19 -14 -25 -16q-13 -4 -32 -17q-10 -7 -23 -15z" />
    <glyph glyph-name="ucircumflex" unicode="&#xd5;" horiz-adv-x="537" 
d="M270 10l-41 -13l-45 -15q-15 -5 -38 -5q-82 0 -109 92q-12 41 -12 79q0 1 -0.5 2.5t-1.5 1.5q8 32 8 82q0 6 4 17t4 17q0 23 -6 23q-4 0 -4 -6q-1 -16 -19 -21q-12 5 -12 11l4 25q5 31 16 50q35 61 69 153q13 34 35 86q15 34 34 67l28 20q17 0 17 -22q0 -14 -15 -47
q0 -6 -4 -15q0 -4 4 -8q15 5 15 14q11 20 51 39q14 22 31 28q2 1 5.5 2t4.5 1l21 4q4 0 13 6t13 6q74 -14 130.5 -85t56.5 -148q0 -89 -32 -174q-33 -88 -92 -150l-47 -44q-27 -25 -44 -37t-42 -36zM316 125q32 26 58 59.5t35 73.5q6 19 13 27q16 47 16 92q0 23 -9 61
q-18 76 -68 111q-27 19 -64 19q-79 -7 -147 -93l-27 -152q-4 -22 -4 -65v-12q0 -6 -2 -17q-2 -22 -2 -30q10 -62 17 -84q19 -52 57 -52q43 0 67 17q9 4 30 21zM254 778q-14 -4 -37 -14l-34 -15l-5 8q1 2 1.5 5.5t0.5 12.5q9 19 32 25q14 10 61 29l49 20h6q29 0 51 -22v-13
l-4 -16l3 -4l6 -6q11 2 57 18q21 10 24 11q22 10 33 10q5 0 6 -4q0 -29 -21 -42q-13 -7 -49 -15t-46 -13l-27 -8l-23 -6l-8 4q-3 3 -14 30q-9 23 -20 23q-10 0 -21 -6z" />
    <glyph glyph-name="udieresis" unicode="&#xd6;" horiz-adv-x="537" 
d="M270 10l-41 -13l-45 -15q-15 -5 -38 -5q-82 0 -109 92q-12 41 -12 79q0 1 -0.5 2.5t-1.5 1.5q8 32 8 82q0 6 4 17t4 17q0 23 -6 23q-4 0 -4 -6q-1 -16 -19 -21q-12 5 -12 11l4 25q5 31 16 50q35 61 69 153q13 34 35 86q15 34 34 67l28 20q17 0 17 -22q0 -14 -15 -47
q0 -6 -4 -15q0 -4 4 -8q15 5 15 14q11 20 51 39q14 22 31 28q2 1 5.5 2t4.5 1l21 4q4 0 13 6t13 6q74 -14 130.5 -85t56.5 -148q0 -89 -32 -174q-33 -88 -92 -150l-47 -44q-27 -25 -44 -37t-42 -36zM316 125q32 26 58 59.5t35 73.5q6 19 13 27q16 47 16 92q0 23 -9 61
q-18 76 -68 111q-27 19 -64 19q-79 -7 -147 -93l-27 -152q-4 -22 -4 -65v-12q0 -6 -2 -17q-2 -22 -2 -30q10 -62 17 -84q19 -52 57 -52q43 0 67 17q9 4 30 21zM381 730q-11 0 -22 11t-12 22q3 18 14 26q16 29 41 29q6 0 18 -5t17.5 -5t10.5 -5q0 -2 1.5 -9.5t1.5 -10.5
q0 -25 -6 -31l-9 -5q-7 -3 -10.5 -6t-9.5 -13q-4 4 -18 4h-11q-2 0 -6 -2zM228 728q-25 15 -25 41q0 17 18 33t35 16q18 0 33 -10q14 0 14 -29v-21q0 -4 -15.5 -12.5t-18.5 -15.5h-15z" />
    <glyph glyph-name="yacute" unicode="&#xd7;" horiz-adv-x="406" 
d="M2 96l-2 29q-3 41 70 92q9 18 61 62q28 29 84 71q66 50 103 50q15 -3 24 -21q0 -9 -9.5 -26.5t-31.5 -24.5q-10 -18 -45 -47q-7 -3 -20 -19t-23 -20q-4 -8 -5.5 -10t-4 -5.5t-4.5 -5.5l-12 -10q-1 0 -8 -5l-1 -1q-6 -11 -33 -39l-26 -27l-5 -12l-5 -9l-2 -5l2 -2
q20 5 33 15l39 37q27 25 40 32q12 21 37 38t49 17q14 0 19 -25l4 -20l-6 -31q0 -17 11 -30.5t26 -14.5q25 5 49 29q4 -1 4 -4l1 -12q0 -6 1 -15q0 -7 -4 -14q0 -18 -30 -48q-10 -8 -19 -11q-16 -9 -33 -11l-5 2q-3 1 -7 2q-3 0 -15 -2q-20 2 -35 17.5t-18 35.5l-3 21l-3 17
q0 6 -4 7q-4 0 -18 -12q-7 -6 -12 -12t-15 -15l-7 -2q-28 -37 -49 -45q-8 -17 -32.5 -34t-42.5 -17l-17 -6q-40 0 -47 49q0 8 7 26q2 3 5 9v2q0 6 -10 10zM381 545q13 -4 15 -22l-1 -8q-7 -19 -48 -44q-24 -15 -34 -26q-6 -1 -12 -5q-2 -2 -10 -7q-14 -10 -21 -10
q-14 0 -42 20q-6 4 -39 19q-28 12 -35 22q-17 11 -17 43q0 13 8 18l38 -18q34 -16 46 -18q35 -25 46 -25q10 0 27 13.5t24 15.5q12 4 28 15q20 14 27 17z" />
    <glyph glyph-name="thorn" unicode="&#xd8;" 
d="M-151 827q20 -13 49 -25q36 -15 50 -26q0 -7 -8 -14t-13 -7l-29 8q-51 14 -73 31q-9 1 -41 19q-35 20 -47 24l-9 15l-8 14q0 6 -2 12l2 13q15 18 37 18h10q31 -49 82 -82z" />
    <glyph glyph-name="ydieresis" unicode="&#xd9;" horiz-adv-x="520" 
d="M63 191q-3 3 -8 26l2 27l-6 24l2 17l4 20q-6 14 -6 125q0 73 8 86q0 75 5 121q1 13 12.5 26t23.5 13q6 0 14.5 -20t14.5 -23q31 -17 31 -51q0 -23 -7 -59q-9 -45 -8 -56l1 -14q1 -18 -9 -39q-1 -10 -4 -31l2 -47q0 -8 -4 -27q0 -26 9 -80q7 -40 10 -41q9 -56 45 -92
q12 -12 20 -12q33 0 67 51q16 24 23 31q18 35 28 69l25 87q14 49 29 82q0 28 13 75l1 5q12 42 15 69q0 4 6 20l8 21l3 14l5 12q2 4 9 11q0 2 -2 4q4 25 16 54q0 9 19.5 21.5t29.5 12.5q8 0 11 -8l4 -20l2 -25q2 -26 -6 -85q-7 -51 -13 -75q-7 -31 -22 -92l-23 -96
q-33 -138 -45 -252l2 -16q0 -9 2 -15q14 -9 14 -19q0 -7 -9 -18t-12 -14.5t-8 -7.5q-11 -9 -22.5 -19t-25.5 -10q-20 0 -23 33l1 11l1 7q0 7 -4 14q12 71 12 109q0 9 -6 10q-4 0 -9 -6l-15 -27q-62 -114 -154 -114q-34 0 -52 30q-4 8 -10 16q-2 5 -5 12l-13 30
q-15 34 -21 108l1 4zM305 845q20 -13 49 -25q36 -15 50 -26q0 -7 -7.5 -14t-13.5 -7l-29 8q-51 14 -73 31q-9 1 -41 19q-35 20 -47 24l-9 15l-8 14q0 6 -2 12l2 13q15 18 37 18h10q31 -49 82 -82z" />
    <glyph glyph-name="dotlessi" unicode="&#xda;" horiz-adv-x="520" 
d="M63 191q-3 3 -8 26l2 27l-6 24l2 17l4 20q-6 14 -6 125q0 73 8 86q0 75 5 121q1 13 12.5 26t23.5 13q6 0 14.5 -20t14.5 -23q31 -17 31 -51q0 -23 -7 -59q-9 -45 -8 -56l1 -14q1 -18 -9 -39q-1 -10 -4 -31l2 -47q0 -8 -4 -27q0 -26 9 -80q7 -40 10 -41q9 -56 45 -92
q12 -12 20 -12q33 0 67 51q16 24 23 31q18 35 28 69l25 87q14 49 29 82q0 28 13 75l1 5q12 42 15 69q0 4 6 20l8 21l3 14l5 12q2 4 9 11q0 2 -2 4q4 25 16 54q0 9 19.5 21.5t29.5 12.5q8 0 11 -8l4 -20l2 -25q2 -26 -6 -85q-7 -51 -13 -75q-7 -31 -22 -92l-23 -96
q-33 -138 -45 -252l2 -16q0 -9 2 -15q14 -9 14 -19q0 -7 -9 -18t-12 -14.5t-8 -7.5q-11 -9 -22.5 -19t-25.5 -10q-20 0 -23 33l1 11l1 7q0 7 -4 14q12 71 12 109q0 9 -6 10q-4 0 -9 -6l-15 -27q-62 -114 -154 -114q-34 0 -52 30q-4 8 -10 16q-2 5 -5 12l-13 30
q-15 34 -21 108l1 4zM363 850q-20 -13 -49 -25q-36 -15 -50 -26q0 -7 8 -14t13 -7l29 8q51 14 73 31q9 1 42.5 20t45.5 23l9 15l8 14q0 6 2 12l-2 13q-15 18 -37 18h-10q-31 -49 -82 -82z" />
    <glyph glyph-name="Lslash" unicode="&#xdb;" horiz-adv-x="520" 
d="M63 191q-3 3 -8 26l2 27l-6 24l2 17l4 20q-6 14 -6 125q0 73 8 86q0 75 5 121q1 13 12.5 26t23.5 13q6 0 14.5 -20t14.5 -23q31 -17 31 -51q0 -23 -7 -59q-9 -45 -8 -56l1 -14q1 -18 -9 -39q-1 -10 -4 -31l2 -47q0 -8 -4 -27q0 -26 9 -80q7 -40 10 -41q9 -56 45 -92
q12 -12 20 -12q33 0 67 51q16 24 23 31q18 35 28 69l25 87q14 49 29 82q0 28 13 75l1 5q12 42 15 69q0 4 6 20l8 21l3 14l5 12q2 4 9 11q0 2 -2 4q4 25 16 54q0 9 19.5 21.5t29.5 12.5q8 0 11 -8l4 -20l2 -25q2 -26 -6 -85q-7 -51 -13 -75q-7 -31 -22 -92l-23 -96
q-33 -138 -45 -252l2 -16q0 -9 2 -15q14 -9 14 -19q0 -7 -9 -18t-12 -14.5t-8 -7.5q-11 -9 -22.5 -19t-25.5 -10q-20 0 -23 33l1 11l1 7q0 7 -4 14q12 71 12 109q0 9 -6 10q-4 0 -9 -6l-15 -27q-62 -114 -154 -114q-34 0 -52 30q-4 8 -10 16q-2 5 -5 12l-13 30
q-15 34 -21 108l1 4zM188 776q-13 4 -15 22l1 8q6 16 19 26q1 0 29 17q25 14 34 27q5 1 13 5q2 2 10 7q14 10 20 10q15 0 43 -20q6 -5 39 -19q27 -12 34 -22q17 -11 17 -43q0 -14 -8 -18l-37 18q-32 16 -47 18q-34 25 -46 25q-10 0 -26 -13q-19 -14 -25 -16q-13 -4 -32 -17
q-10 -7 -23 -15z" />
    <glyph glyph-name="lslash" unicode="&#xdc;" horiz-adv-x="520" 
d="M63 191q-3 3 -8 26l2 27l-6 24l2 17l4 20q-6 14 -6 125q0 73 8 86q0 75 5 121q1 13 12.5 26t23.5 13q6 0 14.5 -20t14.5 -23q31 -17 31 -51q0 -23 -7 -59q-9 -45 -8 -56l1 -14q1 -18 -9 -39q-1 -10 -4 -31l2 -47q0 -8 -4 -27q0 -26 9 -80q7 -40 10 -41q9 -56 45 -92
q12 -12 20 -12q33 0 67 51q16 24 23 31q18 35 28 69l25 87q14 49 29 82q0 28 13 75l1 5q12 42 15 69q0 4 6 20l8 21l3 14l5 12q2 4 9 11q0 2 -2 4q4 25 16 54q0 9 19.5 21.5t29.5 12.5q8 0 11 -8l4 -20l2 -25q2 -26 -6 -85q-7 -51 -13 -75q-7 -31 -22 -92l-23 -96
q-33 -138 -45 -252l2 -16q0 -9 2 -15q14 -9 14 -19q0 -7 -9 -18t-12 -14.5t-8 -7.5q-11 -9 -22.5 -19t-25.5 -10q-20 0 -23 33l1 11l1 7q0 7 -4 14q12 71 12 109q0 9 -6 10q-4 0 -9 -6l-15 -27q-62 -114 -154 -114q-34 0 -52 30q-4 8 -10 16q-2 5 -5 12l-13 30
q-15 34 -21 108l1 4zM348 771q-11 0 -22 11t-12 22q3 18 14 26q16 29 41 29q6 0 18 -5t17.5 -5t10.5 -5q0 -2 1.5 -9.5t1.5 -10.5q0 -25 -6 -31l-9 -5q-7 -3 -10.5 -6t-9.5 -13q-4 4 -18 4h-11q-2 0 -6 -2zM195 769q-25 15 -25 41q0 17 18 33t35 16q18 0 33 -10q14 0 14 -29
v-21q0 -4 -15.5 -12.5t-18.5 -15.5h-15z" />
    <glyph glyph-name="OE" unicode="&#xdd;" horiz-adv-x="443" 
d="M104 -18q0 57 27 92q6 43 17 65q12 19 17 34q5 22 5 28q-21 12 -52 78l-20 43l-11 38l-14 59q-18 76 -18 134q-6 0 -10 29l-4 29l4 25q3 16 10 24t19 8q8 2 10 2q21 12 37 12q14 0 25.5 -16t11.5 -29q0 -17 -2 -50t-2 -50q0 -42 16 -103l5 -36q3 -24 7 -40q1 -4 6 -23
q8 -30 21 -46q9 2 18 21l32 69q13 27 30 59q12 47 52 116q6 11 29 49q16 29 32 59q27 45 41 45q10 -3 20 -18q0 -125 -53 -207q0 -31 -19 -50q0 -7 -34 -51l-21 -38q-21 -38 -29 -48q-5 -14 -17 -40l-19 -40q-12 -29 -37 -76q0 -10 -10 -51q-11 -45 -11 -63l3 -5l5 -9l2 -7
q-3 -11 -14.5 -20.5t-22.5 -10.5q-5 -14 -36 -14q-14 0 -30 5.5t-16 17.5zM326 829q-20 -13 -49 -25q-36 -15 -50 -26q0 -7 8 -14t13 -7l29 8q51 14 73 31q9 1 42.5 20t45.5 23l9 15l8 14q0 6 2 12l-2 13q-15 18 -37 18h-10q-31 -49 -82 -82z" />
    <glyph glyph-name="oe" unicode="&#xde;" horiz-adv-x="443" 
d="M191 370q-1 -5 -3 -45l-4 -65q7 1 25 9q11 6 33 19l24 15q16 10 46 30l28 21q29 34 35 45l10 19q-31 61 -143 61q-28 0 -34.5 -9.5t-16.5 -99.5zM490 469q0 -81 -158 -184q-60 -39 -100 -63q-60 -36 -60 -40l-4 -47q-2 -22 6 -47q5 -16 14 -16q2 0 12 11t13 11h4l10 -6
q-11 -11 -28.5 -45t-28.5 -47q-16 -19 -43 -19q-14 0 -18.5 6t-10.5 62q0 24 -8 78l-31 -19q0 11 -5 16q-8 6 -18 11q-21 7 -26 27q2 14 12.5 22.5t28.5 18.5l25 14l16 8q0 92 23 250q1 0 -49 -8l-50 -8q-9 0 -12 10q2 10 4 14q6 31 21 39q22 12 44 20l36 10q6 2 13 4
q1 0 3 1l6 55l4 42q3 28 66 39q39 -13 39 -37l-9 -42l-10 -44q28 0 58 2l26 6q97 0 153 -43q32 -25 32 -62z" />
    <glyph glyph-name="Scaron" unicode="&#xdf;" horiz-adv-x="369" 
d="M174 21l-14 -6q-13 -6 -23 -7l-9 3q-10 1 -15 5q-1 2 -3 4l-8 8q-11 11 -12 13l2 3q67 46 104.5 92.5t37.5 109.5q0 5 -4 33q-6 23 -35 58q-25 30 -25 48q0 27 24 49l44 41q15 20 43 61q22 35 22 71q0 24 -26 24q-65 0 -112 -97q-19 -39 -19 -72l-62 -334
q-11 -63 -24 -161q-18 -143 -21 -162l-4 -28q-3 -18 -6.5 -27.5t-10 -17t-18.5 -7.5q-27 0 -27 56q0 75 9 156q2 16 8 65l16 126q12 95 12 104q10 31 21 107q12 83 18 114q13 63 33 110q3 11 14 32q5 11 20 28l28 26l26 23q17 15 39 22q14 5 47 9l21 1q66 3 98 -49
q15 -24 15 -55q0 -46 -27 -82q-12 -21 -41 -45q-15 -13 -24 -18q-50 -38 -50 -64q0 -14 28 -41q37 -37 39 -40q10 -14 13 -36q2 -10 2 -28q0 -111 -164 -225z" />
    <glyph glyph-name="scaron" unicode="&#xe0;" horiz-adv-x="406" 
d="M2 96l-2 29q-3 41 70 92q9 18 61 62q28 29 84 71q66 50 103 50q15 -3 24 -21q0 -9 -9.5 -26.5t-31.5 -24.5q-10 -18 -45 -47q-7 -3 -20 -19t-23 -20q-4 -8 -5.5 -10t-4 -5.5t-4.5 -5.5l-12 -10q-1 0 -8 -5l-1 -1q-6 -11 -33 -39l-26 -27l-5 -12l-5 -9l-2 -5l2 -2
q20 5 33 15l39 37q27 25 40 32q12 21 37 38t49 17q14 0 19 -25l4 -20l-6 -31q0 -17 11 -30.5t26 -14.5q25 5 49 29q4 -1 4 -4l1 -12q0 -6 1 -15q0 -7 -4 -14q0 -18 -30 -48q-10 -8 -19 -11q-16 -9 -33 -11l-5 2q-3 1 -7 2q-3 0 -15 -2q-20 2 -35 17.5t-18 35.5l-3 21l-3 17
q0 6 -4 7q-4 0 -18 -12q-7 -6 -12 -12t-15 -15l-7 -2q-28 -37 -49 -45q-8 -17 -32.5 -34t-42.5 -17l-17 -6q-40 0 -47 49q0 8 7 26q2 3 5 9v2q0 6 -10 10zM259 522q20 -13 49 -25q36 -15 50 -26q0 -7 -7.5 -14t-13.5 -7l-29 8q-51 14 -73 31q-9 1 -41 19q-35 20 -47 24
l-9 15l-8 14q0 6 -2 12l2 13q15 18 37 18h10q31 -49 82 -82z" />
    <glyph glyph-name="Ydieresis" unicode="&#xe1;" horiz-adv-x="406" 
d="M2 96l-2 29q-3 41 70 92q9 18 61 62q28 29 84 71q66 50 103 50q15 -3 24 -21q0 -9 -9.5 -26.5t-31.5 -24.5q-10 -18 -45 -47q-7 -3 -20 -19t-23 -20q-4 -8 -5.5 -10t-4 -5.5t-4.5 -5.5l-12 -10q-1 0 -8 -5l-1 -1q-6 -11 -33 -39l-26 -27l-5 -12l-5 -9l-2 -5l2 -2
q20 5 33 15l39 37q27 25 40 32q12 21 37 38t49 17q14 0 19 -25l4 -20l-6 -31q0 -17 11 -30.5t26 -14.5q25 5 49 29q4 -1 4 -4l1 -12q0 -6 1 -15q0 -7 -4 -14q0 -18 -30 -48q-10 -8 -19 -11q-16 -9 -33 -11l-5 2q-3 1 -7 2q-3 0 -15 -2q-20 2 -35 17.5t-18 35.5l-3 21l-3 17
q0 6 -4 7q-4 0 -18 -12q-7 -6 -12 -12t-15 -15l-7 -2q-28 -37 -49 -45q-8 -17 -32.5 -34t-42.5 -17l-17 -6q-40 0 -47 49q0 8 7 26q2 3 5 9v2q0 6 -10 10zM252 507q-20 -13 -49 -25q-36 -15 -50 -26q0 -7 8 -14t13 -7l29 8q51 14 73 31q9 1 42.5 20t45.5 23l9 15l8 14
q0 6 2 12l-2 13q-15 18 -37 18h-10q-31 -49 -82 -82z" />
    <glyph glyph-name="Zcaron" unicode="&#xe2;" horiz-adv-x="406" 
d="M2 96l-2 29q-3 41 70 92q9 18 61 62q28 29 84 71q66 50 103 50q15 -3 24 -21q0 -9 -9.5 -26.5t-31.5 -24.5q-10 -18 -45 -47q-7 -3 -20 -19t-23 -20q-4 -8 -5.5 -10t-4 -5.5t-4.5 -5.5l-12 -10q-1 0 -8 -5l-1 -1q-6 -11 -33 -39l-26 -27l-5 -12l-5 -9l-2 -5l2 -2
q20 5 33 15l39 37q27 25 40 32q12 21 37 38t49 17q14 0 19 -25l4 -20l-6 -31q0 -17 11 -30.5t26 -14.5q25 5 49 29q4 -1 4 -4l1 -12q0 -6 1 -15q0 -7 -4 -14q0 -18 -30 -48q-10 -8 -19 -11q-16 -9 -33 -11l-5 2q-3 1 -7 2q-3 0 -15 -2q-20 2 -35 17.5t-18 35.5l-3 21l-3 17
q0 6 -4 7q-4 0 -18 -12q-7 -6 -12 -12t-15 -15l-7 -2q-28 -37 -49 -45q-8 -17 -32.5 -34t-42.5 -17l-17 -6q-40 0 -47 49q0 8 7 26q2 3 5 9v2q0 6 -10 10zM161 405q-13 4 -15 22l1 8q6 16 19 26q1 0 29 17q25 14 34 27q5 1 13 5q2 2 10 7q14 10 20 10q15 0 43 -20
q6 -5 39 -19q27 -12 34 -22q17 -11 17 -43q0 -14 -8 -18l-37 18q-32 16 -47 18q-34 25 -46 25q-10 0 -26 -13q-19 -14 -25 -16q-13 -4 -32 -17q-10 -7 -23 -15z" />
    <glyph glyph-name="zcaron" unicode="&#xe3;" horiz-adv-x="406" 
d="M2 96l-2 29q-3 41 70 92q9 18 61 62q28 29 84 71q66 50 103 50q15 -3 24 -21q0 -9 -9.5 -26.5t-31.5 -24.5q-10 -18 -45 -47q-7 -3 -20 -19t-23 -20q-4 -8 -5.5 -10t-4 -5.5t-4.5 -5.5l-12 -10q-1 0 -8 -5l-1 -1q-6 -11 -33 -39l-26 -27l-5 -12l-5 -9l-2 -5l2 -2
q20 5 33 15l39 37q27 25 40 32q12 21 37 38t49 17q14 0 19 -25l4 -20l-6 -31q0 -17 11 -30.5t26 -14.5q25 5 49 29q4 -1 4 -4l1 -12q0 -6 1 -15q0 -7 -4 -14q0 -18 -30 -48q-10 -8 -19 -11q-16 -9 -33 -11l-5 2q-3 1 -7 2q-3 0 -15 -2q-20 2 -35 17.5t-18 35.5l-3 21l-3 17
q0 6 -4 7q-4 0 -18 -12q-7 -6 -12 -12t-15 -15l-7 -2q-28 -37 -49 -45q-8 -17 -32.5 -34t-42.5 -17l-17 -6q-40 0 -47 49q0 8 7 26q2 3 5 9v2q0 6 -10 10zM181 489q-14 -4 -37 -14l-34 -15l-5 8q1 2 1.5 5.5t0.5 12.5q9 19 32 25q14 10 61 29l49 20h6q29 0 51 -22v-13
l-4 -16l3 -4l6 -6q11 2 57 18q21 10 24 11q22 10 33 10q5 0 6 -4q0 -29 -21 -42q-13 -7 -49 -15t-46 -13l-27 -8l-23 -6l-8 4q-3 3 -14 30q-9 23 -20 23q-10 0 -21 -6z" />
    <glyph glyph-name="florin" unicode="&#xe4;" horiz-adv-x="406" 
d="M2 96l-2 29q-3 41 70 92q9 18 61 62q28 29 84 71q66 50 103 50q15 -3 24 -21q0 -9 -9.5 -26.5t-31.5 -24.5q-10 -18 -45 -47q-7 -3 -20 -19t-23 -20q-4 -8 -5.5 -10t-4 -5.5t-4.5 -5.5l-12 -10q-1 0 -8 -5l-1 -1q-6 -11 -33 -39l-26 -27l-5 -12l-5 -9l-2 -5l2 -2
q20 5 33 15l39 37q27 25 40 32q12 21 37 38t49 17q14 0 19 -25l4 -20l-6 -31q0 -17 11 -30.5t26 -14.5q25 5 49 29q4 -1 4 -4l1 -12q0 -6 1 -15q0 -7 -4 -14q0 -18 -30 -48q-10 -8 -19 -11q-16 -9 -33 -11l-5 2q-3 1 -7 2q-3 0 -15 -2q-20 2 -35 17.5t-18 35.5l-3 21l-3 17
q0 6 -4 7q-4 0 -18 -12q-7 -6 -12 -12t-15 -15l-7 -2q-28 -37 -49 -45q-8 -17 -32.5 -34t-42.5 -17l-17 -6q-40 0 -47 49q0 8 7 26q2 3 5 9v2q0 6 -10 10zM326 450q-11 0 -22 11t-12 22q3 18 14 26q16 29 41 29q6 0 18 -5t17.5 -5t10.5 -5q0 -2 1.5 -9.5t1.5 -10.5
q0 -25 -6 -31l-9 -5q-7 -3 -10.5 -6t-9.5 -13q-4 4 -18 4h-11q-2 0 -6 -2zM173 448q-25 15 -25 41q0 17 18 33t35 16q18 0 33 -10q14 0 14 -29v-21q0 -4 -15.5 -12.5t-18.5 -15.5h-15z" />
    <glyph glyph-name="circumflex" unicode="&#xe5;" horiz-adv-x="406" 
d="M2 96l-2 29q-3 41 70 92q9 18 61 62q28 29 84 71q66 50 103 50q15 -3 24 -21q0 -9 -9.5 -26.5t-31.5 -24.5q-10 -18 -45 -47q-7 -3 -20 -19t-23 -20q-4 -8 -5.5 -10t-4 -5.5t-4.5 -5.5l-12 -10q-1 0 -8 -5l-1 -1q-6 -11 -33 -39l-26 -27l-5 -12l-5 -9l-2 -5l2 -2
q20 5 33 15l39 37q27 25 40 32q12 21 37 38t49 17q14 0 19 -25l4 -20l-6 -31q0 -17 11 -30.5t26 -14.5q25 5 49 29q4 -1 4 -4l1 -12q0 -6 1 -15q0 -7 -4 -14q0 -18 -30 -48q-10 -8 -19 -11q-16 -9 -33 -11l-5 2q-3 1 -7 2q-3 0 -15 -2q-20 2 -35 17.5t-18 35.5l-3 21l-3 17
q0 6 -4 7q-4 0 -18 -12q-7 -6 -12 -12t-15 -15l-7 -2q-28 -37 -49 -45q-8 -17 -32.5 -34t-42.5 -17l-17 -6q-40 0 -47 49q0 8 7 26q2 3 5 9v2q0 6 -10 10zM336 525h-2q0 3 6 12q0 26 -22 26q-9 0 -12 -1l-15 -15q-4 -2 -8.5 -3t-10.5 -16t-6 -26l2 -9l9 -3q24 1 59 35z
M232 444v7q-15 7 -18 41q0 19 2 27q3 44 35 76q1 0 7 4l16 16l20 19q26 0 26 -10q-6 -3 -6 -12q11 3 20 3h22q43 0 43 -46q0 -25 -9 -50.5t-29 -31.5q-6 -13 -16 -15q-13 -22 -69 -34q-16 0 -26 1.5t-18 4.5z" />
    <glyph glyph-name="caron" unicode="&#xe6;" 
d="M-65 640q-20 -13 -49 -25q-36 -15 -50 -26q0 -7 7.5 -14t13.5 -7l29 8q51 14 73 31q9 1 42.5 20t45.5 23l9 15l8 14q0 6 2 12l-2 13q-15 18 -37 18h-10q-31 -49 -82 -82z" />
    <glyph glyph-name="macron" unicode="&#xe7;" horiz-adv-x="332" 
d="M12 166l22 17q11 7 29 18q0 12 65 61q54 40 81 56l21 15q34 24 77 24l6 -23q3 -12 3 -20q0 -32 -82 -72q-8 -18 -45 -42q-47 -30 -54 -37q-14 -13 -14 -42l-4 -17l4 -13q1 -2 2.5 -6.5t3.5 -8t12 -8.5q18 -4 47 -7l25 5q6 2 10 6q22 10 62 37q46 31 49 49q0 4 4 4
q6 0 10 -6l6 -10l2 -35q-3 -18 -67 -60q-50 -33 -75 -44q-43 -19 -85 -19q-43 0 -86 41q-10 19 -15 48q-1 6 -4 21q0 4 -1 7q-3 0 -12.5 -9.5t-10.5 -9.5q-2 4 -2 6v58l1.5 2t3.5 4q6 4 7.5 6t3.5 4zM74 -67l7 24q0 1 1 5q0 1 1 4v5q3 11 24 18h3q2 1 4 1h4q6 0 19 -6
t13 -11q0 -22 -24 -61l-18 -40q-6 -17 -23 -50q-10 -16 -36 -27h-5l-2 2q0 17 6 34.5t12 34.5l8 27v23q0 11 6 17z" />
    <glyph glyph-name="breve" unicode="&#xe8;" horiz-adv-x="297" 
d="M37 39q-7 11 -17 35q-4 8 -6 19q-7 22 -7 65q0 6 2 18l9 25l10 25l12 26l16 29q14 26 24 30q23 31 63 50q1 6 16 14q4 1 12 4q12 2 18 2q29 0 45 -18q10 -3 10 -35q0 -35 -10 -39q0 -18 -59 -79q-22 -23 -41 -30q-8 -11 -16 -17l-17 -13l-4 -13q3 -25 17.5 -35t39.5 -16
q66 8 112 45q5 1 18 15t19 14t6 -12v-9q0 -36 -8 -47q-28 -17 -110 -69q-12 -5 -23 -7l-55 -10l-17 2q-21 0 -59 31zM158 287q-17 0 -36.5 -23.5t-22.5 -42.5q1 -4 6 -4q5 1 17 8q8 6 11 11q9 3 19 17t10 24q0 6 -4 10zM174 503q20 -13 49 -25q36 -15 50 -26q0 -7 -7.5 -14
t-13.5 -7l-29 8q-51 14 -73 31q-9 1 -41 19q-35 20 -47 24l-9 15l-8 14q0 6 -2 12l2 13q15 18 37 18h10q31 -49 82 -82z" />
    <glyph glyph-name="dotaccent" unicode="&#xe9;" horiz-adv-x="297" 
d="M37 39q-7 11 -17 35q-4 8 -6 19q-7 22 -7 65q0 6 2 18l9 25l10 25l12 26l16 29q14 26 24 30q23 31 63 50q1 6 16 14q4 1 12 4q12 2 18 2q29 0 45 -18q10 -3 10 -35q0 -35 -10 -39q0 -18 -59 -79q-22 -23 -41 -30q-8 -11 -16 -17l-17 -13l-4 -13q3 -25 17.5 -35t39.5 -16
q66 8 112 45q5 1 18 15t19 14t6 -12v-9q0 -36 -8 -47q-28 -17 -110 -69q-12 -5 -23 -7l-55 -10l-17 2q-21 0 -59 31zM158 287q-17 0 -36.5 -23.5t-22.5 -42.5q1 -4 6 -4q5 1 17 8q8 6 11 11q9 3 19 17t10 24q0 6 -4 10zM177 503q-20 -13 -49 -25q-36 -15 -50 -26q0 -7 8 -14
t13 -7l29 8q51 14 73 31q9 1 42.5 20t45.5 23l9 15l8 14q0 6 2 12l-2 13q-15 18 -37 18h-10q-31 -49 -82 -82z" />
    <glyph glyph-name="ring" unicode="&#xea;" horiz-adv-x="297" 
d="M37 39q-7 11 -17 35q-4 8 -6 19q-7 22 -7 65q0 6 2 18l9 25l10 25l12 26l16 29q14 26 24 30q23 31 63 50q1 6 16 14q4 1 12 4q12 2 18 2q29 0 45 -18q10 -3 10 -35q0 -35 -10 -39q0 -18 -59 -79q-22 -23 -41 -30q-8 -11 -16 -17l-17 -13l-4 -13q3 -25 17.5 -35t39.5 -16
q66 8 112 45q5 1 18 15t19 14t6 -12v-9q0 -36 -8 -47q-28 -17 -110 -69q-12 -5 -23 -7l-55 -10l-17 2q-21 0 -59 31zM158 287q-17 0 -36.5 -23.5t-22.5 -42.5q1 -4 6 -4q5 1 17 8q8 6 11 11q9 3 19 17t10 24q0 6 -4 10zM48 402q-13 4 -15 22l1 8q6 16 19 26q1 0 29 17
q25 14 34 27q5 1 13 5q2 2 10 7q14 10 20 10q15 0 43 -20q6 -5 39 -19q27 -12 34 -22q17 -11 17 -43q0 -14 -8 -18l-37 18q-32 16 -47 18q-34 25 -46 25q-10 0 -26 -13q-19 -14 -25 -16q-13 -4 -32 -17q-10 -7 -23 -15z" />
    <glyph glyph-name="ogonek" unicode="&#xeb;" horiz-adv-x="297" 
d="M37 39q-7 11 -17 35q-4 8 -6 19q-7 22 -7 65q0 6 2 18l9 25l10 25l12 26l16 29q14 26 24 30q23 31 63 50q1 6 16 14q4 1 12 4q12 2 18 2q29 0 45 -18q10 -3 10 -35q0 -35 -10 -39q0 -18 -59 -79q-22 -23 -41 -30q-8 -11 -16 -17l-17 -13l-4 -13q3 -25 17.5 -35t39.5 -16
q66 8 112 45q5 1 18 15t19 14t6 -12v-9q0 -36 -8 -47q-28 -17 -110 -69q-12 -5 -23 -7l-55 -10l-17 2q-21 0 -59 31zM158 287q-17 0 -36.5 -23.5t-22.5 -42.5q1 -4 6 -4q5 1 17 8q8 6 11 11q9 3 19 17t10 24q0 6 -4 10zM233 432q-11 0 -22 11t-12 22q3 18 14 26q16 29 41 29
q6 0 18 -5t17.5 -5t10.5 -5q0 -2 1.5 -9.5t1.5 -10.5q0 -25 -6 -31l-9 -5q-7 -3 -10.5 -6t-9.5 -13q-4 4 -18 4h-11q-2 0 -6 -2zM80 430q-25 15 -25 41q0 17 18 33t35 16q18 0 33 -10q14 0 14 -29v-21q0 -4 -15.5 -12.5t-18.5 -15.5h-15z" />
    <glyph glyph-name="tilde" unicode="&#xec;" horiz-adv-x="297" 
d="M-7 78q-3 8 -2 21l2 45q8 5 21 20.5t24 20.5q3 8 23 32q13 16 30 27q9 19 21 25q41 0 61 -29q3 -36 19 -108q8 -23 30 -27l13 4q10 5 24 10q3 9 15.5 19t21.5 12l-2 -62q-24 -48 -110 -69l-21 6q-35 16 -47 50l-8 22q-4 3 -15 25t-20 22q-10 0 -25 -16l-28 -29
q-10 -4 -27 -21zM134 405q20 -13 49 -25q36 -15 50 -26q0 -7 -7.5 -14t-13.5 -7l-29 8q-51 14 -73 31q-9 1 -41 19q-35 20 -47 24l-9 15l-8 14q0 6 -2 12l2 13q15 18 37 18h10q31 -49 82 -82z" />
    <glyph glyph-name="hungarumlaut" unicode="&#xed;" horiz-adv-x="297" 
d="M-7 78q-3 8 -2 21l2 45q8 5 21 20.5t24 20.5q3 8 23 32q13 16 30 27q9 19 21 25q41 0 61 -29q3 -36 19 -108q8 -23 30 -27l13 4q10 5 24 10q3 9 15.5 19t21.5 12l-2 -62q-24 -48 -110 -69l-21 6q-35 16 -47 50l-8 22q-4 3 -15 25t-20 22q-10 0 -25 -16l-28 -29
q-10 -4 -27 -21zM132 400q-20 -13 -49 -25q-36 -15 -50 -26q0 -7 8 -14t13 -7l29 8q51 14 73 31q9 1 42.5 20t45.5 23l9 15l8 14q0 6 2 12l-2 13q-15 18 -37 18h-10q-31 -49 -82 -82z" />
    <glyph glyph-name="mu" unicode="&#xee;" horiz-adv-x="297" 
d="M-7 78q-3 8 -2 21l2 45q8 5 21 20.5t24 20.5q3 8 23 32q13 16 30 27q9 19 21 25q41 0 61 -29q3 -36 19 -108q8 -23 30 -27l13 4q10 5 24 10q3 9 15.5 19t21.5 12l-2 -62q-24 -48 -110 -69l-21 6q-35 16 -47 50l-8 22q-4 3 -15 25t-20 22q-10 0 -25 -16l-28 -29
q-10 -4 -27 -21zM8 318q-13 4 -15 22l1 8q6 16 19 26q1 0 29 17q25 14 34 27q5 1 13 5q2 2 10 7q14 10 20 10q15 0 43 -20q6 -5 39 -19q27 -12 34 -22q17 -11 17 -43q0 -14 -8 -18l-37 18q-32 16 -47 18q-34 25 -46 25q-10 0 -26 -13q-19 -14 -25 -16q-13 -4 -32 -17
q-10 -7 -23 -15z" />
    <glyph glyph-name="endash" unicode="&#xef;" horiz-adv-x="297" 
d="M-7 78q-3 8 -2 21l2 45q8 5 21 20.5t24 20.5q3 8 23 32q13 16 30 27q9 19 21 25q41 0 61 -29q3 -36 19 -108q8 -23 30 -27l13 4q10 5 24 10q3 9 15.5 19t21.5 12l-2 -62q-24 -48 -110 -69l-21 6q-35 16 -47 50l-8 22q-4 3 -15 25t-20 22q-10 0 -25 -16l-28 -29
q-10 -4 -27 -21zM178 333q-11 0 -22 11t-12 22q3 18 14 26q16 29 41 29q6 0 18 -5t17.5 -5t10.5 -5q0 -2 1.5 -9.5t1.5 -10.5q0 -25 -6 -31l-9 -5q-7 -3 -10.5 -6t-9.5 -13q-4 4 -18 4h-11q-2 0 -6 -2zM25 331q-25 15 -25 41q0 17 18 33t35 16q18 0 33 -10q14 0 14 -29v-21
q0 -4 -15.5 -12.5t-18.5 -15.5h-15z" />
    <glyph glyph-name="emdash" unicode="&#xf0;" horiz-adv-x="297" 
d="M-2 88q-3 8 -2 21l2 45q8 5 21 20.5t24 20.5q3 8 23 32q13 16 30 27q9 19 21 25q41 0 61 -29q3 -36 19 -108q8 -23 30 -27l13 4q10 5 24 10q3 9 15.5 19t21.5 12l-2 -62q-24 -48 -110 -69l-21 6q-35 16 -47 50l-8 22q-4 3 -15 25t-20 22q-10 0 -25 -16l-28 -29
q-10 -4 -27 -21zM189 437q-11 0 -22 10.5t-12 21.5q3 17 14 27q18 28 41 28q8 0 19.5 -4.5t16 -4.5t5.5 -1l7 -7q1 -1 1 -18q0 -25 -6 -31l-8 -5q-14 -5 -20 -18q-4 3 -18 3h-12q-3 -1 -6 -1zM37 435q-26 15 -26 41q0 17 18 32.5t35 15.5q18 0 34 -9q13 0 13 -30v-21
q0 -5 -16 -13.5t-17 -13.5h-15l-14 -1z" />
    <glyph glyph-name="quoteleft" unicode="&#xf1;" horiz-adv-x="480" 
d="M127 -20q-4 -15 -41 -15q-18 0 -22 4l-3 11q2 6 2 14q0 6 -2 12q1 7 2 16q1 4 5 16l8 28q0 4 14 43q2 8 2.5 14t2.5 18q0 4 1 5q8 14 8 26q0 8 -8 8q-13 0 -21.5 -10t-15.5 -20q-2 -2 -16 -17l-27 -29q-6 -5 -18 -16q-2 2 -2 6l2 54q1 15 12 24q8 19 45 59l41 44
q15 17 43 44q20 15 43 15q35 0 35 -53q0 -22 -8 -47l-8 -25l-15 -49q-14 -46 -14 -51q4 0 8 4l23 30q11 15 49 46q22 28 42.5 44.5t47.5 16.5q15 0 31 -6l14 -21l13 -24l15 -34q6 -14 19 -32l8 -4l5 -2q8 4 23.5 19t21.5 16q0 -55 4 -60q-27 -33 -47 -48q-23 -17 -43 -17
q-22 5 -29 12q-5 4 -19 23l-19 32q-9 15 -19 21q-7 21 -21 21q-9 0 -37 -25l-31 -27q-6 -3 -16 -12q-8 -17 -20 -32l-38 -38zM212 415q-14 -4 -37 -14l-34 -15l-5 8q1 2 1.5 5.5t0.5 12.5q9 19 32 25q14 10 61 29l49 20h6q29 0 51 -22v-13l-4 -16l3 -4l6 -6q11 2 57 18
q21 10 24 11q22 10 33 10q5 0 6 -4q0 -29 -21 -42q-13 -7 -49 -15t-46 -13l-27 -8l-23 -6l-8 4q-3 3 -14 30q-9 23 -20 23q-10 0 -21 -6z" />
    <glyph glyph-name="quoteright" unicode="&#xf2;" horiz-adv-x="406" 
d="M88 12q-28 11 -35 43q0 7 -2 9q4 22 5 36q1 23 5 37q-12 0 -37 -25l-17 -17q-7 -5 -11 -5v6q0 9 0.5 13t3.5 14l-2 5l-2 3v17q10 16 52 55l28 26q11 10 29 25q12 23 60 62l34 28q1 1 5 2h9q31 0 31 -12l-6 -12l-6 -15q8 0 28 7.5t31 7.5q39 0 61 -31l5 -16q6 -13 6 -29
q0 -46 -13 -74q0 -2 -7 -15q-13 -16 -29 -46l-14 -13q-13 -12 -17 -22l-52 -46q-41 -36 -90 -36q-45 0 -53 18zM271 133q7 8 14 37q2 9 2 23q0 39 -31 39q-20 0 -49 -29q-13 -25 -33 -25q-25 -29 -31 -76q0 -38 23 -41q58 19 105 72zM313 27q-5 0 -10 8q9 16 22 30l31 33
q14 15 23 31q19 14 31 31q7 0 14 -24l4 -13q0 -23 -37 -45q-4 -3 -13 -8q-3 -2 -9 -5.5t-28 -20.5t-28 -17zM241 468q20 -13 49 -25q36 -15 50 -26q0 -7 -7.5 -14t-13.5 -7l-29 8q-51 14 -73 31q-9 1 -41 19q-35 20 -47 24l-9 15l-8 14q0 6 -2 12l2 13q15 18 37 18h10
q31 -49 82 -82z" />
    <glyph glyph-name="quotesinglbase" unicode="&#xf3;" horiz-adv-x="406" 
d="M88 12q-28 11 -35 43q0 7 -2 9q4 22 5 36q1 23 5 37q-12 0 -37 -25l-17 -17q-7 -5 -11 -5v6q0 9 0.5 13t3.5 14l-2 5l-2 3v17q10 16 52 55l28 26q11 10 29 25q12 23 60 62l34 28q1 1 5 2h9q31 0 31 -12l-6 -12l-6 -15q8 0 28 7.5t31 7.5q39 0 61 -31l5 -16q6 -13 6 -29
q0 -46 -13 -74q0 -2 -7 -15q-13 -16 -29 -46l-14 -13q-13 -12 -17 -22l-52 -46q-41 -36 -90 -36q-45 0 -53 18zM271 133q7 8 14 37q2 9 2 23q0 39 -31 39q-20 0 -49 -29q-13 -25 -33 -25q-25 -29 -31 -76q0 -38 23 -41q58 19 105 72zM313 27q-5 0 -10 8q9 16 22 30l31 33
q14 15 23 31q19 14 31 31q7 0 14 -24l4 -13q0 -23 -37 -45q-4 -3 -13 -8q-3 -2 -9 -5.5t-28 -20.5t-28 -17zM229 468q-20 -13 -49 -25q-36 -15 -50 -26q0 -7 8 -14t13 -7l29 8q51 14 73 31q9 1 42.5 20t45.5 23l9 15l8 14q0 6 2 12l-2 13q-15 18 -37 18h-10q-31 -49 -82 -82
z" />
    <glyph glyph-name="quotedblleft" unicode="&#xf4;" horiz-adv-x="406" 
d="M88 12q-28 11 -35 43q0 7 -2 9q4 22 5 36q1 23 5 37q-12 0 -37 -25l-17 -17q-7 -5 -11 -5v6q0 9 0.5 13t3.5 14l-2 5l-2 3v17q10 16 52 55l28 26q11 10 29 25q12 23 60 62l34 28q1 1 5 2h9q31 0 31 -12l-6 -12l-6 -15q8 0 28 7.5t31 7.5q39 0 61 -31l5 -16q6 -13 6 -29
q0 -46 -13 -74q0 -2 -7 -15q-13 -16 -29 -46l-14 -13q-13 -12 -17 -22l-52 -46q-41 -36 -90 -36q-45 0 -53 18zM271 133q7 8 14 37q2 9 2 23q0 39 -31 39q-20 0 -49 -29q-13 -25 -33 -25q-25 -29 -31 -76q0 -38 23 -41q58 19 105 72zM313 27q-5 0 -10 8q9 16 22 30l31 33
q14 15 23 31q19 14 31 31q7 0 14 -24l4 -13q0 -23 -37 -45q-4 -3 -13 -8q-3 -2 -9 -5.5t-28 -20.5t-28 -17zM123 387q-13 4 -15 22l1 8q6 16 19 26q1 0 29 17q25 14 34 27q5 1 13 5q2 2 10 7q14 10 20 10q15 0 43 -20q6 -5 39 -19q27 -12 34 -22q17 -11 17 -43q0 -14 -8 -18
l-37 18q-32 16 -47 18q-34 25 -46 25q-10 0 -26 -13q-19 -14 -25 -16q-13 -4 -32 -17q-10 -7 -23 -15z" />
    <glyph glyph-name="quotedblright" unicode="&#xf5;" horiz-adv-x="406" 
d="M88 12q-28 11 -35 43q0 7 -2 9q4 22 5 36q1 23 5 37q-12 0 -37 -25l-17 -17q-7 -5 -11 -5v6q0 9 0.5 13t3.5 14l-2 5l-2 3v17q10 16 52 55l28 26q11 10 29 25q12 23 60 62l34 28q1 1 5 2h9q31 0 31 -12l-6 -12l-6 -15q8 0 28 7.5t31 7.5q39 0 61 -31l5 -16q6 -13 6 -29
q0 -46 -13 -74q0 -2 -7 -15q-13 -16 -29 -46l-14 -13q-13 -12 -17 -22l-52 -46q-41 -36 -90 -36q-45 0 -53 18zM271 133q7 8 14 37q2 9 2 23q0 39 -31 39q-20 0 -49 -29q-13 -25 -33 -25q-25 -29 -31 -76q0 -38 23 -41q58 19 105 72zM313 27q-5 0 -10 8q9 16 22 30l31 33
q14 15 23 31q19 14 31 31q7 0 14 -24l4 -13q0 -23 -37 -45q-4 -3 -13 -8q-3 -2 -9 -5.5t-28 -20.5t-28 -17zM163 440q-14 -4 -37 -14l-34 -15l-5 8q1 2 1.5 5.5t0.5 12.5q9 19 32 25q14 10 61 29l49 20h6q29 0 51 -22v-13l-4 -16l3 -4l6 -6q11 2 57 18q21 10 24 11
q22 10 33 10q5 0 6 -4q0 -29 -21 -42q-13 -7 -49 -15t-46 -13l-27 -8l-23 -6l-8 4q-3 3 -14 30q-9 23 -20 23q-10 0 -21 -6z" />
    <glyph glyph-name="quotedblbase" unicode="&#xf6;" horiz-adv-x="406" 
d="M88 12q-28 11 -35 43q0 7 -2 9q4 22 5 36q1 23 5 37q-12 0 -37 -25l-17 -17q-7 -5 -11 -5v6q0 9 0.5 13t3.5 14l-2 5l-2 3v17q10 16 52 55l28 26q11 10 29 25q12 23 60 62l34 28q1 1 5 2h9q31 0 31 -12l-6 -12l-6 -15q8 0 28 7.5t31 7.5q39 0 61 -31l5 -16q6 -13 6 -29
q0 -46 -13 -74q0 -2 -7 -15q-13 -16 -29 -46l-14 -13q-13 -12 -17 -22l-52 -46q-41 -36 -90 -36q-45 0 -53 18zM271 133q7 8 14 37q2 9 2 23q0 39 -31 39q-20 0 -49 -29q-13 -25 -33 -25q-25 -29 -31 -76q0 -38 23 -41q58 19 105 72zM313 27q-5 0 -10 8q9 16 22 30l31 33
q14 15 23 31q19 14 31 31q7 0 14 -24l4 -13q0 -23 -37 -45q-4 -3 -13 -8q-3 -2 -9 -5.5t-28 -20.5t-28 -17zM303 397q-11 0 -22 11t-12 22q3 18 14 26q16 29 41 29q6 0 18 -5t17.5 -5t10.5 -5q0 -2 1.5 -9.5t1.5 -10.5q0 -25 -6 -31l-9 -5q-7 -3 -10.5 -6t-9.5 -13
q-4 4 -18 4h-11q-2 0 -6 -2zM150 395q-25 15 -25 41q0 17 18 33t35 16q18 0 33 -10q14 0 14 -29v-21q0 -4 -15.5 -12.5t-18.5 -15.5h-15z" />
    <glyph glyph-name="dagger" unicode="&#xf7;" 
 />
    <glyph glyph-name="daggerdbl" unicode="&#xf8;" 
d="M-98 510q20 -13 49 -25q36 -15 50 -26q0 -7 -8 -14t-13 -7l-29 8q-51 14 -73 31q-9 1 -41 19q-35 20 -47 24l-9 15l-8 14q0 6 -2 12l2 13q15 18 37 18h10q31 -49 82 -82z" />
    <glyph glyph-name="bullet" unicode="&#xf9;" horiz-adv-x="443" 
d="M90 6q-14 10 -20 25q-1 5 -4 18t-3 16l-4 42v6q0 20 -2 22q-3 0 -20.5 -13t-20.5 -17l-9 -9l-8 -7q-1 -1 -7 -3q-4 0 -4 35q0 24 16 37q25 21 43 43q4 6 42 61l38 56q22 22 51 22q13 0 13 -22q0 -5 -10 -55q-3 -6 -9 -23l-14 -38q-3 -13 -6 -30l-4 -49q-3 -32 8 -47
q1 0 2 -2q6 2 16 9q3 3 9.5 7t8 5.5t26.5 30.5l26 30l22 36q35 58 64 58q35 0 35 -57q0 -62 31 -62q11 0 19 6l21 15q11 11 15 12q6 0 6 -33v-14q0 -27 -38 -48q-33 -18 -62 -18q-28 0 -39 10q-14 8 -19 21l-11 29q-4 16 -7 16q-4 0 -17 -17l-20 -26l-25 -30
q-4 -5 -15 -16.5t-43 -34.5q-17 -9 -36 -9q-11 0 -35 12zM277 452q20 -13 49 -25q36 -15 50 -26q0 -7 -7.5 -14t-13.5 -7l-29 8q-51 14 -73 31q-9 1 -41 19q-35 20 -47 24l-9 15l-8 14q0 6 -2 12l2 13q15 18 37 18h10q31 -49 82 -82z" />
    <glyph glyph-name="ellipsis" unicode="&#xfa;" horiz-adv-x="443" 
d="M90 6q-14 10 -20 25q-1 5 -4 18t-3 16l-4 42v6q0 20 -2 22q-3 0 -20.5 -13t-20.5 -17l-9 -9l-8 -7q-1 -1 -7 -3q-4 0 -4 35q0 24 16 37q25 21 43 43q4 6 42 61l38 56q22 22 51 22q13 0 13 -22q0 -5 -10 -55q-3 -6 -9 -23l-14 -38q-3 -13 -6 -30l-4 -49q-3 -32 8 -47
q1 0 2 -2q6 2 16 9q3 3 9.5 7t8 5.5t26.5 30.5l26 30l22 36q35 58 64 58q35 0 35 -57q0 -62 31 -62q11 0 19 6l21 15q11 11 15 12q6 0 6 -33v-14q0 -27 -38 -48q-33 -18 -62 -18q-28 0 -39 10q-14 8 -19 21l-11 29q-4 16 -7 16q-4 0 -17 -17l-20 -26l-25 -30
q-4 -5 -15 -16.5t-43 -34.5q-17 -9 -36 -9q-11 0 -35 12zM350 447q-20 -13 -49 -25q-36 -15 -50 -26q0 -7 8 -14t13 -7l29 8q51 14 73 31q9 1 42.5 20t45.5 23l9 15l8 14q0 6 2 12l-2 13q-15 18 -37 18h-10q-31 -49 -82 -82z" />
    <glyph glyph-name="perthousand" unicode="&#xfb;" horiz-adv-x="443" 
d="M90 6q-14 10 -20 25q-1 5 -4 18t-3 16l-4 42v6q0 20 -2 22q-3 0 -20.5 -13t-20.5 -17l-9 -9l-8 -7q-1 -1 -7 -3q-4 0 -4 35q0 24 16 37q25 21 43 43q4 6 42 61l38 56q22 22 51 22q13 0 13 -22q0 -5 -10 -55q-3 -6 -9 -23l-14 -38q-3 -13 -6 -30l-4 -49q-3 -32 8 -47
q1 0 2 -2q6 2 16 9q3 3 9.5 7t8 5.5t26.5 30.5l26 30l22 36q35 58 64 58q35 0 35 -57q0 -62 31 -62q11 0 19 6l21 15q11 11 15 12q6 0 6 -33v-14q0 -27 -38 -48q-33 -18 -62 -18q-28 0 -39 10q-14 8 -19 21l-11 29q-4 16 -7 16q-4 0 -17 -17l-20 -26l-25 -30
q-4 -5 -15 -16.5t-43 -34.5q-17 -9 -36 -9q-11 0 -35 12zM160 391q-13 4 -15 22l1 8q6 16 19 26q1 0 29 17q25 14 34 27q5 1 13 5q2 2 10 7q14 10 20 10q15 0 43 -20q6 -5 39 -19q27 -12 34 -22q17 -11 17 -43q0 -14 -8 -18l-37 18q-32 16 -47 18q-34 25 -46 25
q-10 0 -26 -13q-19 -14 -25 -16q-13 -4 -32 -17q-10 -7 -23 -15z" />
    <glyph glyph-name="guilsinglleft" unicode="&#xfc;" horiz-adv-x="443" 
d="M90 6q-14 10 -20 25q-1 5 -4 18t-3 16l-4 42v6q0 20 -2 22q-3 0 -20.5 -13t-20.5 -17l-9 -9l-8 -7q-1 -1 -7 -3q-4 0 -4 35q0 24 16 37q25 21 43 43q4 6 42 61l38 56q22 22 51 22q13 0 13 -22q0 -5 -10 -55q-3 -6 -9 -23l-14 -38q-3 -13 -6 -30l-4 -49q-3 -32 8 -47
q1 0 2 -2q6 2 16 9q3 3 9.5 7t8 5.5t26.5 30.5l26 30l22 36q35 58 64 58q35 0 35 -57q0 -62 31 -62q11 0 19 6l21 15q11 11 15 12q6 0 6 -33v-14q0 -27 -38 -48q-33 -18 -62 -18q-28 0 -39 10q-14 8 -19 21l-11 29q-4 16 -7 16q-4 0 -17 -17l-20 -26l-25 -30
q-4 -5 -15 -16.5t-43 -34.5q-17 -9 -36 -9q-11 0 -35 12zM320 386q-11 0 -22 11t-12 22q3 18 14 26q16 29 41 29q6 0 18 -5t17.5 -5t10.5 -5q0 -2 1.5 -9.5t1.5 -10.5q0 -25 -6 -31l-9 -5q-7 -3 -10.5 -6t-9.5 -13q-4 4 -18 4h-11q-2 0 -6 -2zM167 384q-25 15 -25 41
q0 17 18 33t35 16q18 0 33 -10q14 0 14 -29v-21q0 -4 -15.5 -12.5t-18.5 -15.5h-15z" />
    <glyph glyph-name="guilsinglright" unicode="&#xfd;" horiz-adv-x="443" 
d="M229 111l-17 -16q-18 -17 -20 -18q-12 -9 -24 -11q-13 -23 -32 -33q-11 -5 -44 -13q-20 5 -25 8.5t-8 20.5q4 28 4 29q-2 2 -3 14l-1 15q-2 25 -6 26q-4 0 -30 -23t-31 -26q-2 2 -4 6q8 18 8 27l-4 28q3 8 34 34.5t38 35.5q18 21 36 43q25 27 45 27q13 0 23 -9t10 -22
q-2 -9 -5 -23q-3 -7 -6 -18l-14 -46q-3 -12 -8 -36q0 -14 5 -16l10 2q1 5 22 19l27 18q18 15 40 41q35 41 37 43q10 11 32 22q3 2 33 31q18 18 40 18q25 0 25 -20q0 -18 -18 -62l-6 -25q-1 -4 -9 -26l-29 -79l-4 -17l4 -4l4 4q6 4 11 11q11 14 22 22q6 2 31 26q22 23 31 23
q3 0 4 -1l2 -1q0 -6 -2 -14l4 -37v-4q-18 -21 -67 -60q-59 -48 -73 -61q-27 -25 -48 -64l-39 -58q-33 -49 -45 -73q-18 -10 -43 -41q-28 -35 -41 -46q-20 -16 -48 -16q-15 0 -17.5 3t-8.5 20q0 11 16 35q8 11 17 26q8 2 18 17q7 16 14 16q11 24 41 60q7 7 9 11l8 7
q31 48 58 73q9 9 18 15q2 14 17 50t24 49q0 8 5 32l7 33l1 9l1 6q0 9 -4 10q-11 -7 -32 -22q-4 -3 -12 -9.5t-8 -15.5zM302 431q-20 -13 -49 -25q-36 -15 -50 -26q0 -7 8 -14t13 -7l29 8q51 14 73 31q9 1 42.5 20t45.5 23l9 15l8 14q0 6 2 12l-2 13q-15 18 -37 18h-10
q-31 -49 -82 -82z" />
    <glyph glyph-name="fraction" unicode="&#xfe;" horiz-adv-x="443" 
d="M229 111l-17 -16q-18 -17 -20 -18q-12 -9 -24 -11q-13 -23 -32 -33q-11 -5 -44 -13q-20 5 -25 8.5t-8 20.5q4 28 4 29q-2 2 -3 14l-1 15q-2 25 -6 26q-4 0 -30 -23t-31 -26q-2 2 -4 6q8 18 8 27l-4 28q3 8 34 34.5t38 35.5q18 21 36 43q25 27 45 27q13 0 23 -9t10 -22
q-2 -9 -5 -23q-3 -7 -6 -18l-14 -46q-3 -12 -8 -36q0 -14 5 -16l10 2q1 5 22 19l27 18q18 15 40 41q35 41 37 43q10 11 32 22q3 2 33 31q18 18 40 18q25 0 25 -20q0 -18 -18 -62l-6 -25q-1 -4 -9 -26l-29 -79l-4 -17l4 -4l4 4q6 4 11 11q11 14 22 22q6 2 31 26q22 23 31 23
q3 0 4 -1l2 -1q0 -6 -2 -14l4 -37v-4q-18 -21 -67 -60q-59 -48 -73 -61q-27 -25 -48 -64l-39 -58q-33 -49 -45 -73q-18 -10 -43 -41q-28 -35 -41 -46q-20 -16 -48 -16q-15 0 -17.5 3t-8.5 20q0 11 16 35q8 11 17 26q8 2 18 17q7 16 14 16q11 24 41 60q7 7 9 11l8 7
q31 48 58 73q9 9 18 15q2 14 17 50t24 49q0 8 5 32l7 33l1 9l1 6q0 9 -4 10q-11 -7 -32 -22q-4 -3 -12 -9.5t-8 -15.5zM202 385q-14 -4 -37 -14l-34 -15l-5 8q1 2 1.5 5.5t0.5 12.5q9 19 32 25q14 10 61 29l49 20h6q29 0 51 -22v-13l-4 -16l3 -4l6 -6q11 2 57 18
q21 10 24 11q22 10 33 10q5 0 6 -4q0 -29 -21 -42q-13 -7 -49 -15t-46 -13l-27 -8l-23 -6l-8 4q-3 3 -14 30q-9 23 -20 23q-10 0 -21 -6z" />
    <glyph glyph-name="trademark" unicode="&#xff;" horiz-adv-x="443" 
d="M229 111l-17 -16q-18 -17 -20 -18q-12 -9 -24 -11q-13 -23 -32 -33q-11 -5 -44 -13q-20 5 -25 8.5t-8 20.5q4 28 4 29q-2 2 -3 14l-1 15q-2 25 -6 26q-4 0 -30 -23t-31 -26q-2 2 -4 6q8 18 8 27l-4 28q3 8 34 34.5t38 35.5q18 21 36 43q25 27 45 27q13 0 23 -9t10 -22
q-2 -9 -5 -23q-3 -7 -6 -18l-14 -46q-3 -12 -8 -36q0 -14 5 -16l10 2q1 5 22 19l27 18q18 15 40 41q35 41 37 43q10 11 32 22q3 2 33 31q18 18 40 18q25 0 25 -20q0 -18 -18 -62l-6 -25q-1 -4 -9 -26l-29 -79l-4 -17l4 -4l4 4q6 4 11 11q11 14 22 22q6 2 31 26q22 23 31 23
q3 0 4 -1l2 -1q0 -6 -2 -14l4 -37v-4q-18 -21 -67 -60q-59 -48 -73 -61q-27 -25 -48 -64l-39 -58q-33 -49 -45 -73q-18 -10 -43 -41q-28 -35 -41 -46q-20 -16 -48 -16q-15 0 -17.5 3t-8.5 20q0 11 16 35q8 11 17 26q8 2 18 17q7 16 14 16q11 24 41 60q7 7 9 11l8 7
q31 48 58 73q9 9 18 15q2 14 17 50t24 49q0 8 5 32l7 33l1 9l1 6q0 9 -4 10q-11 -7 -32 -22q-4 -3 -12 -9.5t-8 -15.5zM302 360q-11 0 -22 11t-12 22q3 18 14 26q16 29 41 29q6 0 18 -5t17.5 -5t10.5 -5q0 -2 1.5 -9.5t1.5 -10.5q0 -25 -6 -31l-9 -5q-7 -3 -10.5 -6
t-9.5 -13q-4 4 -18 4h-11q-2 0 -6 -2zM149 358q-25 15 -25 41q0 17 18 33t35 16q18 0 33 -10q14 0 14 -29v-21q0 -4 -15.5 -12.5t-18.5 -15.5h-15z" />
    <glyph glyph-name="ehoahuyen" unicode="&#x102;" horiz-adv-x="480" 
d="M23 -63q-20 -7 -31 -7q-12 0 -12 25v11q0 3 2 9l5 25l5 20q11 43 14 44q0 16 12 51q11 32 11 43q-7 0 -11 -2q-9 1 -13.5 6.5t-4.5 19.5q0 91 64 91q4 6 14 32q13 34 20 45l9 40q6 28 24 61q10 18 18 55q10 43 15 56q8 21 29 38l4 5q-1 3 -6.5 9.5t-6.5 12.5q8 17 15 24
q14 9 27.5 11t23.5 28q2 5 4 13q10 0 17.5 5.5t9.5 7t9 8.5l18 13q7 5 16 5q10 0 20.5 -7t10.5 -10q-1 -13 -12 -39q-8 -19 -11 -32q0 -7 19 -16q3 -2 6 -3l23 -10q10 -4 16 -12q26 -26 26 -115v-6l-1 -17l-1 -14l4 -13q4 -9 4 -26q0 -20 -4 -51l4 -47q0 -4 6.5 -8t6.5 -11
q0 -16 -3 -19l-16 -15q-1 -2 -1.5 -8t-0.5 -22q0 -26 -2 -34q-5 -15 -5.5 -48t-6.5 -48l4 -17q-6 -8 -11 -39q-5 -34 -10 -43q0 -2 -2 -8q0 -26 -39 -39q-10 0 -10 17l4 145q1 29 -4 76v47h-2q-6 0 -30 -7t-38 -7q-8 0 -53 -15q-23 -8 -39 -15l-35 -16q-9 -4 -32 -4
q-4 -25 -15 -53q-2 -5 -16 -26q0 -1 -2 -3q-8 -58 -19 -75l-4 -6q-3 -24 -14 -58q-9 -27 -16 -28zM340 307v4q4 8 4 37q-3 20 -6 31l4 19q-6 0 -6 34q2 14 2 43l-5 5q-3 5 -5 10q-22 49 -55 49q-19 0 -34 -42l-10 -28q-11 -16 -26 -47q-11 -40 -21 -57l-4 -13q-2 -7 -6 -16
q-24 -31 -24 -47l9 -3l13 -3l5 2.5t5 1.5t8 1l22 3l24 2h24q14 2 21 2q36 12 61 12zM430 891q13 -4 15 -22l-1 -8q-7 -19 -48 -44q-24 -15 -34 -26q-6 -1 -12 -5q-2 -2 -10 -7q-14 -10 -21 -10q-14 0 -42 20q-6 4 -39 19q-28 12 -35 22q-17 11 -17 43q0 13 8 18l38 -18
q34 -16 46 -18q35 -25 46 -25q10 0 27 13.5t24 15.5q12 4 28 15q20 14 27 17z" />
    <glyph glyph-name="ehoasac" unicode="&#x103;" horiz-adv-x="406" 
d="M2 96l-2 29q-3 41 70 92q9 18 61 62q28 29 84 71q66 50 103 50q15 -3 24 -21q0 -9 -9.5 -26.5t-31.5 -24.5q-10 -18 -45 -47q-7 -3 -20 -19t-23 -20q-4 -8 -5.5 -10t-4 -5.5t-4.5 -5.5l-12 -10q-1 0 -8 -5l-1 -1q-6 -11 -33 -39l-26 -27l-5 -12l-5 -9l-2 -5l2 -2
q20 5 33 15l39 37q27 25 40 32q12 21 37 38t49 17q14 0 19 -25l4 -20l-6 -31q0 -17 11 -30.5t26 -14.5q25 5 49 29q4 -1 4 -4l1 -12q0 -6 1 -15q0 -7 -4 -14q0 -18 -30 -48q-10 -8 -19 -11q-16 -9 -33 -11l-5 2q-3 1 -7 2q-3 0 -15 -2q-20 2 -35 17.5t-18 35.5l-3 21l-3 17
q0 6 -4 7q-4 0 -18 -12q-7 -6 -12 -12t-15 -15l-7 -2q-28 -37 -49 -45q-8 -17 -32.5 -34t-42.5 -17l-17 -6q-40 0 -47 49q0 8 7 26q2 3 5 9v2q0 6 -10 10zM381 545q13 -4 15 -22l-1 -8q-7 -19 -48 -44q-24 -15 -34 -26q-6 -1 -12 -5q-2 -2 -10 -7q-14 -10 -21 -10
q-14 0 -42 20q-6 4 -39 19q-28 12 -35 22q-17 11 -17 43q0 13 8 18l38 -18q34 -16 46 -18q35 -25 46 -25q10 0 27 13.5t24 15.5q12 4 28 15q20 14 27 17z" />
    <glyph glyph-name="ahoasac" unicode="&#x110;" horiz-adv-x="520" 
d="M146 270q-3 -12 -10 -45q-5 -26 -11 -58l-16 -81q-4 -19 -12 -38q-19 -44 -40 -48q-9 0 -11 2l-1 8q0 5 -3 8q4 23 8 55q1 46 8 136q3 18 6 51q-36 0 -80 -18h-3q-1 -1 -1 -2q-11 3 -11 16q0 43 62 68q25 10 48 10q0 4 -6 25q4 9 9 28q1 25 5 74q3 27 6 36q6 19 19 32
q1 1 3 3.5t5 6t6 7.5q9 12 16.5 18.5t18.5 7.5l-2 8q-14 7 -40 15l-24 8q-28 9 -47 26q-6 8 -8 29l-2 24l4 8q2 4 5 5l12 2q13 0 15 -2l10 4l8 2q37 0 64 -19l6 1l4 1q12 0 21 -6t16 -8q57 -7 143 -65l62 -42q9 -6 45 -51q23 -29 35 -57.5t12 -71.5q0 -90 -64 -187
q-27 -41 -65 -79q-19 -19 -27 -39l11 5q9 3 12 3q8 0 8 -6q0 -15 -11.5 -26.5t-16.5 -14.5q-7 -7 -18 -14l-50 -31q-32 -20 -92 -53q-43 -19 -89 -19q-7 0 -15 9t-8 16q0 8 14 25l16 20q12 10 32 17l26 9q74 25 116 72q26 29 49.5 61.5t50.5 77.5q3 5 17 19l7 23
q10 34 12 53q1 11 1 28q-2 4 -5 6.5t-5 8.5q-6 64 -58 102l-14 13l-15 16l-14 10q-11 4 -55 29l-35 20q-4 -3 -24 -84q-9 -30 -16 -64l-12 -55q13 0 37 4q30 5 38 5q47 0 47 -39q0 -47 -27 -56l-14 3l-23 4z" />
    <glyph glyph-name="yhoanang" unicode="&#x111;" horiz-adv-x="463" 
d="M96 2h4q-25 -14 -35 -14q-46 0 -50 37q0 35 21 80l-3 1l-6 1l-4 -1l-3 -1l-8 -9l-8 -8q-5 3 -6 6q0 7 4 16.5t4 12.5l-2 6q-1 3 -1 10q0 27 59 62l29 34q12 11 33 35q15 13 28 19q11 16 28 32q4 5 33 29l25 21l16 13q4 4 13 10q5 2 11 4q22 50 26 62q10 35 18 56
q-44 1 -87 2q-53 5 -53 21q0 3 2 7q4 12 61 12q45 0 91 -6q12 27 42 88q25 51 57 64h7q22 0 22 -41q0 -39 -16 -70q0 -10 -5 -27q-2 -4 -6 -14q23 1 43 -4t20 -11q0 -2 -1 -3q1 -3 1 -5q0 -15 -75 -11q0 -25 -8 -42q-10 -23 -21 -38q-5 -26 -17 -42q0 -18 -20 -50
q-17 -27 -17 -78q0 -124 70 -131q41 15 63 27q3 0 5 -2l2 -4l-2 -9l-3 -10q1 -1 3 -16l2 -18q-40 -46 -115 -46q-33 6 -58 26.5t-30 55.5q-5 7 -9 26q-3 16 -6 17q-24 0 -49 -57q-26 -31 -80 -93q-18 -19 -39 -32zM222 205l21 34l27 42l2 37q-33 -23 -44 -42l-11 -14
q-24 -24 -60 -81q-39 -62 -39 -85q7 0 18 11l28 29zM243 239z" />
    <glyph glyph-name="yhoanang" unicode="&#x20ab;" horiz-adv-x="463" 
d="M96 2h4q-25 -14 -35 -14q-46 0 -50 37q0 35 21 80l-3 1l-6 1l-4 -1l-3 -1l-8 -9l-8 -8q-5 3 -6 6q0 7 4 16.5t4 12.5l-2 6q-1 3 -1 10q0 27 59 62l29 34q12 11 33 35q15 13 28 19q11 16 28 32q4 5 33 29l25 21l16 13q4 4 13 10q5 2 11 4q22 50 26 62q10 35 18 56
q-44 1 -87 2q-53 5 -53 21q0 3 2 7q4 12 61 12q45 0 91 -6q12 27 42 88q25 51 57 64h7q22 0 22 -41q0 -39 -16 -70q0 -10 -5 -27q-2 -4 -6 -14q23 1 43 -4t20 -11q0 -2 -1 -3q1 -3 1 -5q0 -15 -75 -11q0 -25 -8 -42q-10 -23 -21 -38q-5 -26 -17 -42q0 -18 -20 -50
q-17 -27 -17 -78q0 -124 70 -131q41 15 63 27q3 0 5 -2l2 -4l-2 -9l-3 -10q1 -1 3 -16l2 -18q-40 -46 -115 -46q-33 6 -58 26.5t-30 55.5q-5 7 -9 26q-3 16 -6 17q-24 0 -49 -57q-26 -31 -80 -93q-18 -19 -39 -32zM222 205l21 34l27 42l2 37q-33 -23 -44 -42l-11 -14
q-24 -24 -60 -81q-39 -62 -39 -85q7 0 18 11l28 29zM243 239z" />
    <glyph glyph-name="ochoahoi" unicode="&#x128;" horiz-adv-x="203" 
d="M45 0l-12 94q4 52 4 64q0 4 3 11t3 11v33q3 31 10 93q8 50 8 73q0 47 -16 47l-1 8l-1 11l4 21q4 21 4 24q0 4 -4 12l13 43l18 62q22 77 70 77q26 15 38 15q17 0 17 -27q0 -16 -11 -60l-10 -40q0 -37 -11 -74q-2 -9 -5 -23l-12 -47l2 -1q-29 -122 -29 -216q0 -9 -11 -86
q-3 -21 -3 -25q0 -40 14 -88q0 -12 -13.5 -19t-21.5 -18q-9 -4 -22 -4q-21 0 -25 29zM81 793q-14 -4 -37 -14l-34 -15l-5 8q1 2 1.5 5.5t0.5 12.5q9 19 32 25q14 10 61 29l49 20h6q29 0 51 -22v-13l-4 -16l3 -4l6 -6q11 2 57 18q21 10 24 11q22 10 33 10q5 0 6 -4
q0 -29 -21 -42q-13 -7 -49 -15t-46 -13l-27 -8l-23 -6l-8 4q-3 3 -14 30q-9 23 -20 23q-10 0 -21 -6z" />
    <glyph glyph-name="obhoanga" unicode="&#x129;" horiz-adv-x="297" 
d="M-7 78q-3 8 -2 21l2 45q8 5 21 20.5t24 20.5q3 8 23 32q13 16 30 27q9 19 21 25q41 0 61 -29q3 -36 19 -108q8 -23 30 -27l13 4q10 5 24 10q3 9 15.5 19t21.5 12l-2 -62q-24 -48 -110 -69l-21 6q-35 16 -47 50l-8 22q-4 3 -15 25t-20 22q-10 0 -25 -16l-28 -29
q-10 -4 -27 -21zM46 382q-14 -4 -37 -14l-34 -15l-5 8q1 2 1.5 5.5t0.5 12.5q9 19 32 25q14 10 61 29l49 20h6q29 0 51 -22v-13l-4 -16l3 -4l6 -6q11 2 57 18q21 10 24 11q22 10 33 10q5 0 6 -4q0 -29 -21 -42q-13 -7 -49 -15t-46 -13l-27 -8l-23 -6l-8 4q-3 3 -14 30
q-9 23 -20 23q-10 0 -21 -6z" />
    <glyph glyph-name="degree" unicode="&#x152;" horiz-adv-x="15" 
d="M-152 866q-1 3 -1 7v3q0 29 19 51t48 25q2 1 10 1q28 0 50 -24.5t29 -53.5q2 -9 2 -13q0 -44 -64 -87q-54 -37 -93 -41q6 12 9 19q59 64 59 76q0 7 -37 17q-30 8 -31 20z" />
    <glyph glyph-name="Acircumflex" unicode="&#x153;" horiz-adv-x="15" 
d="M-146 587v10q0 29 19 50.5t47 25.5h10q49 0 77 -66q5 -12 5 -24q0 -43 -64 -87q-53 -36 -94 -41q3 6 10 19q58 63 58 76q0 2 -1.5 4t-35.5 12q-30 9 -31 21z" />
    <glyph glyph-name="logicalnot" unicode="&#x160;" horiz-adv-x="369" 
d="M66 -61l-26 9q-13 4 -22.5 13t-9.5 25q0 18 15 28l14 9l16 10q18 11 59 28.5t60 30.5h8q13 0 13 -16q0 -6 -5 -9l-13 -6l-14 -6q-5 -5 -5 -10l6 -6q10 2 18 10l20 20l15 17q0 7 -3 8q1 7 6 10l10 10q6 6 10 11t4 14q0 22 -25 52q-69 83 -125 129q-14 12 -14 30
q-11 0 -25 25q-10 20 -14 35q0 19 -4 31q7 73 50 129q44 46 115.5 90.5t130.5 61.5q4 1 13 1q18 0 27.5 -12.5t9.5 -30.5q0 -17 -8 -41l-2 -4q-79 -71 -148 -100q-2 0 -8 -2q-14 3 -14 18q0 12 10 19l22 16q11 8 11 18q0 3 -6 3l-4 -2q-35 -18 -64 -55.5t-29 -72.5
q16 -67 83 -140l63 -69q41 -60 41 -114q18 0 18 -23q0 -11 -6 -17l-2.5 -2t-4.5 -4q-8 -4 -11 -5q-12 -6 -17 -11q-10 -4 -20 -17l-11 -14q-13 -17 -26 -25l-44 -28q-39 -25 -48 -35q-3 -1 -24 -13q-16 -7 -32.5 -14t-33.5 -7zM160 883q-13 -4 -15 -22l1 -8q6 -16 19 -26
q1 0 29 -17q25 -14 34 -27q5 -1 13 -5q2 -2 10 -7q14 -10 20 -10q15 0 43 20q6 5 39 19q27 12 34 22q17 11 17 43q0 14 -8 18l-37 -18q-32 -16 -47 -18q-34 -25 -46 -25q-10 0 -26 13q-19 14 -25 16q-13 4 -32 17q-10 7 -23 15z" />
    <glyph glyph-name="Agrave" unicode="&#x161;" horiz-adv-x="314" 
d="M-2 90l2 12q0 1 -2 20l-2 19q0 17 39 48q10 8 22 20q7 10 21 23l20 22q6 2 15 11q3 3 21 23l18 21l18 20q4 5 10 9q3 4 12 10.5t21 6.5q53 0 53 -50q0 -30 -4 -35v-10q0 -37 -26 -114q-16 -48 -19 -70q4 -8 4 -6q5 0 33 24l29 25q31 43 39 43q4 0 4 -4l-2 -7
q-2 -7 -2 -10l6 -34q0 -8 -13 -21t-14 -16q-14 -20 -41 -38l-53 -35q-25 -16 -37 -38l-22 -10l-7 -5l-8 -5q-20 0 -20 22q-17 31 -17 90l-2 7q0 4 -2 6q0 14 12.5 27t26.5 13q8 0 11 -10l4 -10l1 1q17 3 17 114v14q0 6 -6 10l-3 1l-5 1q-3 0 -10.5 -5.5t-15.5 -14.5l-13 -12
q-18 -15 -51 -43q-20 -18 -31 -31q-26 -29 -31 -29zM95 527q-13 -4 -15 -22l1 -8q6 -16 19 -26q1 0 29 -17q25 -14 34 -27q5 -1 13 -5q2 -2 10 -7q14 -10 20 -10q15 0 43 20q6 5 39 19q27 12 34 22q17 11 17 43q0 14 -8 18l-37 -18q-32 -16 -47 -18q-34 -25 -46 -25
q-10 0 -26 13q-19 14 -25 16q-13 4 -32 17q-10 7 -23 15z" />
    <glyph glyph-name="athsac" unicode="&#x168;" horiz-adv-x="520" 
d="M63 191q-3 3 -8 26l2 27l-6 24l2 17l4 20q-6 14 -6 125q0 73 8 86q0 75 5 121q1 13 12.5 26t23.5 13q6 0 14.5 -20t14.5 -23q31 -17 31 -51q0 -23 -7 -59q-9 -45 -8 -56l1 -14q1 -18 -9 -39q-1 -10 -4 -31l2 -47q0 -8 -4 -27q0 -26 9 -80q7 -40 10 -41q9 -56 45 -92
q12 -12 20 -12q33 0 67 51q16 24 23 31q18 35 28 69l25 87q14 49 29 82q0 28 13 75l1 5q12 42 15 69q0 4 6 20l8 21l3 14l5 12q2 4 9 11q0 2 -2 4q4 25 16 54q0 9 19.5 21.5t29.5 12.5q8 0 11 -8l4 -20l2 -25q2 -26 -6 -85q-7 -51 -13 -75q-7 -31 -22 -92l-23 -96
q-33 -138 -45 -252l2 -16q0 -9 2 -15q14 -9 14 -19q0 -7 -9 -18t-12 -14.5t-8 -7.5q-11 -9 -22.5 -19t-25.5 -10q-20 0 -23 33l1 11l1 7q0 7 -4 14q12 71 12 109q0 9 -6 10q-4 0 -9 -6l-15 -27q-62 -114 -154 -114q-34 0 -52 30q-4 8 -10 16q-2 5 -5 12l-13 30
q-15 34 -21 108l1 4zM227 812q-14 -4 -37 -14l-34 -15l-5 8q1 2 1.5 5.5t0.5 12.5q9 19 32 25q14 10 61 29l49 20h6q29 0 51 -22v-13l-4 -16l3 -4l6 -6q11 2 57 18q21 10 24 11q22 10 33 10q5 0 6 -4q0 -29 -21 -42q-13 -7 -49 -15t-46 -13l-27 -8l-23 -6l-8 4q-3 3 -14 30
q-9 23 -20 23q-10 0 -21 -6z" />
    <glyph glyph-name="uchoahuyen" unicode="&#x169;" horiz-adv-x="443" 
d="M90 6q-14 10 -20 25q-1 5 -4 18t-3 16l-4 42v6q0 20 -2 22q-3 0 -20.5 -13t-20.5 -17l-9 -9l-8 -7q-1 -1 -7 -3q-4 0 -4 35q0 24 16 37q25 21 43 43q4 6 42 61l38 56q22 22 51 22q13 0 13 -22q0 -5 -10 -55q-3 -6 -9 -23l-14 -38q-3 -13 -6 -30l-4 -49q-3 -32 8 -47
q1 0 2 -2q6 2 16 9q3 3 9.5 7t8 5.5t26.5 30.5l26 30l22 36q35 58 64 58q35 0 35 -57q0 -62 31 -62q11 0 19 6l21 15q11 11 15 12q6 0 6 -33v-14q0 -27 -38 -48q-33 -18 -62 -18q-28 0 -39 10q-14 8 -19 21l-11 29q-4 16 -7 16q-4 0 -17 -17l-20 -26l-25 -30
q-4 -5 -15 -16.5t-43 -34.5q-17 -9 -36 -9q-11 0 -35 12zM209 429q-14 -4 -37 -14l-34 -15l-5 8q1 2 1.5 5.5t0.5 12.5q9 19 32 25q14 10 61 29l49 20h6q29 0 51 -22v-13l-4 -16l3 -4l6 -6q11 2 57 18q21 10 24 11q22 10 33 10q5 0 6 -4q0 -29 -21 -42q-13 -7 -49 -15
t-46 -13l-27 -8l-23 -6l-8 4q-3 3 -14 30q-9 23 -20 23q-10 0 -21 -6z" />
    <glyph glyph-name="yen" unicode="&#x192;" horiz-adv-x="465" 
d="M47 -281q-7 0 -49 -20l-37 -4q-16 0 -20 4q-5 -2 -15 -4q-19 0 -26 6.5t-9 17.5l-6 31q6 21 6 57l12 8l13 9q2 1 10 4l1 -2q5 -3 13 -20t19 -21q9 2 24 7q7 1 19 3q20 11 49 84q24 60 31 98q1 7 30 132q11 47 36 141v2q0 8 -11 8h-8q-19 0 -31 -4q1 0 -12 -2l-25 -4l-1 1
v3q0 18 5 43q7 33 17 33q16 0 24 -1l23 -3q27 3 41 10q4 4 18 68q16 71 19 80q25 104 45 133q0 27 39 52l27 17q16 7 26 7q8 0 23 -4q24 10 41 10q35 0 35 -84q0 -16 -11 -34t-26 -18q-11 2 -11 17q-13 22 -36 22q-14 0 -29 -14.5t-19 -28.5l-27 -97q-7 -27 -18 -62
q0 -8 -8 -27.5t-8 -28.5l37 2q9 0 22 -4q20 10 80 10q-6 -6 -22 -35q-14 -25 -21 -28l-51 -6q-48 -6 -66 -12q-3 -17 -20 -80l-18 -66q-9 -45 -26 -120q-11 -44 -22 -79q5 -3 5 -14q0 -8 -3 -18l-13 -28l-11 -29q-4 -11 -4 -21l-19 -29q-15 -24 -51 -68z" />
    <glyph glyph-name="ahoahoi" unicode="&#x1a0;" horiz-adv-x="537" 
d="M270 10l-41 -13l-45 -15q-15 -5 -38 -5q-82 0 -109 92q-12 41 -12 79q0 1 -0.5 2.5t-1.5 1.5q8 32 8 82q0 6 4 17t4 17q0 23 -6 23q-4 0 -4 -6q-1 -16 -19 -21q-12 5 -12 11l4 25q5 31 16 50q35 61 69 153q13 34 35 86q15 34 34 67l28 20q17 0 17 -22q0 -14 -15 -47
q0 -6 -4 -15q0 -4 4 -8q15 5 15 14q11 20 51 39q14 22 31 28q2 1 5.5 2t4.5 1l21 4q4 0 13 6t13 6q74 -14 130.5 -85t56.5 -148q0 -89 -32 -174q-33 -88 -92 -150l-47 -44q-27 -25 -44 -37t-42 -36zM316 125q32 26 58 59.5t35 73.5q6 19 13 27q16 47 16 92q0 23 -9 61
q-18 76 -68 111q-27 19 -64 19q-79 -7 -147 -93l-27 -152q-4 -22 -4 -65v-12q0 -6 -2 -17q-2 -22 -2 -30q10 -62 17 -84q19 -52 57 -52q43 0 67 17q9 4 30 21zM561 625l8 33q0 1 1 5q0 1 1 4v6q3 11 25 18q1 0 3 1h4h4q5 0 19 -6.5t14 -11.5q0 -3 -6 -26q-2 -7 -18 -48
l-19 -48q-6 -21 -23 -60q-10 -19 -38 -32h-5l-2 2q0 12 18 84l8 32v27q0 14 6 20z" />
    <glyph glyph-name="ahoahuyen" unicode="&#x1a1;" horiz-adv-x="406" 
d="M88 12h-1q-28 11 -35 43q0 7 -2 9q4 22 5 36q1 23 5 37q-12 0 -37 -25l-17 -17q-7 -5 -11 -5v6q0 9 0.5 13t3.5 14l-2 5l-2 3v17q10 16 52 55l28 26q11 10 29 25q12 23 60 62l34 28q1 1 5 2h9q31 0 31 -12l-6 -12l-6 -15q8 0 28 7.5t31 7.5q39 0 61 -31l5 -16
q6 -13 6 -29q-3 -21 -14 -46q18 10 23 37.5t16 84.5q4 19 23 19q8 0 18.5 -1.5t10.5 -15.5q0 -20 -19 -60q-29 -88 -70 -92q0 -2 -7 -15q-13 -16 -29 -46l-14 -13q-13 -12 -17 -22l-52 -46q-41 -36 -90 -36q-45 0 -53 18zM270 133q7 8 14 37q2 9 2 23q0 39 -31 39
q-20 0 -49 -29q-13 -25 -33 -25q-25 -29 -31 -76q0 -38 23 -41q58 19 105 72zM312 27q-5 0 -10 8q9 16 22 30l31 33q14 15 23 31q19 14 31 31q7 0 14 -24l4 -13q0 -23 -37 -45q-4 -3 -13 -8q-3 -2 -9 -5.5t-28 -20.5t-28 -17z" />
    <glyph glyph-name="ahoanang" unicode="&#x1af;" horiz-adv-x="520" 
d="M63 191q-3 3 -8 26l2 27l-6 24l2 17l4 20q-6 14 -6 125q0 73 8 86q0 75 5 121q1 13 12.5 26t23.5 13q6 0 14.5 -20t14.5 -23q31 -17 31 -51q0 -23 -7 -59q-9 -45 -8 -56l1 -14q1 -18 -9 -39q-1 -10 -4 -31l2 -47q0 -8 -4 -27q0 -26 9 -80q7 -40 10 -41q9 -56 45 -92
q12 -12 20 -12q33 0 67 51q16 24 23 31q18 35 28 69l25 87q14 49 29 82q0 28 13 75l1 5q12 42 15 69q0 4 6 20l8 21l3 14l5 12q2 4 9 11q0 2 -2 4q4 25 16 54q0 9 19.5 21.5t29.5 12.5q8 0 11 -8l4 -20l2 -25q2 -26 -6 -85q-7 -51 -13 -75q-7 -31 -22 -92l-23 -96
q-33 -138 -45 -252l2 -16q0 -9 2 -15q14 -9 14 -19q0 -7 -9 -18t-12 -14.5t-8 -7.5q-11 -9 -22.5 -19t-25.5 -10q-20 0 -23 33l1 11l1 7q0 7 -4 14q12 71 12 109q0 9 -6 10q-4 0 -9 -6l-15 -27q-62 -114 -154 -114q-34 0 -52 30q-4 8 -10 16q-2 5 -5 12l-13 30
q-15 34 -21 108l1 4zM553 636l8 33q0 1 1 5q0 1 1 4v6q3 11 25 18q1 0 3 1h4h4q5 0 19 -6.5t14 -11.5q0 -3 -6 -26q-2 -7 -18 -48l-19 -48q-6 -21 -23 -60q-10 -19 -38 -32h-5l-2 2q0 12 18 84l8 32v27q0 14 6 20z" />
    <glyph glyph-name="ahoanga" unicode="&#x1b0;" horiz-adv-x="443" 
d="M90 6v1q-14 10 -20 25q-1 5 -4 18t-3 16l-4 42v6q0 20 -2 22q-3 0 -20.5 -13t-20.5 -17l-9 -9l-8 -7q-1 -1 -7 -3q-4 0 -4 35q0 24 16 37q25 21 43 43q4 6 42 61l38 56q22 22 51 22q13 0 13 -22q0 -5 -10 -55q-3 -6 -9 -23l-14 -38q-3 -13 -6 -30l-4 -49q-3 -32 8 -47
q1 0 2 -2q6 2 16 9q3 3 9.5 7t8 5.5t26.5 30.5l26 30l22 36q24 39 46 54q10 3 19 3q38 0 33 -45q18 10 23 37.5t16 84.5q4 19 23 19q8 0 18.5 -1.5t10.5 -15.5q0 -20 -19 -60q-29 -88 -70 -92q-2 -46 30 -46q11 0 19 6l21 15q11 11 15 12q6 0 6 -33v-14q0 -27 -38 -48
q-33 -18 -62 -18q-28 0 -39 10q-14 8 -19 21l-11 29q-4 16 -7 16q-4 0 -17 -17l-20 -26l-25 -30q-4 -5 -15 -16.5t-43 -34.5q-17 -9 -36 -9q-11 0 -35 12z" />
    <glyph glyph-name="ordfeminine" unicode="&#x2c6;" 
 />
    <glyph glyph-name="threequarters" unicode="&#x2dc;" 
 />
    <glyph glyph-name="bth" unicode="&#x300;" 
d="M-115 605q20 -13 49 -25q36 -15 50 -26q0 -7 -8 -14t-13 -7l-29 8q-51 14 -73 31q-9 1 -41 19q-35 20 -47 24l-9 15l-8 14q0 6 -2 12l2 13q15 18 37 18h10q31 -49 82 -82z" />
    <glyph glyph-name="bsacth" unicode="&#x301;" 
d="M10 590q-20 -13 -49 -25q-36 -15 -50 -26q0 -7 7.5 -14t13.5 -7l29 8q51 14 73 31q9 1 42.5 20t45.5 23l9 15l8 14q0 6 2 12l-2 13q-15 18 -37 18h-10q-31 -49 -82 -82z" />
    <glyph glyph-name="bsacth" unicode="&#x302;" 
d="M10 590q-20 -13 -49 -25q-36 -15 -50 -26q0 -7 7.5 -14t13.5 -7l29 8q51 14 73 31q9 1 42.5 20t45.5 23l9 15l8 14q0 6 2 12l-2 13q-15 18 -37 18h-10q-31 -49 -82 -82z" />
    <glyph glyph-name="cngahoa" unicode="&#x303;" 
d="M-200 590q-14 -4 -37 -14l-34 -15l-5 8q1 2 1.5 5.5t0.5 12.5q9 19 32 25q14 10 61 29l49 20h6q29 0 51 -22v-13l-4 -16l3 -4l6 -6q10 2 57 18q21 10 24 11q22 10 33 10q5 0 6 -4q0 -29 -21 -42q-13 -7 -49 -15t-46 -13l-27 -8l-23 -6l-8 4q-3 3 -14 30q-9 23 -20 23
t-21 -6z" />
    <glyph glyph-name="cnanghoa" unicode="&#x309;" 
d="M-95 660l-34 32q4 37 26 37q5 0 12 -2q110 -28 110 -87q0 -31 -26 -64q-33 -42 -37 -54q-38 -4 -38 6v1q0 4 4 10q37 49 37 84q0 39 -44 52q5 -14 -10 -15z" />
    <glyph glyph-name="cnangth" unicode="&#x323;" 
d="M-315 -170q-25 15 -25 41q0 17 18 33t35 16q15 0 33 -10q14 0 14 -29v-21q-2 -5 -17.5 -13.5t-16.5 -14.5h-15z" />
    <glyph glyph-name="cnangth" unicode="&#xf02b;" 
d="M-315 -170q-25 15 -25 41q0 17 18 33t35 16q15 0 33 -10q14 0 14 -29v-21q-2 -5 -17.5 -13.5t-16.5 -14.5h-15z" />
    <glyph glyph-name="cnangth" unicode="&#xf029;" 
d="M-315 -170q-25 15 -25 41q0 17 18 33t35 16q15 0 33 -10q14 0 14 -29v-21q-2 -5 -17.5 -13.5t-16.5 -14.5h-15z" />
    <glyph glyph-name="cnangth" unicode="&#xf022;" 
d="M-315 -170q-25 15 -25 41q0 17 18 33t35 16q15 0 33 -10q14 0 14 -29v-21q-2 -5 -17.5 -13.5t-16.5 -14.5h-15z" />
    <glyph glyph-name="cnangth" unicode="&#xf021;" 
d="M-315 -170q-25 15 -25 41q0 17 18 33t35 16q15 0 33 -10q14 0 14 -29v-21q-2 -5 -17.5 -13.5t-16.5 -14.5h-15z" />
    <glyph glyph-name="cnangth" unicode="&#xf020;" 
d="M-315 -170q-25 15 -25 41q0 17 18 33t35 16q15 0 33 -10q14 0 14 -29v-21q-2 -5 -17.5 -13.5t-16.5 -14.5h-15z" />
    <glyph glyph-name="cnangth" unicode="&#xf01f;" 
d="M-315 -170q-25 15 -25 41q0 17 18 33t35 16q15 0 33 -10q14 0 14 -29v-21q-2 -5 -17.5 -13.5t-16.5 -14.5h-15z" />
    <glyph glyph-name="cnangth" unicode="&#xf01e;" 
d="M-315 -170q-25 15 -25 41q0 17 18 33t35 16q15 0 33 -10q14 0 14 -29v-21q-2 -5 -17.5 -13.5t-16.5 -14.5h-15z" />
    <glyph glyph-name="chuyenhoa" unicode="&#x340;" 
d="M-170 825q20 -13 49 -25q36 -15 50 -26q0 -7 -8 -14t-13 -7l-29 8q-51 14 -73 31q-9 1 -41 19q-35 20 -47 24l-9 15l-8 14q0 6 -2 12l2 13q15 18 37 18h10q31 -49 82 -82z" />
    <glyph glyph-name="chuyenhoa" unicode="&#xf00c;" 
d="M-170 825q20 -13 49 -25q36 -15 50 -26q0 -7 -8 -14t-13 -7l-29 8q-51 14 -73 31q-9 1 -41 19q-35 20 -47 24l-9 15l-8 14q0 6 -2 12l2 13q15 18 37 18h10q31 -49 82 -82z" />
    <glyph glyph-name="choihoa" unicode="&#x341;" 
d="M-150 820q-20 -13 -49 -25q-36 -15 -50 -26q0 -7 7.5 -14t13.5 -7l29 8q51 14 73 31q9 1 42.5 20t45.5 23l9 15l8 14q0 6 2 12l-2 13q-15 18 -37 18h-10q-31 -49 -82 -82z" />
    <glyph glyph-name="choihoa" unicode="&#xf007;" 
d="M-150 820q-20 -13 -49 -25q-36 -15 -50 -26q0 -7 7.5 -14t13.5 -7l29 8q51 14 73 31q9 1 42.5 20t45.5 23l9 15l8 14q0 6 2 12l-2 13q-15 18 -37 18h-10q-31 -49 -82 -82z" />
    <glyph glyph-name="choa" unicode="&#x342;" 
d="M-220 790q-14 -4 -37 -14l-34 -15l-5 8q1 2 1.5 5.5t0.5 12.5q9 19 32 25q14 10 61 29l49 20h6q29 0 51 -22v-13l-4 -16l3 -4l6 -6q10 2 57 18q21 10 24 11q22 10 33 10q5 0 6 -4q0 -29 -21 -42q-13 -7 -49 -15t-46 -13l-27 -8l-23 -6l-8 4q-3 3 -14 30q-9 23 -20 23
t-21 -6z" />
    <glyph glyph-name="choa" unicode="&#xf030;" 
d="M-220 790q-14 -4 -37 -14l-34 -15l-5 8q1 2 1.5 5.5t0.5 12.5q9 19 32 25q14 10 61 29l49 20h6q29 0 51 -22v-13l-4 -16l3 -4l6 -6q10 2 57 18q21 10 24 11q22 10 33 10q5 0 6 -4q0 -29 -21 -42q-13 -7 -49 -15t-46 -13l-27 -8l-23 -6l-8 4q-3 3 -14 30q-9 23 -20 23
t-21 -6z" />
    <glyph glyph-name="choa" unicode="&#xf02e;" 
d="M-220 790q-14 -4 -37 -14l-34 -15l-5 8q1 2 1.5 5.5t0.5 12.5q9 19 32 25q14 10 61 29l49 20h6q29 0 51 -22v-13l-4 -16l3 -4l6 -6q10 2 57 18q21 10 24 11q22 10 33 10q5 0 6 -4q0 -29 -21 -42q-13 -7 -49 -15t-46 -13l-27 -8l-23 -6l-8 4q-3 3 -14 30q-9 23 -20 23
t-21 -6z" />
    <glyph glyph-name="choa" unicode="&#xf01c;" 
d="M-220 790q-14 -4 -37 -14l-34 -15l-5 8q1 2 1.5 5.5t0.5 12.5q9 19 32 25q14 10 61 29l49 20h6q29 0 51 -22v-13l-4 -16l3 -4l6 -6q10 2 57 18q21 10 24 11q22 10 33 10q5 0 6 -4q0 -29 -21 -42q-13 -7 -49 -15t-46 -13l-27 -8l-23 -6l-8 4q-3 3 -14 30q-9 23 -20 23
t-21 -6z" />
    <glyph glyph-name="choa" unicode="&#xf017;" 
d="M-220 790q-14 -4 -37 -14l-34 -15l-5 8q1 2 1.5 5.5t0.5 12.5q9 19 32 25q14 10 61 29l49 20h6q29 0 51 -22v-13l-4 -16l3 -4l6 -6q10 2 57 18q21 10 24 11q22 10 33 10q5 0 6 -4q0 -29 -21 -42q-13 -7 -49 -15t-46 -13l-27 -8l-23 -6l-8 4q-3 3 -14 30q-9 23 -20 23
t-21 -6z" />
    <glyph glyph-name="choa" unicode="&#xf016;" 
d="M-220 790q-14 -4 -37 -14l-34 -15l-5 8q1 2 1.5 5.5t0.5 12.5q9 19 32 25q14 10 61 29l49 20h6q29 0 51 -22v-13l-4 -16l3 -4l6 -6q10 2 57 18q21 10 24 11q22 10 33 10q5 0 6 -4q0 -29 -21 -42q-13 -7 -49 -15t-46 -13l-27 -8l-23 -6l-8 4q-3 3 -14 30q-9 23 -20 23
t-21 -6z" />
    <glyph glyph-name="uhoahoi" unicode="&#x1ea0;" horiz-adv-x="480" 
d="M23 -63q-20 -7 -31 -7q-12 0 -12 25v11q0 3 2 9l5 25l5 20q11 43 14 44q0 16 12 51q11 32 11 43q-7 0 -11 -2q-9 1 -13.5 6.5t-4.5 19.5q0 91 64 91q4 6 14 32q13 34 20 45l9 40q6 28 24 61q10 18 18 55q10 43 15 56q8 21 29 38l4 5q-1 3 -6.5 9.5t-6.5 12.5q8 17 15 24
q14 9 27.5 11t23.5 28q2 5 4 13q10 0 17.5 5.5t9.5 7t9 8.5l18 13q7 5 16 5q10 0 20.5 -7t10.5 -10q-1 -13 -12 -39q-8 -19 -11 -32q0 -7 19 -16q3 -2 6 -3l23 -10q10 -4 16 -12q26 -26 26 -115v-6l-1 -17l-1 -14l4 -13q4 -9 4 -26q0 -20 -4 -51l4 -47q0 -4 6.5 -8t6.5 -11
q0 -16 -3 -19l-16 -15q-1 -2 -1.5 -8t-0.5 -22q0 -26 -2 -34q-5 -15 -5.5 -48t-6.5 -48l4 -17q-6 -8 -11 -39q-5 -34 -10 -43q0 -2 -2 -8q0 -26 -39 -39q-10 0 -10 17l4 145q1 29 -4 76v47h-2q-6 0 -30 -7t-38 -7q-8 0 -53 -15q-23 -8 -39 -15l-35 -16q-9 -4 -32 -4
q-4 -25 -15 -53q-2 -5 -16 -26q0 -1 -2 -3q-8 -58 -19 -75l-4 -6q-3 -24 -14 -58q-9 -27 -16 -28zM340 307v4q4 8 4 37q-3 20 -6 31l4 19q-6 0 -6 34q2 14 2 43l-5 5q-3 5 -5 10q-22 49 -55 49q-19 0 -34 -42l-10 -28q-11 -16 -26 -47q-11 -40 -21 -57l-4 -13q-2 -7 -6 -16
q-24 -31 -24 -47l9 -3l13 -3l5 2.5t5 1.5t8 1l22 3l24 2h24q14 2 21 2q36 12 61 12zM150 -180q-25 15 -25 41q0 17 18 33t35 16q15 0 33 -10q14 0 14 -29v-21q-2 -5 -17.5 -13.5t-16.5 -14.5h-15z" />
    <glyph glyph-name="ohoahoi" unicode="&#x1ea1;" horiz-adv-x="406" 
d="M2 96l-2 29q-3 41 70 92q9 18 61 62q28 29 84 71q66 50 103 50q15 -3 24 -21q0 -9 -9.5 -26.5t-31.5 -24.5q-10 -18 -45 -47q-7 -3 -20 -19t-23 -20q-4 -8 -5.5 -10t-4 -5.5t-4.5 -5.5l-12 -10q-1 0 -8 -5l-1 -1q-6 -11 -33 -39l-26 -27l-5 -12l-5 -9l-2 -5l2 -2
q20 5 33 15l39 37q27 25 40 32q12 21 37 38t49 17q14 0 19 -25l4 -20l-6 -31q0 -17 11 -30.5t26 -14.5q25 5 49 29q4 -1 4 -4l1 -12q0 -6 1 -15q0 -7 -4 -14q0 -18 -30 -48q-10 -8 -19 -11q-16 -9 -33 -11l-5 2q-3 1 -7 2q-3 0 -15 -2q-20 2 -35 17.5t-18 35.5l-3 21l-3 17
q0 6 -4 7q-4 0 -18 -12q-7 -6 -12 -12t-15 -15l-7 -2q-28 -37 -49 -45q-8 -17 -32.5 -34t-42.5 -17l-17 -6q-40 0 -47 49q0 8 7 26q2 3 5 9v2q0 6 -10 10zM183 -140q-25 15 -25 41q0 17 18 33t35 16q15 0 33 -10q14 0 14 -29v-21q-2 -5 -17.5 -13.5t-16.5 -14.5h-15z" />
    <glyph glyph-name="uhoasac" unicode="&#x1ea2;" horiz-adv-x="480" 
d="M23 -63q-20 -7 -31 -7q-12 0 -12 25v11q0 3 2 9l5 25l5 20q11 43 14 44q0 16 12 51q11 32 11 43q-7 0 -11 -2q-9 1 -13.5 6.5t-4.5 19.5q0 91 64 91q4 6 14 32q13 34 20 45l9 40q6 28 24 61q10 18 18 55q10 43 15 56q8 21 29 38l4 5q-1 3 -6.5 9.5t-6.5 12.5q8 17 15 24
q14 9 27.5 11t23.5 28q2 5 4 13q10 0 17.5 5.5t9.5 7t9 8.5l18 13q7 5 16 5q10 0 20.5 -7t10.5 -10q-1 -13 -12 -39q-8 -19 -11 -32q0 -7 19 -16q3 -2 6 -3l23 -10q10 -4 16 -12q26 -26 26 -115v-6l-1 -17l-1 -14l4 -13q4 -9 4 -26q0 -20 -4 -51l4 -47q0 -4 6.5 -8t6.5 -11
q0 -16 -3 -19l-16 -15q-1 -2 -1.5 -8t-0.5 -22q0 -26 -2 -34q-5 -15 -5.5 -48t-6.5 -48l4 -17q-6 -8 -11 -39q-5 -34 -10 -43q0 -2 -2 -8q0 -26 -39 -39q-10 0 -10 17l4 145q1 29 -4 76v47h-2q-6 0 -30 -7t-38 -7q-8 0 -53 -15q-23 -8 -39 -15l-35 -16q-9 -4 -32 -4
q-4 -25 -15 -53q-2 -5 -16 -26q0 -1 -2 -3q-8 -58 -19 -75l-4 -6q-3 -24 -14 -58q-9 -27 -16 -28zM340 307v4q4 8 4 37q-3 20 -6 31l4 19q-6 0 -6 34q2 14 2 43l-5 5q-3 5 -5 10q-22 49 -55 49q-19 0 -34 -42l-10 -28q-11 -16 -26 -47q-11 -40 -21 -57l-4 -13q-2 -7 -6 -16
q-24 -31 -24 -47l9 -3l13 -3l5 2.5t5 1.5t8 1l22 3l24 2h24q14 2 21 2q36 12 61 12zM241 930l-34 32q4 37 26 37q5 0 12 -2q110 -28 110 -87q0 -31 -26 -64q-33 -42 -37 -54q-38 -4 -38 6v1q0 4 4 10q37 49 37 84q0 39 -44 52q5 -14 -10 -15z" />
    <glyph glyph-name="ohoasac" unicode="&#x1ea3;" horiz-adv-x="406" 
d="M2 96l-2 29q-3 41 70 92q9 18 61 62q28 29 84 71q66 50 103 50q15 -3 24 -21q0 -9 -9.5 -26.5t-31.5 -24.5q-10 -18 -45 -47q-7 -3 -20 -19t-23 -20q-4 -8 -5.5 -10t-4 -5.5t-4.5 -5.5l-12 -10q-1 0 -8 -5l-1 -1q-6 -11 -33 -39l-26 -27l-5 -12l-5 -9l-2 -5l2 -2
q20 5 33 15l39 37q27 25 40 32q12 21 37 38t49 17q14 0 19 -25l4 -20l-6 -31q0 -17 11 -30.5t26 -14.5q25 5 49 29q4 -1 4 -4l1 -12q0 -6 1 -15q0 -7 -4 -14q0 -18 -30 -48q-10 -8 -19 -11q-16 -9 -33 -11l-5 2q-3 1 -7 2q-3 0 -15 -2q-20 2 -35 17.5t-18 35.5l-3 21l-3 17
q0 6 -4 7q-4 0 -18 -12q-7 -6 -12 -12t-15 -15l-7 -2q-28 -37 -49 -45q-8 -17 -32.5 -34t-42.5 -17l-17 -6q-40 0 -47 49q0 8 7 26q2 3 5 9v2q0 6 -10 10zM234 588l-34 32q4 37 26 37q5 0 12 -2q110 -28 110 -87q0 -31 -26 -64q-33 -42 -37 -54q-38 -4 -38 6v1q0 4 4 10
q37 49 37 84q0 39 -44 52q5 -14 -10 -15z" />
    <glyph glyph-name="obthnga" unicode="&#x1ea4;" horiz-adv-x="480" 
d="M23 -63q-20 -7 -31 -7q-12 0 -12 25v11q0 3 2 9l5 25l5 20q11 43 14 44q0 16 12 51q11 32 11 43q-7 0 -11 -2q-9 1 -13.5 6.5t-4.5 19.5q0 91 64 91q4 6 14 32q13 34 20 45l9 40q6 28 24 61q10 18 18 55q10 43 15 56q8 21 29 38l4 5q-1 3 -6.5 9.5t-6.5 12.5q8 17 15 24
q14 9 27.5 11t23.5 28q2 5 4 13q10 0 17.5 5.5t9.5 7t9 8.5l18 13q7 5 16 5q10 0 20.5 -7t10.5 -10q-1 -13 -12 -39q-8 -19 -11 -32q0 -7 19 -16q3 -2 6 -3l23 -10q10 -4 16 -12q26 -26 26 -115v-6l-1 -17l-1 -14l4 -13q4 -9 4 -26q0 -20 -4 -51l4 -47q0 -4 6.5 -8t6.5 -11
q0 -16 -3 -19l-16 -15q-1 -2 -1.5 -8t-0.5 -22q0 -26 -2 -34q-5 -15 -5.5 -48t-6.5 -48l4 -17q-6 -8 -11 -39q-5 -34 -10 -43q0 -2 -2 -8q0 -26 -39 -39q-10 0 -10 17l4 145q1 29 -4 76v47h-2q-6 0 -30 -7t-38 -7q-8 0 -53 -15q-23 -8 -39 -15l-35 -16q-9 -4 -32 -4
q-4 -25 -15 -53q-2 -5 -16 -26q0 -1 -2 -3q-8 -58 -19 -75l-4 -6q-3 -24 -14 -58q-9 -27 -16 -28zM340 307v4q4 8 4 37q-3 20 -6 31l4 19q-6 0 -6 34q2 14 2 43l-5 5q-3 5 -5 10q-22 49 -55 49q-19 0 -34 -42l-10 -28q-11 -16 -26 -47q-11 -40 -21 -57l-4 -13q-2 -7 -6 -16
q-24 -31 -24 -47l9 -3l13 -3l5 2.5t5 1.5t8 1l22 3l24 2h24q14 2 21 2q36 12 61 12zM195 756q-13 4 -15 22l1 8q6 16 19 26q1 0 29 17q25 14 34 27q5 1 13 5q2 2 10 7q14 10 20 10q15 0 43 -20q6 -5 39 -19q27 -12 34 -22q17 -11 17 -43q0 -14 -8 -18l-37 18q-32 16 -47 18
q-34 25 -46 25q-10 0 -26 -13q-19 -14 -25 -16q-13 -4 -32 -17q-10 -7 -23 -15zM486 950q-20 -13 -49 -25q-36 -15 -50 -26q0 -7 8 -14t13 -7l29 8q51 14 73 31q9 1 42.5 20t45.5 23l9 15l8 14q0 6 2 12l-2 13q-15 18 -37 18h-10q-31 -49 -82 -82z" />
    <glyph glyph-name="ebthnang" unicode="&#x1ea5;" horiz-adv-x="406" 
d="M2 96l-2 29q-3 41 70 92q9 18 61 62q28 29 84 71q66 50 103 50q15 -3 24 -21q0 -9 -9.5 -26.5t-31.5 -24.5q-10 -18 -45 -47q-7 -3 -20 -19t-23 -20q-4 -8 -5.5 -10t-4 -5.5t-4.5 -5.5l-12 -10q-1 0 -8 -5l-1 -1q-6 -11 -33 -39l-26 -27l-5 -12l-5 -9l-2 -5l2 -2
q20 5 33 15l39 37q27 25 40 32q12 21 37 38t49 17q14 0 19 -25l4 -20l-6 -31q0 -17 11 -30.5t26 -14.5q25 5 49 29q4 -1 4 -4l1 -12q0 -6 1 -15q0 -7 -4 -14q0 -18 -30 -48q-10 -8 -19 -11q-16 -9 -33 -11l-5 2q-3 1 -7 2q-3 0 -15 -2q-20 2 -35 17.5t-18 35.5l-3 21l-3 17
q0 6 -4 7q-4 0 -18 -12q-7 -6 -12 -12t-15 -15l-7 -2q-28 -37 -49 -45q-8 -17 -32.5 -34t-42.5 -17l-17 -6q-40 0 -47 49q0 8 7 26q2 3 5 9v2q0 6 -10 10zM161 405q-13 4 -15 22l1 8q6 16 19 26q1 0 29 17q25 14 34 27q5 1 13 5q2 2 10 7q14 10 20 10q15 0 43 -20
q6 -5 39 -19q27 -12 34 -22q17 -11 17 -43q0 -14 -8 -18l-37 18q-32 16 -47 18q-34 25 -46 25q-10 0 -26 -13q-19 -14 -25 -16q-13 -4 -32 -17q-10 -7 -23 -15zM452 599q-20 -13 -49 -25q-36 -15 -50 -26q0 -7 8 -14t13 -7l29 8q51 14 73 31q9 1 42.5 20t45.5 23l9 15l8 14
q0 6 2 12l-2 13q-15 18 -37 18h-10q-31 -49 -82 -82z" />
    <glyph glyph-name="obthnang" unicode="&#x1ea6;" horiz-adv-x="480" 
d="M23 -63q-20 -7 -31 -7q-12 0 -12 25v11q0 3 2 9l5 25l5 20q11 43 14 44q0 16 12 51q11 32 11 43q-7 0 -11 -2q-9 1 -13.5 6.5t-4.5 19.5q0 91 64 91q4 6 14 32q13 34 20 45l9 40q6 28 24 61q10 18 18 55q10 43 15 56q8 21 29 38l4 5q-1 3 -6.5 9.5t-6.5 12.5q8 17 15 24
q14 9 27.5 11t23.5 28q2 5 4 13q10 0 17.5 5.5t9.5 7t9 8.5l18 13q7 5 16 5q10 0 20.5 -7t10.5 -10q-1 -13 -12 -39q-8 -19 -11 -32q0 -7 19 -16q3 -2 6 -3l23 -10q10 -4 16 -12q26 -26 26 -115v-6l-1 -17l-1 -14l4 -13q4 -9 4 -26q0 -20 -4 -51l4 -47q0 -4 6.5 -8t6.5 -11
q0 -16 -3 -19l-16 -15q-1 -2 -1.5 -8t-0.5 -22q0 -26 -2 -34q-5 -15 -5.5 -48t-6.5 -48l4 -17q-6 -8 -11 -39q-5 -34 -10 -43q0 -2 -2 -8q0 -26 -39 -39q-10 0 -10 17l4 145q1 29 -4 76v47h-2q-6 0 -30 -7t-38 -7q-8 0 -53 -15q-23 -8 -39 -15l-35 -16q-9 -4 -32 -4
q-4 -25 -15 -53q-2 -5 -16 -26q0 -1 -2 -3q-8 -58 -19 -75l-4 -6q-3 -24 -14 -58q-9 -27 -16 -28zM340 307v4q4 8 4 37q-3 20 -6 31l4 19q-6 0 -6 34q2 14 2 43l-5 5q-3 5 -5 10q-22 49 -55 49q-19 0 -34 -42l-10 -28q-11 -16 -26 -47q-11 -40 -21 -57l-4 -13q-2 -7 -6 -16
q-24 -31 -24 -47l9 -3l13 -3l5 2.5t5 1.5t8 1l22 3l24 2h24q14 2 21 2q36 12 61 12zM195 756q-13 4 -15 22l1 8q6 16 19 26q1 0 29 17q25 14 34 27q5 1 13 5q2 2 10 7q14 10 20 10q15 0 43 -20q6 -5 39 -19q27 -12 34 -22q17 -11 17 -43q0 -14 -8 -18l-37 18q-32 16 -47 18
q-34 25 -46 25q-10 0 -26 -13q-19 -14 -25 -16q-13 -4 -32 -17q-10 -7 -23 -15zM383 955q20 -13 49 -25q36 -15 50 -26q0 -7 -7.5 -14t-13.5 -7l-29 8q-51 14 -73 31q-9 1 -41 19q-35 20 -47 24l-9 15l-8 14q0 6 -2 12l2 13q15 18 37 18h10q31 -49 82 -82z" />
    <glyph glyph-name="obth" unicode="&#x1ea7;" horiz-adv-x="406" 
d="M2 96l-2 29q-3 41 70 92q9 18 61 62q28 29 84 71q66 50 103 50q15 -3 24 -21q0 -9 -9.5 -26.5t-31.5 -24.5q-10 -18 -45 -47q-7 -3 -20 -19t-23 -20q-4 -8 -5.5 -10t-4 -5.5t-4.5 -5.5l-12 -10q-1 0 -8 -5l-1 -1q-6 -11 -33 -39l-26 -27l-5 -12l-5 -9l-2 -5l2 -2
q20 5 33 15l39 37q27 25 40 32q12 21 37 38t49 17q14 0 19 -25l4 -20l-6 -31q0 -17 11 -30.5t26 -14.5q25 5 49 29q4 -1 4 -4l1 -12q0 -6 1 -15q0 -7 -4 -14q0 -18 -30 -48q-10 -8 -19 -11q-16 -9 -33 -11l-5 2q-3 1 -7 2q-3 0 -15 -2q-20 2 -35 17.5t-18 35.5l-3 21l-3 17
q0 6 -4 7q-4 0 -18 -12q-7 -6 -12 -12t-15 -15l-7 -2q-28 -37 -49 -45q-8 -17 -32.5 -34t-42.5 -17l-17 -6q-40 0 -47 49q0 8 7 26q2 3 5 9v2q0 6 -10 10zM161 405q-13 4 -15 22l1 8q6 16 19 26q1 0 29 17q25 14 34 27q5 1 13 5q2 2 10 7q14 10 20 10q15 0 43 -20
q6 -5 39 -19q27 -12 34 -22q17 -11 17 -43q0 -14 -8 -18l-37 18q-32 16 -47 18q-34 25 -46 25q-10 0 -26 -13q-19 -14 -25 -16q-13 -4 -32 -17q-10 -7 -23 -15zM349 604q20 -13 49 -25q36 -15 50 -26q0 -7 -7.5 -14t-13.5 -7l-29 8q-51 14 -73 31q-9 1 -41 19q-35 20 -47 24
l-9 15l-8 14q0 6 -2 12l2 13q15 18 37 18h10q31 -49 82 -82z" />
    <glyph glyph-name="octh" unicode="&#x1ea8;" horiz-adv-x="480" 
d="M23 -63q-20 -7 -31 -7q-12 0 -12 25v11q0 3 2 9l5 25l5 20q11 43 14 44q0 16 12 51q11 32 11 43q-7 0 -11 -2q-9 1 -13.5 6.5t-4.5 19.5q0 91 64 91q4 6 14 32q13 34 20 45l9 40q6 28 24 61q10 18 18 55q10 43 15 56q8 21 29 38l4 5q-1 3 -6.5 9.5t-6.5 12.5q8 17 15 24
q14 9 27.5 11t23.5 28q2 5 4 13q10 0 17.5 5.5t9.5 7t9 8.5l18 13q7 5 16 5q10 0 20.5 -7t10.5 -10q-1 -13 -12 -39q-8 -19 -11 -32q0 -7 19 -16q3 -2 6 -3l23 -10q10 -4 16 -12q26 -26 26 -115v-6l-1 -17l-1 -14l4 -13q4 -9 4 -26q0 -20 -4 -51l4 -47q0 -4 6.5 -8t6.5 -11
q0 -16 -3 -19l-16 -15q-1 -2 -1.5 -8t-0.5 -22q0 -26 -2 -34q-5 -15 -5.5 -48t-6.5 -48l4 -17q-6 -8 -11 -39q-5 -34 -10 -43q0 -2 -2 -8q0 -26 -39 -39q-10 0 -10 17l4 145q1 29 -4 76v47h-2q-6 0 -30 -7t-38 -7q-8 0 -53 -15q-23 -8 -39 -15l-35 -16q-9 -4 -32 -4
q-4 -25 -15 -53q-2 -5 -16 -26q0 -1 -2 -3q-8 -58 -19 -75l-4 -6q-3 -24 -14 -58q-9 -27 -16 -28zM340 307v4q4 8 4 37q-3 20 -6 31l4 19q-6 0 -6 34q2 14 2 43l-5 5q-3 5 -5 10q-22 49 -55 49q-19 0 -34 -42l-10 -28q-11 -16 -26 -47q-11 -40 -21 -57l-4 -13q-2 -7 -6 -16
q-24 -31 -24 -47l9 -3l13 -3l5 2.5t5 1.5t8 1l22 3l24 2h24q14 2 21 2q36 12 61 12zM195 756q-13 4 -15 22l1 8q6 16 19 26q1 0 29 17q25 14 34 27q5 1 13 5q2 2 10 7q14 10 20 10q15 0 43 -20q6 -5 39 -19q27 -12 34 -22q17 -11 17 -43q0 -14 -8 -18l-37 18q-32 16 -47 18
q-34 25 -46 25q-10 0 -26 -13q-19 -14 -25 -16q-13 -4 -32 -17q-10 -7 -23 -15zM373 1016l-34 32q4 37 26 37q5 0 12 -2q110 -28 110 -87q0 -31 -26 -64q-33 -42 -37 -54q-38 -4 -38 6v1q0 4 4 10q37 49 37 84q0 39 -44 52q5 -14 -10 -15z" />
    <glyph glyph-name="obthsac" unicode="&#x1ea9;" horiz-adv-x="406" 
d="M2 96l-2 29q-3 41 70 92q9 18 61 62q28 29 84 71q66 50 103 50q15 -3 24 -21q0 -9 -9.5 -26.5t-31.5 -24.5q-10 -18 -45 -47q-7 -3 -20 -19t-23 -20q-4 -8 -5.5 -10t-4 -5.5t-4.5 -5.5l-12 -10q-1 0 -8 -5l-1 -1q-6 -11 -33 -39l-26 -27l-5 -12l-5 -9l-2 -5l2 -2
q20 5 33 15l39 37q27 25 40 32q12 21 37 38t49 17q14 0 19 -25l4 -20l-6 -31q0 -17 11 -30.5t26 -14.5q25 5 49 29q4 -1 4 -4l1 -12q0 -6 1 -15q0 -7 -4 -14q0 -18 -30 -48q-10 -8 -19 -11q-16 -9 -33 -11l-5 2q-3 1 -7 2q-3 0 -15 -2q-20 2 -35 17.5t-18 35.5l-3 21l-3 17
q0 6 -4 7q-4 0 -18 -12q-7 -6 -12 -12t-15 -15l-7 -2q-28 -37 -49 -45q-8 -17 -32.5 -34t-42.5 -17l-17 -6q-40 0 -47 49q0 8 7 26q2 3 5 9v2q0 6 -10 10zM161 405q-13 4 -15 22l1 8q6 16 19 26q1 0 29 17q25 14 34 27q5 1 13 5q2 2 10 7q14 10 20 10q15 0 43 -20
q6 -5 39 -19q27 -12 34 -22q17 -11 17 -43q0 -14 -8 -18l-37 18q-32 16 -47 18q-34 25 -46 25q-10 0 -26 -13q-19 -14 -25 -16q-13 -4 -32 -17q-10 -7 -23 -15zM339 665l-34 32q4 37 26 37q5 0 12 -2q110 -28 110 -87q0 -31 -26 -64q-33 -42 -37 -54q-38 -4 -38 6v1
q0 4 4 10q37 49 37 84q0 39 -44 52q5 -14 -10 -15z" />
    <glyph glyph-name="octhsac" unicode="&#x1eaa;" horiz-adv-x="480" 
d="M23 -63q-20 -7 -31 -7q-12 0 -12 25v11q0 3 2 9l5 25l5 20q11 43 14 44q0 16 12 51q11 32 11 43q-7 0 -11 -2q-9 1 -13.5 6.5t-4.5 19.5q0 91 64 91q4 6 14 32q13 34 20 45l9 40q6 28 24 61q10 18 18 55q10 43 15 56q8 21 29 38l4 5q-1 3 -6.5 9.5t-6.5 12.5q8 17 15 24
q14 9 27.5 11t23.5 28q2 5 4 13q10 0 17.5 5.5t9.5 7t9 8.5l18 13q7 5 16 5q10 0 20.5 -7t10.5 -10q-1 -13 -12 -39q-8 -19 -11 -32q0 -7 19 -16q3 -2 6 -3l23 -10q10 -4 16 -12q26 -26 26 -115v-6l-1 -17l-1 -14l4 -13q4 -9 4 -26q0 -20 -4 -51l4 -47q0 -4 6.5 -8t6.5 -11
q0 -16 -3 -19l-16 -15q-1 -2 -1.5 -8t-0.5 -22q0 -26 -2 -34q-5 -15 -5.5 -48t-6.5 -48l4 -17q-6 -8 -11 -39q-5 -34 -10 -43q0 -2 -2 -8q0 -26 -39 -39q-10 0 -10 17l4 145q1 29 -4 76v47h-2q-6 0 -30 -7t-38 -7q-8 0 -53 -15q-23 -8 -39 -15l-35 -16q-9 -4 -32 -4
q-4 -25 -15 -53q-2 -5 -16 -26q0 -1 -2 -3q-8 -58 -19 -75l-4 -6q-3 -24 -14 -58q-9 -27 -16 -28zM340 307v4q4 8 4 37q-3 20 -6 31l4 19q-6 0 -6 34q2 14 2 43l-5 5q-3 5 -5 10q-22 49 -55 49q-19 0 -34 -42l-10 -28q-11 -16 -26 -47q-11 -40 -21 -57l-4 -13q-2 -7 -6 -16
q-24 -31 -24 -47l9 -3l13 -3l5 2.5t5 1.5t8 1l22 3l24 2h24q14 2 21 2q36 12 61 12zM195 756q-13 4 -15 22l1 8q6 16 19 26q1 0 29 17q25 14 34 27q5 1 13 5q2 2 10 7q14 10 20 10q15 0 43 -20q6 -5 39 -19q27 -12 34 -22q17 -11 17 -43q0 -14 -8 -18l-37 18q-32 16 -47 18
q-34 25 -46 25q-10 0 -26 -13q-19 -14 -25 -16q-13 -4 -32 -17q-10 -7 -23 -15zM250 967q-14 -4 -37 -14l-34 -15l-5 8q1 2 1.5 5.5t0.5 12.5q9 19 32 25q14 10 61 29l49 20h6q29 0 51 -22v-13l-4 -16l3 -4l6 -6q11 2 57 18q21 10 24 11q22 10 33 10q5 0 6 -4q0 -29 -21 -42
q-13 -7 -49 -15t-46 -13l-27 -8l-23 -6l-8 4q-3 3 -14 30q-9 23 -20 23q-10 0 -21 -6z" />
    <glyph glyph-name="obthhuyen" unicode="&#x1eab;" horiz-adv-x="406" 
d="M2 96l-2 29q-3 41 70 92q9 18 61 62q28 29 84 71q66 50 103 50q15 -3 24 -21q0 -9 -9.5 -26.5t-31.5 -24.5q-10 -18 -45 -47q-7 -3 -20 -19t-23 -20q-4 -8 -5.5 -10t-4 -5.5t-4.5 -5.5l-12 -10q-1 0 -8 -5l-1 -1q-6 -11 -33 -39l-26 -27l-5 -12l-5 -9l-2 -5l2 -2
q20 5 33 15l39 37q27 25 40 32q12 21 37 38t49 17q14 0 19 -25l4 -20l-6 -31q0 -17 11 -30.5t26 -14.5q25 5 49 29q4 -1 4 -4l1 -12q0 -6 1 -15q0 -7 -4 -14q0 -18 -30 -48q-10 -8 -19 -11q-16 -9 -33 -11l-5 2q-3 1 -7 2q-3 0 -15 -2q-20 2 -35 17.5t-18 35.5l-3 21l-3 17
q0 6 -4 7q-4 0 -18 -12q-7 -6 -12 -12t-15 -15l-7 -2q-28 -37 -49 -45q-8 -17 -32.5 -34t-42.5 -17l-17 -6q-40 0 -47 49q0 8 7 26q2 3 5 9v2q0 6 -10 10zM161 405q-13 4 -15 22l1 8q6 16 19 26q1 0 29 17q25 14 34 27q5 1 13 5q2 2 10 7q14 10 20 10q15 0 43 -20
q6 -5 39 -19q27 -12 34 -22q17 -11 17 -43q0 -14 -8 -18l-37 18q-32 16 -47 18q-34 25 -46 25q-10 0 -26 -13q-19 -14 -25 -16q-13 -4 -32 -17q-10 -7 -23 -15zM216 616q-14 -4 -37 -14l-34 -15l-5 8q1 2 1.5 5.5t0.5 12.5q9 19 32 25q14 10 61 29l49 20h6q29 0 51 -22v-13
l-4 -16l3 -4l6 -6q11 2 57 18q21 10 24 11q22 10 33 10q5 0 6 -4q0 -29 -21 -42q-13 -7 -49 -15t-46 -13l-27 -8l-23 -6l-8 4q-3 3 -14 30q-9 23 -20 23q-10 0 -21 -6z" />
    <glyph glyph-name="octhhuyen" unicode="&#x1eac;" horiz-adv-x="480" 
d="M23 -63q-20 -7 -31 -7q-12 0 -12 25v11q0 3 2 9l5 25l5 20q11 43 14 44q0 16 12 51q11 32 11 43q-7 0 -11 -2q-9 1 -13.5 6.5t-4.5 19.5q0 91 64 91q4 6 14 32q13 34 20 45l9 40q6 28 24 61q10 18 18 55q10 43 15 56q8 21 29 38l4 5q-1 3 -6.5 9.5t-6.5 12.5q8 17 15 24
q14 9 27.5 11t23.5 28q2 5 4 13q10 0 17.5 5.5t9.5 7t9 8.5l18 13q7 5 16 5q10 0 20.5 -7t10.5 -10q-1 -13 -12 -39q-8 -19 -11 -32q0 -7 19 -16q3 -2 6 -3l23 -10q10 -4 16 -12q26 -26 26 -115v-6l-1 -17l-1 -14l4 -13q4 -9 4 -26q0 -20 -4 -51l4 -47q0 -4 6.5 -8t6.5 -11
q0 -16 -3 -19l-16 -15q-1 -2 -1.5 -8t-0.5 -22q0 -26 -2 -34q-5 -15 -5.5 -48t-6.5 -48l4 -17q-6 -8 -11 -39q-5 -34 -10 -43q0 -2 -2 -8q0 -26 -39 -39q-10 0 -10 17l4 145q1 29 -4 76v47h-2q-6 0 -30 -7t-38 -7q-8 0 -53 -15q-23 -8 -39 -15l-35 -16q-9 -4 -32 -4
q-4 -25 -15 -53q-2 -5 -16 -26q0 -1 -2 -3q-8 -58 -19 -75l-4 -6q-3 -24 -14 -58q-9 -27 -16 -28zM340 307v4q4 8 4 37q-3 20 -6 31l4 19q-6 0 -6 34q2 14 2 43l-5 5q-3 5 -5 10q-22 49 -55 49q-19 0 -34 -42l-10 -28q-11 -16 -26 -47q-11 -40 -21 -57l-4 -13q-2 -7 -6 -16
q-24 -31 -24 -47l9 -3l13 -3l5 2.5t5 1.5t8 1l22 3l24 2h24q14 2 21 2q36 12 61 12zM195 756q-13 4 -15 22l1 8q6 16 19 26q1 0 29 17q25 14 34 27q5 1 13 5q2 2 10 7q14 10 20 10q15 0 43 -20q6 -5 39 -19q27 -12 34 -22q17 -11 17 -43q0 -14 -8 -18l-37 18q-32 16 -47 18
q-34 25 -46 25q-10 0 -26 -13q-19 -14 -25 -16q-13 -4 -32 -17q-10 -7 -23 -15zM157 -154q-25 15 -25 41q0 17 18 33t35 16q15 0 33 -10q14 0 14 -29v-21q-2 -5 -17.5 -13.5t-16.5 -14.5h-15z" />
    <glyph glyph-name="obthhoi" unicode="&#x1ead;" horiz-adv-x="406" 
d="M2 96l-2 29q-3 41 70 92q9 18 61 62q28 29 84 71q66 50 103 50q15 -3 24 -21q0 -9 -9.5 -26.5t-31.5 -24.5q-10 -18 -45 -47q-7 -3 -20 -19t-23 -20q-4 -8 -5.5 -10t-4 -5.5t-4.5 -5.5l-12 -10q-1 0 -8 -5l-1 -1q-6 -11 -33 -39l-26 -27l-5 -12l-5 -9l-2 -5l2 -2
q20 5 33 15l39 37q27 25 40 32q12 21 37 38t49 17q14 0 19 -25l4 -20l-6 -31q0 -17 11 -30.5t26 -14.5q25 5 49 29q4 -1 4 -4l1 -12q0 -6 1 -15q0 -7 -4 -14q0 -18 -30 -48q-10 -8 -19 -11q-16 -9 -33 -11l-5 2q-3 1 -7 2q-3 0 -15 -2q-20 2 -35 17.5t-18 35.5l-3 21l-3 17
q0 6 -4 7q-4 0 -18 -12q-7 -6 -12 -12t-15 -15l-7 -2q-28 -37 -49 -45q-8 -17 -32.5 -34t-42.5 -17l-17 -6q-40 0 -47 49q0 8 7 26q2 3 5 9v2q0 6 -10 10zM161 405q-13 4 -15 22l1 8q6 16 19 26q1 0 29 17q25 14 34 27q5 1 13 5q2 2 10 7q14 10 20 10q15 0 43 -20
q6 -5 39 -19q27 -12 34 -22q17 -11 17 -43q0 -14 -8 -18l-37 18q-32 16 -47 18q-34 25 -46 25q-10 0 -26 -13q-19 -14 -25 -16q-13 -4 -32 -17q-10 -7 -23 -15zM183 -140q-25 15 -25 41q0 17 18 33t35 16q15 0 33 -10q14 0 14 -29v-21q-2 -5 -17.5 -13.5t-16.5 -14.5h-15z
" />
    <glyph glyph-name="ebth" unicode="&#x1eae;" horiz-adv-x="480" 
d="M23 -63q-20 -7 -31 -7q-12 0 -12 25v11q0 3 2 9l5 25l5 20q11 43 14 44q0 16 12 51q11 32 11 43q-7 0 -11 -2q-9 1 -13.5 6.5t-4.5 19.5q0 91 64 91q4 6 14 32q13 34 20 45l9 40q6 28 24 61q10 18 18 55q10 43 15 56q8 21 29 38l4 5q-1 3 -6.5 9.5t-6.5 12.5q8 17 15 24
q14 9 27.5 11t23.5 28q2 5 4 13q10 0 17.5 5.5t9.5 7t9 8.5l18 13q7 5 16 5q10 0 20.5 -7t10.5 -10q-1 -13 -12 -39q-8 -19 -11 -32q0 -7 19 -16q3 -2 6 -3l23 -10q10 -4 16 -12q26 -26 26 -115v-6l-1 -17l-1 -14l4 -13q4 -9 4 -26q0 -20 -4 -51l4 -47q0 -4 6.5 -8t6.5 -11
q0 -16 -3 -19l-16 -15q-1 -2 -1.5 -8t-0.5 -22q0 -26 -2 -34q-5 -15 -5.5 -48t-6.5 -48l4 -17q-6 -8 -11 -39q-5 -34 -10 -43q0 -2 -2 -8q0 -26 -39 -39q-10 0 -10 17l4 145q1 29 -4 76v47h-2q-6 0 -30 -7t-38 -7q-8 0 -53 -15q-23 -8 -39 -15l-35 -16q-9 -4 -32 -4
q-4 -25 -15 -53q-2 -5 -16 -26q0 -1 -2 -3q-8 -58 -19 -75l-4 -6q-3 -24 -14 -58q-9 -27 -16 -28zM340 307v4q4 8 4 37q-3 20 -6 31l4 19q-6 0 -6 34q2 14 2 43l-5 5q-3 5 -5 10q-22 49 -55 49q-19 0 -34 -42l-10 -28q-11 -16 -26 -47q-11 -40 -21 -57l-4 -13q-2 -7 -6 -16
q-24 -31 -24 -47l9 -3l13 -3l5 2.5t5 1.5t8 1l22 3l24 2h24q14 2 21 2q36 12 61 12zM430 891q13 -4 15 -22l-1 -8q-7 -19 -48 -44q-24 -15 -34 -26q-6 -1 -12 -5q-2 -2 -10 -7q-14 -10 -21 -10q-14 0 -42 20q-6 4 -39 19q-28 12 -35 22q-17 11 -17 43q0 13 8 18l38 -18
q34 -16 46 -18q35 -25 46 -25q10 0 27 13.5t24 15.5q12 4 28 15q20 14 27 17zM391 993q-20 -13 -49 -25q-36 -15 -50 -26q0 -7 8 -14t13 -7l29 8q51 14 73 31q9 1 42.5 20t45.5 23l9 15l8 14q0 6 2 12l-2 13q-15 18 -37 18h-10q-31 -49 -82 -82z" />
    <glyph glyph-name="abthsac" unicode="&#x1eaf;" horiz-adv-x="406" 
d="M2 96l-2 29q-3 41 70 92q9 18 61 62q28 29 84 71q66 50 103 50q15 -3 24 -21q0 -9 -9.5 -26.5t-31.5 -24.5q-10 -18 -45 -47q-7 -3 -20 -19t-23 -20q-4 -8 -5.5 -10t-4 -5.5t-4.5 -5.5l-12 -10q-1 0 -8 -5l-1 -1q-6 -11 -33 -39l-26 -27l-5 -12l-5 -9l-2 -5l2 -2
q20 5 33 15l39 37q27 25 40 32q12 21 37 38t49 17q14 0 19 -25l4 -20l-6 -31q0 -17 11 -30.5t26 -14.5q25 5 49 29q4 -1 4 -4l1 -12q0 -6 1 -15q0 -7 -4 -14q0 -18 -30 -48q-10 -8 -19 -11q-16 -9 -33 -11l-5 2q-3 1 -7 2q-3 0 -15 -2q-20 2 -35 17.5t-18 35.5l-3 21l-3 17
q0 6 -4 7q-4 0 -18 -12q-7 -6 -12 -12t-15 -15l-7 -2q-28 -37 -49 -45q-8 -17 -32.5 -34t-42.5 -17l-17 -6q-40 0 -47 49q0 8 7 26q2 3 5 9v2q0 6 -10 10zM381 545q13 -4 15 -22l-1 -8q-7 -19 -48 -44q-24 -15 -34 -26q-6 -1 -12 -5q-2 -2 -10 -7q-14 -10 -21 -10
q-14 0 -42 20q-6 4 -39 19q-28 12 -35 22q-17 11 -17 43q0 13 8 18l38 -18q34 -16 46 -18q35 -25 46 -25q10 0 27 13.5t24 15.5q12 4 28 15q20 14 27 17zM342 647q-20 -13 -49 -25q-36 -15 -50 -26q0 -7 8 -14t13 -7l29 8q51 14 73 31q9 1 42.5 20t45.5 23l9 15l8 14
q0 6 2 12l-2 13q-15 18 -37 18h-10q-31 -49 -82 -82z" />
    <glyph glyph-name="ebthsac" unicode="&#x1eb0;" horiz-adv-x="480" 
d="M23 -63q-20 -7 -31 -7q-12 0 -12 25v11q0 3 2 9l5 25l5 20q11 43 14 44q0 16 12 51q11 32 11 43q-7 0 -11 -2q-9 1 -13.5 6.5t-4.5 19.5q0 91 64 91q4 6 14 32q13 34 20 45l9 40q6 28 24 61q10 18 18 55q10 43 15 56q8 21 29 38l4 5q-1 3 -6.5 9.5t-6.5 12.5q8 17 15 24
q14 9 27.5 11t23.5 28q2 5 4 13q10 0 17.5 5.5t9.5 7t9 8.5l18 13q7 5 16 5q10 0 20.5 -7t10.5 -10q-1 -13 -12 -39q-8 -19 -11 -32q0 -7 19 -16q3 -2 6 -3l23 -10q10 -4 16 -12q26 -26 26 -115v-6l-1 -17l-1 -14l4 -13q4 -9 4 -26q0 -20 -4 -51l4 -47q0 -4 6.5 -8t6.5 -11
q0 -16 -3 -19l-16 -15q-1 -2 -1.5 -8t-0.5 -22q0 -26 -2 -34q-5 -15 -5.5 -48t-6.5 -48l4 -17q-6 -8 -11 -39q-5 -34 -10 -43q0 -2 -2 -8q0 -26 -39 -39q-10 0 -10 17l4 145q1 29 -4 76v47h-2q-6 0 -30 -7t-38 -7q-8 0 -53 -15q-23 -8 -39 -15l-35 -16q-9 -4 -32 -4
q-4 -25 -15 -53q-2 -5 -16 -26q0 -1 -2 -3q-8 -58 -19 -75l-4 -6q-3 -24 -14 -58q-9 -27 -16 -28zM340 307v4q4 8 4 37q-3 20 -6 31l4 19q-6 0 -6 34q2 14 2 43l-5 5q-3 5 -5 10q-22 49 -55 49q-19 0 -34 -42l-10 -28q-11 -16 -26 -47q-11 -40 -21 -57l-4 -13q-2 -7 -6 -16
q-24 -31 -24 -47l9 -3l13 -3l5 2.5t5 1.5t8 1l22 3l24 2h24q14 2 21 2q36 12 61 12zM430 891q13 -4 15 -22l-1 -8q-7 -19 -48 -44q-24 -15 -34 -26q-6 -1 -12 -5q-2 -2 -10 -7q-14 -10 -21 -10q-14 0 -42 20q-6 4 -39 19q-28 12 -35 22q-17 11 -17 43q0 13 8 18l38 -18
q34 -16 46 -18q35 -25 46 -25q10 0 27 13.5t24 15.5q12 4 28 15q20 14 27 17zM268 993q20 -13 49 -25q36 -15 50 -26q0 -7 -7.5 -14t-13.5 -7l-29 8q-51 14 -73 31q-9 1 -41 19q-35 20 -47 24l-9 15l-8 14q0 6 -2 12l2 13q15 18 37 18h10q31 -49 82 -82z" />
    <glyph glyph-name="abthhuyen" unicode="&#x1eb1;" horiz-adv-x="406" 
d="M2 96l-2 29q-3 41 70 92q9 18 61 62q28 29 84 71q66 50 103 50q15 -3 24 -21q0 -9 -9.5 -26.5t-31.5 -24.5q-10 -18 -45 -47q-7 -3 -20 -19t-23 -20q-4 -8 -5.5 -10t-4 -5.5t-4.5 -5.5l-12 -10q-1 0 -8 -5l-1 -1q-6 -11 -33 -39l-26 -27l-5 -12l-5 -9l-2 -5l2 -2
q20 5 33 15l39 37q27 25 40 32q12 21 37 38t49 17q14 0 19 -25l4 -20l-6 -31q0 -17 11 -30.5t26 -14.5q25 5 49 29q4 -1 4 -4l1 -12q0 -6 1 -15q0 -7 -4 -14q0 -18 -30 -48q-10 -8 -19 -11q-16 -9 -33 -11l-5 2q-3 1 -7 2q-3 0 -15 -2q-20 2 -35 17.5t-18 35.5l-3 21l-3 17
q0 6 -4 7q-4 0 -18 -12q-7 -6 -12 -12t-15 -15l-7 -2q-28 -37 -49 -45q-8 -17 -32.5 -34t-42.5 -17l-17 -6q-40 0 -47 49q0 8 7 26q2 3 5 9v2q0 6 -10 10zM381 545q13 -4 15 -22l-1 -8q-7 -19 -48 -44q-24 -15 -34 -26q-6 -1 -12 -5q-2 -2 -10 -7q-14 -10 -21 -10
q-14 0 -42 20q-6 4 -39 19q-28 12 -35 22q-17 11 -17 43q0 13 8 18l38 -18q34 -16 46 -18q35 -25 46 -25q10 0 27 13.5t24 15.5q12 4 28 15q20 14 27 17zM219 647q20 -13 49 -25q36 -15 50 -26q0 -7 -7.5 -14t-13.5 -7l-29 8q-51 14 -73 31q-9 1 -41 19q-35 20 -47 24l-9 15
l-8 14q0 6 -2 12l2 13q15 18 37 18h10q31 -49 82 -82z" />
    <glyph glyph-name="ebthhuyen" unicode="&#x1eb2;" horiz-adv-x="480" 
d="M23 -63q-20 -7 -31 -7q-12 0 -12 25v11q0 3 2 9l5 25l5 20q11 43 14 44q0 16 12 51q11 32 11 43q-7 0 -11 -2q-9 1 -13.5 6.5t-4.5 19.5q0 91 64 91q4 6 14 32q13 34 20 45l9 40q6 28 24 61q10 18 18 55q10 43 15 56q8 21 29 38l4 5q-1 3 -6.5 9.5t-6.5 12.5q8 17 15 24
q14 9 27.5 11t23.5 28q2 5 4 13q10 0 17.5 5.5t9.5 7t9 8.5l18 13q7 5 16 5q10 0 20.5 -7t10.5 -10q-1 -13 -12 -39q-8 -19 -11 -32q0 -7 19 -16q3 -2 6 -3l23 -10q10 -4 16 -12q26 -26 26 -115v-6l-1 -17l-1 -14l4 -13q4 -9 4 -26q0 -20 -4 -51l4 -47q0 -4 6.5 -8t6.5 -11
q0 -16 -3 -19l-16 -15q-1 -2 -1.5 -8t-0.5 -22q0 -26 -2 -34q-5 -15 -5.5 -48t-6.5 -48l4 -17q-6 -8 -11 -39q-5 -34 -10 -43q0 -2 -2 -8q0 -26 -39 -39q-10 0 -10 17l4 145q1 29 -4 76v47h-2q-6 0 -30 -7t-38 -7q-8 0 -53 -15q-23 -8 -39 -15l-35 -16q-9 -4 -32 -4
q-4 -25 -15 -53q-2 -5 -16 -26q0 -1 -2 -3q-8 -58 -19 -75l-4 -6q-3 -24 -14 -58q-9 -27 -16 -28zM340 307v4q4 8 4 37q-3 20 -6 31l4 19q-6 0 -6 34q2 14 2 43l-5 5q-3 5 -5 10q-22 49 -55 49q-19 0 -34 -42l-10 -28q-11 -16 -26 -47q-11 -40 -21 -57l-4 -13q-2 -7 -6 -16
q-24 -31 -24 -47l9 -3l13 -3l5 2.5t5 1.5t8 1l22 3l24 2h24q14 2 21 2q36 12 61 12zM430 891q13 -4 15 -22l-1 -8q-7 -19 -48 -44q-24 -15 -34 -26q-6 -1 -12 -5q-2 -2 -10 -7q-14 -10 -21 -10q-14 0 -42 20q-6 4 -39 19q-28 12 -35 22q-17 11 -17 43q0 13 8 18l38 -18
q34 -16 46 -18q35 -25 46 -25q10 0 27 13.5t24 15.5q12 4 28 15q20 14 27 17zM278 1059l-34 32q4 37 26 37q5 0 12 -2q110 -28 110 -87q0 -31 -26 -64q-33 -42 -37 -54q-38 -4 -38 6v1q0 4 4 10q37 49 37 84q0 39 -44 52q5 -14 -10 -15z" />
    <glyph glyph-name="abthhoi" unicode="&#x1eb3;" horiz-adv-x="406" 
d="M2 96l-2 29q-3 41 70 92q9 18 61 62q28 29 84 71q66 50 103 50q15 -3 24 -21q0 -9 -9.5 -26.5t-31.5 -24.5q-10 -18 -45 -47q-7 -3 -20 -19t-23 -20q-4 -8 -5.5 -10t-4 -5.5t-4.5 -5.5l-12 -10q-1 0 -8 -5l-1 -1q-6 -11 -33 -39l-26 -27l-5 -12l-5 -9l-2 -5l2 -2
q20 5 33 15l39 37q27 25 40 32q12 21 37 38t49 17q14 0 19 -25l4 -20l-6 -31q0 -17 11 -30.5t26 -14.5q25 5 49 29q4 -1 4 -4l1 -12q0 -6 1 -15q0 -7 -4 -14q0 -18 -30 -48q-10 -8 -19 -11q-16 -9 -33 -11l-5 2q-3 1 -7 2q-3 0 -15 -2q-20 2 -35 17.5t-18 35.5l-3 21l-3 17
q0 6 -4 7q-4 0 -18 -12q-7 -6 -12 -12t-15 -15l-7 -2q-28 -37 -49 -45q-8 -17 -32.5 -34t-42.5 -17l-17 -6q-40 0 -47 49q0 8 7 26q2 3 5 9v2q0 6 -10 10zM381 545q13 -4 15 -22l-1 -8q-7 -19 -48 -44q-24 -15 -34 -26q-6 -1 -12 -5q-2 -2 -10 -7q-14 -10 -21 -10
q-14 0 -42 20q-6 4 -39 19q-28 12 -35 22q-17 11 -17 43q0 13 8 18l38 -18q34 -16 46 -18q35 -25 46 -25q10 0 27 13.5t24 15.5q12 4 28 15q20 14 27 17zM229 713l-34 32q4 37 26 37q5 0 12 -2q110 -28 110 -87q0 -31 -26 -64q-33 -42 -37 -54q-38 -4 -38 6v1q0 4 4 10
q37 49 37 84q0 39 -44 52q5 -14 -10 -15z" />
    <glyph glyph-name="ebthhoi" unicode="&#x1eb4;" horiz-adv-x="480" 
d="M23 -63q-20 -7 -31 -7q-12 0 -12 25v11q0 3 2 9l5 25l5 20q11 43 14 44q0 16 12 51q11 32 11 43q-7 0 -11 -2q-9 1 -13.5 6.5t-4.5 19.5q0 91 64 91q4 6 14 32q13 34 20 45l9 40q6 28 24 61q10 18 18 55q10 43 15 56q8 21 29 38l4 5q-1 3 -6.5 9.5t-6.5 12.5q8 17 15 24
q14 9 27.5 11t23.5 28q2 5 4 13q10 0 17.5 5.5t9.5 7t9 8.5l18 13q7 5 16 5q10 0 20.5 -7t10.5 -10q-1 -13 -12 -39q-8 -19 -11 -32q0 -7 19 -16q3 -2 6 -3l23 -10q10 -4 16 -12q26 -26 26 -115v-6l-1 -17l-1 -14l4 -13q4 -9 4 -26q0 -20 -4 -51l4 -47q0 -4 6.5 -8t6.5 -11
q0 -16 -3 -19l-16 -15q-1 -2 -1.5 -8t-0.5 -22q0 -26 -2 -34q-5 -15 -5.5 -48t-6.5 -48l4 -17q-6 -8 -11 -39q-5 -34 -10 -43q0 -2 -2 -8q0 -26 -39 -39q-10 0 -10 17l4 145q1 29 -4 76v47h-2q-6 0 -30 -7t-38 -7q-8 0 -53 -15q-23 -8 -39 -15l-35 -16q-9 -4 -32 -4
q-4 -25 -15 -53q-2 -5 -16 -26q0 -1 -2 -3q-8 -58 -19 -75l-4 -6q-3 -24 -14 -58q-9 -27 -16 -28zM340 307v4q4 8 4 37q-3 20 -6 31l4 19q-6 0 -6 34q2 14 2 43l-5 5q-3 5 -5 10q-22 49 -55 49q-19 0 -34 -42l-10 -28q-11 -16 -26 -47q-11 -40 -21 -57l-4 -13q-2 -7 -6 -16
q-24 -31 -24 -47l9 -3l13 -3l5 2.5t5 1.5t8 1l22 3l24 2h24q14 2 21 2q36 12 61 12zM430 891q13 -4 15 -22l-1 -8q-7 -19 -48 -44q-24 -15 -34 -26q-6 -1 -12 -5q-2 -2 -10 -7q-14 -10 -21 -10q-14 0 -42 20q-6 4 -39 19q-28 12 -35 22q-17 11 -17 43q0 13 8 18l38 -18
q34 -16 46 -18q35 -25 46 -25q10 0 27 13.5t24 15.5q12 4 28 15q20 14 27 17zM250 970q-14 -4 -37 -14l-34 -15l-5 8q1 2 1.5 5.5t0.5 12.5q9 19 32 25q14 10 61 29l49 20h6q29 0 51 -22v-13l-4 -16l3 -4l6 -6q11 2 57 18q21 10 24 11q22 10 33 10q5 0 6 -4q0 -29 -21 -42
q-13 -7 -49 -15t-46 -13l-27 -8l-23 -6l-8 4q-3 3 -14 30q-9 23 -20 23q-10 0 -21 -6z" />
    <glyph glyph-name="abthnga" unicode="&#x1eb5;" horiz-adv-x="406" 
d="M2 96l-2 29q-3 41 70 92q9 18 61 62q28 29 84 71q66 50 103 50q15 -3 24 -21q0 -9 -9.5 -26.5t-31.5 -24.5q-10 -18 -45 -47q-7 -3 -20 -19t-23 -20q-4 -8 -5.5 -10t-4 -5.5t-4.5 -5.5l-12 -10q-1 0 -8 -5l-1 -1q-6 -11 -33 -39l-26 -27l-5 -12l-5 -9l-2 -5l2 -2
q20 5 33 15l39 37q27 25 40 32q12 21 37 38t49 17q14 0 19 -25l4 -20l-6 -31q0 -17 11 -30.5t26 -14.5q25 5 49 29q4 -1 4 -4l1 -12q0 -6 1 -15q0 -7 -4 -14q0 -18 -30 -48q-10 -8 -19 -11q-16 -9 -33 -11l-5 2q-3 1 -7 2q-3 0 -15 -2q-20 2 -35 17.5t-18 35.5l-3 21l-3 17
q0 6 -4 7q-4 0 -18 -12q-7 -6 -12 -12t-15 -15l-7 -2q-28 -37 -49 -45q-8 -17 -32.5 -34t-42.5 -17l-17 -6q-40 0 -47 49q0 8 7 26q2 3 5 9v2q0 6 -10 10zM381 545q13 -4 15 -22l-1 -8q-7 -19 -48 -44q-24 -15 -34 -26q-6 -1 -12 -5q-2 -2 -10 -7q-14 -10 -21 -10
q-14 0 -42 20q-6 4 -39 19q-28 12 -35 22q-17 11 -17 43q0 13 8 18l38 -18q34 -16 46 -18q35 -25 46 -25q10 0 27 13.5t24 15.5q12 4 28 15q20 14 27 17zM201 624q-14 -4 -37 -14l-34 -15l-5 8q1 2 1.5 5.5t0.5 12.5q9 19 32 25q14 10 61 29l49 20h6q29 0 51 -22v-13l-4 -16
l3 -4l6 -6q11 2 57 18q21 10 24 11q22 10 33 10q5 0 6 -4q0 -29 -21 -42q-13 -7 -49 -15t-46 -13l-27 -8l-23 -6l-8 4q-3 3 -14 30q-9 23 -20 23q-10 0 -21 -6z" />
    <glyph glyph-name="ebthnga" unicode="&#x1eb6;" horiz-adv-x="480" 
d="M23 -63q-20 -7 -31 -7q-12 0 -12 25v11q0 3 2 9l5 25l5 20q11 43 14 44q0 16 12 51q11 32 11 43q-7 0 -11 -2q-9 1 -13.5 6.5t-4.5 19.5q0 91 64 91q4 6 14 32q13 34 20 45l9 40q6 28 24 61q10 18 18 55q10 43 15 56q8 21 29 38l4 5q-1 3 -6.5 9.5t-6.5 12.5q8 17 15 24
q14 9 27.5 11t23.5 28q2 5 4 13q10 0 17.5 5.5t9.5 7t9 8.5l18 13q7 5 16 5q10 0 20.5 -7t10.5 -10q-1 -13 -12 -39q-8 -19 -11 -32q0 -7 19 -16q3 -2 6 -3l23 -10q10 -4 16 -12q26 -26 26 -115v-6l-1 -17l-1 -14l4 -13q4 -9 4 -26q0 -20 -4 -51l4 -47q0 -4 6.5 -8t6.5 -11
q0 -16 -3 -19l-16 -15q-1 -2 -1.5 -8t-0.5 -22q0 -26 -2 -34q-5 -15 -5.5 -48t-6.5 -48l4 -17q-6 -8 -11 -39q-5 -34 -10 -43q0 -2 -2 -8q0 -26 -39 -39q-10 0 -10 17l4 145q1 29 -4 76v47h-2q-6 0 -30 -7t-38 -7q-8 0 -53 -15q-23 -8 -39 -15l-35 -16q-9 -4 -32 -4
q-4 -25 -15 -53q-2 -5 -16 -26q0 -1 -2 -3q-8 -58 -19 -75l-4 -6q-3 -24 -14 -58q-9 -27 -16 -28zM340 307v4q4 8 4 37q-3 20 -6 31l4 19q-6 0 -6 34q2 14 2 43l-5 5q-3 5 -5 10q-22 49 -55 49q-19 0 -34 -42l-10 -28q-11 -16 -26 -47q-11 -40 -21 -57l-4 -13q-2 -7 -6 -16
q-24 -31 -24 -47l9 -3l13 -3l5 2.5t5 1.5t8 1l22 3l24 2h24q14 2 21 2q36 12 61 12zM430 891q13 -4 15 -22l-1 -8q-7 -19 -48 -44q-24 -15 -34 -26q-6 -1 -12 -5q-2 -2 -10 -7q-14 -10 -21 -10q-14 0 -42 20q-6 4 -39 19q-28 12 -35 22q-17 11 -17 43q0 13 8 18l38 -18
q34 -16 46 -18q35 -25 46 -25q10 0 27 13.5t24 15.5q12 4 28 15q20 14 27 17zM162 -149q-25 15 -25 41q0 17 18 33t35 16q15 0 33 -10q14 0 14 -29v-21q-2 -5 -17.5 -13.5t-16.5 -14.5h-15z" />
    <glyph glyph-name="abthnang" unicode="&#x1eb7;" horiz-adv-x="406" 
d="M2 96l-2 29q-3 41 70 92q9 18 61 62q28 29 84 71q66 50 103 50q15 -3 24 -21q0 -9 -9.5 -26.5t-31.5 -24.5q-10 -18 -45 -47q-7 -3 -20 -19t-23 -20q-4 -8 -5.5 -10t-4 -5.5t-4.5 -5.5l-12 -10q-1 0 -8 -5l-1 -1q-6 -11 -33 -39l-26 -27l-5 -12l-5 -9l-2 -5l2 -2
q20 5 33 15l39 37q27 25 40 32q12 21 37 38t49 17q14 0 19 -25l4 -20l-6 -31q0 -17 11 -30.5t26 -14.5q25 5 49 29q4 -1 4 -4l1 -12q0 -6 1 -15q0 -7 -4 -14q0 -18 -30 -48q-10 -8 -19 -11q-16 -9 -33 -11l-5 2q-3 1 -7 2q-3 0 -15 -2q-20 2 -35 17.5t-18 35.5l-3 21l-3 17
q0 6 -4 7q-4 0 -18 -12q-7 -6 -12 -12t-15 -15l-7 -2q-28 -37 -49 -45q-8 -17 -32.5 -34t-42.5 -17l-17 -6q-40 0 -47 49q0 8 7 26q2 3 5 9v2q0 6 -10 10zM381 545q13 -4 15 -22l-1 -8q-7 -19 -48 -44q-24 -15 -34 -26q-6 -1 -12 -5q-2 -2 -10 -7q-14 -10 -21 -10
q-14 0 -42 20q-6 4 -39 19q-28 12 -35 22q-17 11 -17 43q0 13 8 18l38 -18q34 -16 46 -18q35 -25 46 -25q10 0 27 13.5t24 15.5q12 4 28 15q20 14 27 17zM183 -140q-25 15 -25 41q0 17 18 33t35 16q15 0 33 -10q14 0 14 -29v-21q-2 -5 -17.5 -13.5t-16.5 -14.5h-15z" />
    <glyph glyph-name="abhoahuyen" unicode="&#x1eb8;" horiz-adv-x="443" 
d="M262 0q-92 -35 -188 -35q-13 0 -19.5 2t-11.5 15v18q-15 0 -20 2.5t-8 15.5q2 4 2 9v41q0 36 8 90q9 71 11 90l2 24l2 18l5 19v19q3 12 6 31.5t8 50.5q3 26 12 79q19 88 62 126q74 67 129 86q9 3 41 6l23 2q25 2 28 2l35 -2h15q7 -2 19 -8q5 -3 11.5 -8t6.5 -25
q0 -4 -1 -10.5t-2 -16.5l-2 -16q0 -16 -5.5 -21.5t-24.5 -11.5l-8 2q-36 15 -80 15q-15 0 -44 -4.5t-44 -4.5q-21 0 -39 -40l-10 -29l0.5 -3t1.5 -5q0 -11 -3 -21.5t-10 -27.5l-7 -23q-7 -24 -18 -68q-7 -29 -7 -49q12 0 29.5 17t27.5 20l20 7l31 10q7 2 22 3l38 2l38 2
q49 0 49 -45q0 -51 -14 -51q-67 7 -113 6q-7 0 -58 -11l-42 -9q-45 -10 -52 -49q-2 -12 -10 -51l-12 -62q-5 -26 -5 -47q1 -3 1 -17h12q1 0 4 -1.5l5 -2.5q9 4 41 4q125 0 221 54q6 2 14 4q13 0 13 -19q0 -37 -76 -75q-1 -1 -60 -23zM158 -170q-25 15 -25 41q0 17 18 33
t35 16q15 0 33 -10q14 0 14 -29v-21q-2 -5 -17.5 -13.5t-16.5 -14.5h-15z" />
    <glyph glyph-name="aahoahuyen" unicode="&#x1eb9;" horiz-adv-x="297" 
d="M37 39q-7 11 -17 35q-4 8 -6 19q-7 22 -7 65q0 6 2 18l9 25l10 25l12 26l16 29q14 26 24 30q23 31 63 50q1 6 16 14q4 1 12 4q12 2 18 2q29 0 45 -18q10 -3 10 -35q0 -35 -10 -39q0 -18 -59 -79q-22 -23 -41 -30q-8 -11 -16 -17l-17 -13l-4 -13q3 -25 17.5 -35t39.5 -16
q66 8 112 45q5 1 18 15t19 14t6 -12v-9q0 -36 -8 -47q-28 -17 -110 -69q-12 -5 -23 -7l-55 -10l-17 2q-21 0 -59 31zM158 287q-17 0 -36.5 -23.5t-22.5 -42.5q1 -4 6 -4q5 1 17 8q8 6 11 11q9 3 19 17t10 24q0 6 -4 10zM78 -140q-25 15 -25 41q0 17 18 33t35 16q15 0 33 -10
q14 0 14 -29v-21q-2 -5 -17.5 -13.5t-16.5 -14.5h-15z" />
    </font>
</defs>
</svg>
